<?xml version="1.0" encoding="utf-8"?>
<!-- Generator: Adobe Illustrator 28.0.0, SVG Export Plug-In . SVG Version: 6.00 Build 0)  -->
<svg version="1.1" id="Calque_1" xmlns="http://www.w3.org/2000/svg" xmlns:xlink="http://www.w3.org/1999/xlink" x="0px" y="0px"
	 viewBox="0 0 127.5 21.2" style="enable-background:new 0 0 127.5 21.2;" xml:space="preserve">
<style type="text/css">
	.st0{fill:#C7A62D;}
	.st1{fill:#1E1F1D;}
	.st2{fill:#1E1F1D;stroke:#1E1F1D;stroke-width:0.2163;stroke-miterlimit:10;}
</style>
<path d="M56.1,13.7v-1.2c-0.1,0.1-0.1,0.2-0.2,0.2c-0.5,0.6-1.2,0.9-2,1c-0.7,0-1.3,0-2-0.2c-0.9-0.3-1.4-1-1.7-1.9
	C50,10.7,49.9,9.9,49.9,9c0-1.8,0-3.7,0-5.5V3.4c1.4-0.1,2.7-0.2,4.1-0.3v0.2c0,1.9,0,3.7,0,5.6c0,0.1,0,0.3,0,0.4
	c0.1,0.7,0.8,1,1.4,0.5c0.3-0.2,0.4-0.5,0.4-0.8c0-1.8,0-3.7,0-5.5V3.4c1.4-0.1,2.7-0.2,4.1-0.3v10.3C58.6,13.5,57.4,13.6,56.1,13.7
	"/>
<path d="M25.1,4.3c-0.8,1-1.5,2-2.3,3c-0.1-0.1-0.2-0.1-0.3-0.2c-0.7-0.5-1.8-0.4-2.4,0.2c-0.5,0.5-0.6,1-0.5,1.7
	c0.2,0.6,0.6,1,1.2,1.1c0.7,0.2,1.3,0,1.9-0.4c0.7,1,1.5,2.1,2.3,3.2c-0.5,0.2-0.9,0.4-1.4,0.6c-0.9,0.3-1.8,0.5-2.8,0.5
	c-1.4-0.1-2.6-0.4-3.7-1.3c-1.1-0.9-1.7-2-1.9-3.4c-0.2-1.1,0-2.2,0.5-3.3c0.7-1.3,1.8-2.2,3.2-2.6c1.8-0.5,3.6-0.4,5.2,0.5
	C24.5,3.9,24.8,4.1,25.1,4.3"/>
<path d="M48.4,7.3c-0.2-1.3-0.9-2.4-1.9-3.2c-1-0.8-2.2-1.1-3.4-1.1c-1.6,0-2.9,0.5-4,1.5C38.5,5,38,5.7,37.7,6.5
	c-0.3,1-0.3,2.1-0.1,3.1c0.3,1.5,1.2,2.7,2.6,3.4c1.5,0.8,3.1,0.9,4.8,0.4c1.5-0.5,2.6-1.4,3.2-2.9C48.5,9.6,48.6,8.4,48.4,7.3
	 M43,9.4c-0.5,0-0.9-0.4-0.9-0.9c0-0.5,0.4-0.9,0.9-0.9c0.5,0,0.9,0.4,0.9,0.9C43.9,8.9,43.5,9.4,43,9.4"/>
<path d="M36.1,6.9c0-0.6-0.1-1.2-0.3-1.8c-0.4-0.8-1-1.3-1.8-1.7c-0.9-0.4-1.8-0.6-2.8-0.6c-1.3,0-2.5,0.1-3.7,0.4
	c-0.1,0-0.1,0.1-0.1,0.1c-0.1,0.5-0.2,0.9-0.4,1.4c-0.1,0.4-0.2,0.8-0.3,1.2c0.1,0,0.1,0,0.1,0c0.9-0.2,1.9-0.4,2.9-0.4
	c0.4,0,0.8,0,1.2,0.2c0.8,0.4,0.9,1.1,0.8,1.9c-0.2-0.1-0.4-0.2-0.6-0.3c-0.8-0.5-1.8-0.7-2.7-0.6c-1,0.2-1.8,0.6-2.3,1.5
	c-0.4,0.8-0.5,1.6-0.4,2.4c0.3,2.2,2.4,3.4,4.4,2.9c0.8-0.2,1.5-0.7,2-1.2c0,0,0.1-0.1,0.1-0.1c0,0,0,0,0.1,0v1.3h3.8v-0.2
	C36.1,11.2,36.1,9.1,36.1,6.9 M30.4,10.7c-0.5,0-0.9-0.4-0.9-0.9c0-0.5,0.4-0.9,0.9-0.9c0.5,0,0.9,0.4,0.9,0.9
	C31.4,10.3,31,10.7,30.4,10.7"/>
<path d="M11.1,7.3C10.9,6,10.3,4.9,9.2,4.1C8.1,3.3,6.9,3,5.8,3c-1.6,0-2.9,0.5-4,1.5C1.2,5.1,0.7,5.7,0.4,6.6
	c-0.3,1-0.3,2.1-0.1,3.1c0.3,1.5,1.2,2.7,2.6,3.4C4.4,13.9,6,14,7.6,13.5c1.5-0.5,2.6-1.4,3.2-2.9C11.2,9.6,11.3,8.5,11.1,7.3
	 M5.6,9.4c-0.5,0-0.9-0.4-0.9-0.9c0-0.5,0.4-0.9,0.9-0.9c0.5,0,0.9,0.4,0.9,0.9C6.6,8.9,6.2,9.4,5.6,9.4"/>
<path class="st0" d="M12.4,3.6l-0.2,0c-0.2,0-0.3-0.1-0.5-0.1c-0.2-0.1-0.3-0.2-0.4-0.4c-0.2-0.3-0.2-0.6-0.1-0.9
	c0.1-0.3,0.3-0.6,0.6-0.8c0.3-0.2,0.6-0.2,0.9-0.1c0.3,0.1,0.6,0.3,0.7,0.6c0.2,0.3,0.3,0.7,0.2,1.2c-0.1,1.2-1.1,1.8-1.1,1.8
	L12.4,3.6z"/>
<g>
	<path class="st1" d="M61.8,20.1c-0.2-0.7,0-1.7,0.9-3c0.7-1.1,3.1-3.4,5.4-5.4c0.3-0.2,0.5-0.4,0.8-0.6c0.2-1,0.4-2.1,0.6-3.3
		c0-0.2,0.2-0.3,0.3-0.2c0.1,0,0.3,0.2,0.2,0.3c-0.1,0.9-0.3,1.8-0.5,2.7c1.5-1.2,2.9-2.1,3.6-2.2c0.1,0,0.3,0.1,0.3,0.3
		c0,0.2-0.1,0.3-0.2,0.3c-0.7,0.1-2.2,1.1-3.9,2.5c-1.1,4.8-3,7.6-4.5,8.8c-0.7,0.6-1.4,0.8-1.9,0.8C62.4,21,61.9,20.7,61.8,20.1z
		 M62.3,20c0.1,0.3,0.3,0.5,0.6,0.5c0.4,0,1-0.2,1.5-0.7c1.4-1.1,3-3.5,4.1-7.7c-0.1,0.1-0.1,0.1-0.2,0.1c-2.3,1.9-4.7,4.2-5.4,5.3
		C62.4,18.6,62.2,19.4,62.3,20z M69.7,6.1c0.1-0.4,0.4-0.7,0.4-0.7c0.1-0.1,0.3-0.1,0.4,0c0.1,0.1,0.1,0.3,0,0.4
		c0,0-0.2,0.2-0.3,0.5c-0.1,0.2-0.2,0.2-0.4,0.2C69.8,6.5,69.7,6.3,69.7,6.1z"/>
	<path class="st1" d="M72.4,10.5c-0.3,0.5-0.3,0.9-0.3,1.1c0,0,0,0,0,0c0,0.1,0.1,0.2,0.3,0.3c0.2,0.1,0.5,0,0.9-0.1
		c1.4-0.3,3.4-1.7,4.5-3.2c0.1-0.1,0.3-0.1,0.4-0.1c0.1,0.1,0.2,0.3,0.1,0.4c-1.1,1.6-3.3,3-4.8,3.4c-0.4,0.1-0.9,0.1-1.2,0.1
		c-0.4-0.1-0.6-0.3-0.7-0.8c-0.1-0.5,0.1-1.2,0.8-2.3c0.4-0.6,0.8-1.1,1.2-1.5c0.4-0.4,0.8-0.6,1.1-0.6c0.2,0,0.4,0.1,0.5,0.3
		c0.1,0.1,0.1,0.3,0,0.6c0,0.2-0.1,0.4-0.2,0.6C74.7,9.5,73.8,10.3,72.4,10.5C72.5,10.5,72.4,10.5,72.4,10.5z M72.8,9.8
		c0.9-0.2,1.5-0.8,1.7-1.3c0.1-0.1,0.1-0.3,0.1-0.4c0-0.1,0-0.1,0-0.1c-0.2,0-0.4,0.2-0.7,0.5C73.6,8.7,73.2,9.2,72.8,9.8
		C72.9,9.8,72.8,9.8,72.8,9.8z"/>
	<path class="st1" d="M84.1,10c-0.1,0.6-0.1,1.1,0.1,1.4c0.1,0.2,0.2,0.2,0.4,0.2c0.5,0,1-0.3,1.6-0.8c0.8-0.7,1.6-1.7,2.1-2.3
		c0.1-0.1,0.3-0.1,0.4-0.1c0.1,0.1,0.2,0.3,0.1,0.4c-0.4,0.6-1.3,1.7-2.1,2.4c-0.6,0.5-1.3,0.9-1.9,0.9c-0.5,0-0.8-0.2-1-0.6
		c-0.2-0.4-0.2-1-0.1-1.8c0.1-0.7,0.3-1.5,0.6-2.4c0.9-2.9,2.6-6.4,3.3-7.2c0-0.1,0.1-0.1,0.2-0.1c0.1,0,0.2,0,0.2,0
		c0.3,0.1,0.3,0.5,0.2,1c-0.1,0.4-0.2,0.9-0.5,1.4c-0.8,2.2-2.6,5.7-3.3,6.7c-0.1,0.1-0.1,0.1-0.2,0.1C84.2,9.7,84.2,9.9,84.1,10z
		 M84.7,7.7c0.8-1.5,1.9-3.7,2.5-5.3c0.2-0.5,0.3-1,0.4-1.3c0-0.1,0-0.1,0.1-0.1C87.1,1.6,85.6,4.9,84.7,7.7z"/>
	<path class="st1" d="M87.7,10.5c-0.3,0.5-0.3,0.9-0.3,1.1c0,0,0,0,0,0c0,0.1,0.1,0.2,0.3,0.3c0.2,0.1,0.5,0,0.9-0.1
		c1.4-0.3,3.4-1.7,4.5-3.2c0.1-0.1,0.3-0.1,0.4-0.1c0.1,0.1,0.2,0.3,0.1,0.4c-1.1,1.6-3.3,3-4.8,3.4c-0.4,0.1-0.9,0.1-1.2,0.1
		c-0.4-0.1-0.6-0.3-0.7-0.8c-0.1-0.5,0.1-1.2,0.8-2.3c0.4-0.6,0.8-1.1,1.2-1.5c0.4-0.4,0.8-0.6,1.1-0.6c0.2,0,0.4,0.1,0.5,0.3
		c0.1,0.1,0.1,0.3,0,0.6c0,0.2-0.1,0.4-0.2,0.6C90,9.5,89.1,10.3,87.7,10.5C87.7,10.5,87.7,10.5,87.7,10.5z M88.1,9.8
		C89,9.6,89.6,9,89.8,8.5C89.9,8.4,90,8.2,90,8.1C90,8,90,8,90,7.9c-0.2,0-0.4,0.2-0.7,0.5C88.9,8.7,88.5,9.2,88.1,9.8
		C88.1,9.8,88.1,9.8,88.1,9.8z"/>
	<path class="st1" d="M102.9,9.2c0.2-0.1,0.4-0.1,0.6-0.2c0.9-0.3,1.9-0.6,2.9-0.5c0.2,0,0.3,0.1,0.3,0.3c0,0.2-0.1,0.3-0.3,0.3
		c-0.9,0-1.8,0.2-2.7,0.5c-0.3,0.1-0.6,0.3-1,0.4c0,0,0,0,0,0c-0.4,1.2-1.3,2.5-2.4,2.6c-0.2,0-0.4,0-0.5-0.1
		c-0.1-0.1-0.2-0.2-0.3-0.4c0-0.1,0-0.3,0.1-0.4c0.1-0.3,0.5-0.7,1.1-1.2c0.4-0.3,1-0.7,1.6-1c0.1-0.3,0.1-0.5,0.1-0.7
		c0-0.3,0-0.5-0.1-0.7c-0.1-0.2-0.2-0.3-0.4-0.3c-0.7,0-1.5,1-2.3,2.4c-0.1,0.2-0.2,0.3-0.3,0.5c-0.3,1.9-0.6,4.4-1.1,6.3
		c-0.4,1.6-1,2.8-1.4,3.3c-0.2,0.2-0.4,0.3-0.6,0.3c-0.2,0-0.4-0.2-0.5-0.6c-0.1-0.5,0.1-1.6,0.6-3.3c0.6-1.9,1.5-4.4,2.4-6.3
		c0-0.1,0-0.1,0-0.2C99.1,9,99.2,8,99.3,7.6c0-0.1,0.2-0.2,0.3-0.2c0.2,0,0.2,0.2,0.2,0.4c-0.1,0.3-0.2,0.8-0.3,1.5
		c0.8-1.2,1.6-2,2.3-2c0.5,0,0.7,0.2,0.9,0.6c0.1,0.3,0.1,0.6,0.1,1C102.9,9,102.9,9.1,102.9,9.2z M98.6,12.5C98,14,97.4,15.6,97,17
		c-0.5,1.6-0.6,2.6-0.5,3c0,0.1-0.1,0.1-0.1,0.1c0,0,0.1-0.1,0.2-0.2c0.4-0.5,0.9-1.5,1.3-3C98.1,15.5,98.4,13.9,98.6,12.5z
		 M101.9,10.4c-0.3,0.2-0.6,0.4-0.9,0.6c-0.5,0.4-0.8,0.8-0.9,1c0,0,0.1,0,0.1,0C100.9,11.9,101.5,11.2,101.9,10.4z"/>
	<path class="st1" d="M105.5,10.5c-0.3,0.5-0.3,0.9-0.3,1.1c0,0,0,0,0,0c0,0.1,0.1,0.2,0.3,0.3c0.2,0.1,0.5,0,0.9-0.1
		c1.4-0.3,3.4-1.7,4.5-3.2c0.1-0.1,0.3-0.1,0.4-0.1c0.1,0.1,0.2,0.3,0.1,0.4c-1.1,1.6-3.3,3-4.8,3.4c-0.4,0.1-0.9,0.1-1.2,0.1
		c-0.4-0.1-0.6-0.3-0.7-0.8c-0.1-0.5,0.1-1.2,0.8-2.3c0.4-0.6,0.8-1.1,1.2-1.5c0.4-0.4,0.8-0.6,1.1-0.6c0.2,0,0.4,0.1,0.5,0.3
		c0.1,0.1,0.1,0.3,0,0.6c0,0.2-0.1,0.4-0.2,0.6C107.7,9.5,106.9,10.3,105.5,10.5C105.5,10.5,105.5,10.5,105.5,10.5z M105.9,9.8
		c0.9-0.2,1.5-0.8,1.7-1.3c0.1-0.1,0.1-0.3,0.1-0.4c0-0.1,0-0.1,0-0.1c-0.2,0-0.4,0.2-0.7,0.5C106.7,8.7,106.3,9.2,105.9,9.8
		C105.9,9.8,105.9,9.8,105.9,9.8z"/>
	<path class="st1" d="M110,12.3L110,12.3C110,12.3,110,12.3,110,12.3c0.1-0.3,0.2-0.9,0.4-1.6c0.2-0.9,0.5-1.9,0.8-2.9
		c0.1-0.2,0.2-0.2,0.3-0.2c0.2,0,0.2,0.2,0.2,0.4c-0.1,0.5-0.3,1-0.4,1.5c0.2-0.2,0.3-0.4,0.5-0.6c0.7-0.8,1.6-1.3,2.6-1.3
		c0.2,0,0.3,0.1,0.3,0.3c0,0.2-0.1,0.3-0.3,0.3c-0.8,0-1.6,0.4-2.2,1.1c-0.8,0.9-1.4,2.1-1.7,3.1v0c0,0,0,0,0,0l-0.2-0.1l0.2,0.1
		c-0.1,0.1-0.2,0.2-0.4,0.2C110,12.6,109.9,12.4,110,12.3z"/>
	<path class="st1" d="M117.1,11.2c-0.6,0.7-1.1,1.3-1.6,1.4c-0.1,0-0.1,0-0.1,0c-0.2,0-0.3-0.1-0.4-0.2c-0.1-0.1-0.2-0.2-0.2-0.4
		c0-0.1,0-0.1,0-0.2c-0.1-1.9,0.8-3.3,1.7-4c0.3-0.2,0.5-0.3,0.8-0.4c0.3-0.1,0.5-0.1,0.7,0.1c0.2,0.1,0.3,0.2,0.4,0.4
		c0.4-1.5,0.9-3.1,1.4-4.5c0.6-1.7,1.3-3,2-3.1c0.1,0,0.2,0,0.2,0c0.3,0.1,0.3,0.5,0.2,1c-0.1,0.4-0.2,0.9-0.4,1.4
		c-0.6,1.7-1.8,4.1-2.6,5.6c-0.3,0.8-1.1,3.4-0.4,3.4c1.1,0,3.7-3.1,3.7-3.1c0.1-0.1,0.3-0.1,0.4,0c0.1,0.1,0.1,0.3,0,0.4
		c0,0-2.7,3.3-4.1,3.3c-0.9,0-0.8-1.3-0.6-2.5C117.7,10.3,117.4,10.8,117.1,11.2z M116.6,10.8c0.5-0.6,1-1.3,1.4-2c0,0,0,0,0,0
		c-0.1,0-0.2-0.1-0.2-0.3c0-0.3-0.1-0.5-0.2-0.5c-0.1-0.1-0.2-0.1-0.3,0c-0.2,0.1-0.4,0.2-0.6,0.3c-0.7,0.6-1.5,1.9-1.4,3.5
		c0,0,0,0.1,0,0.1c0,0,0,0.1,0,0.1h0c0,0,0,0,0.1,0h0C115.7,11.9,116.1,11.4,116.6,10.8z M119.1,6.9c0.7-1.4,1.5-3.2,2-4.5
		c0.2-0.4,0.3-0.8,0.4-1.1c0-0.1,0.3-0.8-0.2-0.1c0,0,0,0.1-0.1,0.1c-0.3,0.5-0.7,1.3-1,2.3C119.8,4.6,119.4,5.8,119.1,6.9z"/>
	<path class="st1" d="M122.9,11.2c-0.1-0.2-0.1-0.4-0.2-0.6c-0.2-0.5-0.4-0.9-0.4-1.7c0.1-1.9,1.3-2.1,1.3-2.1
		c0.2,0,0.3,0.1,0.3,0.3c0,0.2-0.1,0.3-0.2,0.3c0,0-0.8,0.1-0.9,1.5c0,0.7,0.1,1.1,0.3,1.5c0.1,0.1,0.1,0.3,0.2,0.4
		c0.9-0.7,2.1-1.5,3.5-2.3c0.1-0.1,0.3,0,0.4,0.1c0.1,0.1,0,0.3-0.1,0.4c-1.6,0.9-2.8,1.7-3.7,2.4c0.1,0.3,0.1,0.7,0,1.2
		c-0.1,1.3-0.8,2.1-1.5,2.4c-0.5,0.2-0.9,0.2-1.2,0c-0.3-0.3-0.4-0.7-0.1-1.4C120.9,13,121.6,12.2,122.9,11.2z M121.2,13.9
		c-0.2,0.4-0.2,0.6-0.1,0.6c0.1,0.1,0.4,0.1,0.7,0c0.5-0.2,1.1-0.9,1.2-1.9c0-0.3,0-0.5,0-0.7C122,12.7,121.4,13.4,121.2,13.9z"/>
</g>
<path class="st2" d="M63.1,17.5c0.7-1.1,3-3.3,5.4-5.3c0.1-0.1,0.1-0.1,0.2-0.1c-1.1,4.2-2.7,6.6-4.1,7.7c-0.6,0.5-1.1,0.7-1.5,0.7
	c-0.3,0-0.6-0.2-0.6-0.5C62.2,19.4,62.4,18.6,63.1,17.5z M63,21.1c0.5,0,1.2-0.2,1.9-0.8c1.6-1.2,3.4-3.9,4.5-8.8
	c1.7-1.3,3.2-2.4,3.9-2.5c0.2,0,0.3-0.2,0.2-0.3c0-0.2-0.2-0.3-0.3-0.3c-0.7,0.1-2,1-3.6,2.2c0.2-0.8,0.3-1.7,0.4-2.7
	c0-0.2-0.1-0.3-0.2-0.3c-0.2,0-0.3,0.1-0.3,0.2c-0.2,1.2-0.3,2.3-0.6,3.3c-0.3,0.2-0.5,0.4-0.8,0.6c-2.4,2-4.7,4.3-5.5,5.4
	c-0.8,1.3-1,2.3-0.9,3C61.9,20.7,62.4,21,63,21.1z M69.9,6.5c0.1,0.1,0.3,0,0.4-0.2c0.1-0.3,0.3-0.5,0.3-0.5c0.1-0.1,0.1-0.3,0-0.4
	c-0.1-0.1-0.3-0.1-0.4,0c0,0-0.3,0.3-0.4,0.7C69.7,6.3,69.8,6.5,69.9,6.5z"/>
<path class="st2" d="M72.9,9.8c0.3-0.5,0.7-1,1.1-1.4c0.3-0.3,0.6-0.4,0.7-0.5c0,0,0,0.1,0,0.1c0,0.1-0.1,0.3-0.1,0.4
	C74.3,9,73.7,9.6,72.9,9.8C72.8,9.8,72.9,9.8,72.9,9.8z M72.5,10.5c1.4-0.2,2.2-1,2.6-1.7c0.1-0.2,0.2-0.4,0.2-0.6
	c0-0.2,0-0.4,0-0.6c-0.1-0.2-0.3-0.3-0.5-0.3c-0.3,0-0.7,0.2-1.1,0.6c-0.4,0.4-0.8,0.9-1.2,1.5c-0.7,1.1-0.9,1.8-0.8,2.3
	c0.1,0.4,0.3,0.6,0.7,0.8c0.3,0.1,0.7,0.1,1.2-0.1C75,12,77.1,10.6,78.3,9c0.1-0.1,0.1-0.3-0.1-0.4c-0.1-0.1-0.3-0.1-0.4,0.1
	c-1.1,1.5-3.1,2.8-4.5,3.2c-0.4,0.1-0.7,0.1-0.9,0.1c-0.2,0-0.2-0.1-0.3-0.3v0C72.1,11.4,72.2,11,72.5,10.5L72.5,10.5z"/>
<path class="st2" d="M87.6,0.9c0,0-0.1,0.1-0.1,0.1c-0.1,0.3-0.2,0.8-0.4,1.3c-0.6,1.6-1.7,3.8-2.5,5.3C85.6,4.9,87.1,1.6,87.6,0.9z
	 M84.2,9.5c0.1,0,0.1-0.1,0.2-0.1c0.7-1,2.4-4.5,3.3-6.7c0.2-0.6,0.4-1,0.5-1.4c0.1-0.5,0-0.9-0.2-1c-0.1,0-0.2,0-0.2,0
	c-0.1,0-0.2,0.1-0.2,0.1c-0.7,0.8-2.4,4.2-3.3,7.2c-0.3,0.8-0.5,1.7-0.6,2.4c-0.1,0.7-0.1,1.3,0.1,1.8c0.2,0.4,0.5,0.6,1,0.6
	c0.6,0,1.2-0.4,1.9-0.9c0.9-0.7,1.7-1.8,2.1-2.4c0.1-0.1,0.1-0.3-0.1-0.4c-0.1-0.1-0.3-0.1-0.4,0.1c-0.4,0.6-1.2,1.6-2.1,2.3
	c-0.5,0.4-1.1,0.8-1.6,0.8c-0.2,0-0.3-0.1-0.4-0.2c-0.1-0.3-0.1-0.8-0.1-1.4C84.2,9.9,84.2,9.7,84.2,9.5z"/>
<path class="st2" d="M88.1,9.8c0.3-0.5,0.7-1,1.1-1.4C89.5,8.1,89.8,8,90,7.9c0,0,0,0.1,0,0.1c0,0.1-0.1,0.3-0.1,0.4
	C89.6,9,89,9.6,88.1,9.8C88.1,9.8,88.1,9.8,88.1,9.8z M87.7,10.5c1.4-0.2,2.2-1,2.6-1.7c0.1-0.2,0.2-0.4,0.2-0.6c0-0.2,0-0.4,0-0.6
	c-0.1-0.2-0.3-0.3-0.5-0.3c-0.3,0-0.7,0.2-1.1,0.6c-0.4,0.4-0.8,0.9-1.2,1.5c-0.7,1.1-0.9,1.8-0.8,2.3c0.1,0.4,0.3,0.6,0.7,0.8
	c0.3,0.1,0.7,0.1,1.2-0.1c1.5-0.4,3.7-1.8,4.8-3.4c0.1-0.1,0.1-0.3-0.1-0.4c-0.1-0.1-0.3-0.1-0.4,0.1c-1.1,1.5-3.1,2.8-4.5,3.2
	c-0.4,0.1-0.7,0.1-0.9,0.1c-0.2,0-0.2-0.1-0.3-0.3v0C87.3,11.4,87.4,11,87.7,10.5L87.7,10.5z"/>
<path class="st2" d="M100.2,12h-0.1c0.1-0.2,0.4-0.6,0.9-1c0.3-0.2,0.6-0.4,0.9-0.6C101.5,11.2,100.9,11.9,100.2,12z M97.8,16.9
	c-0.4,1.5-0.9,2.6-1.3,3c-0.1,0.1-0.1,0.2-0.2,0.2c-0.1,0,0.1,0,0.1-0.1c-0.1-0.4,0.1-1.4,0.5-3c0.4-1.4,1-3,1.6-4.5
	C98.4,14,98.1,15.5,97.8,16.9z M102.9,8.8c0-0.4,0-0.7-0.1-1c-0.2-0.4-0.5-0.6-0.9-0.6c-0.7,0-1.5,0.8-2.3,2
	c0.1-0.7,0.2-1.2,0.3-1.5c0-0.1-0.1-0.3-0.2-0.4c-0.1-0.1-0.3,0-0.3,0.2C99.2,8,99.1,9,98.9,10.3c0,0.1,0,0.1,0,0.2
	c-1,1.9-1.9,4.3-2.4,6.3c-0.5,1.7-0.6,2.8-0.6,3.3c0.1,0.4,0.2,0.6,0.5,0.6c0.2,0,0.4-0.1,0.6-0.3c0.4-0.5,1-1.7,1.4-3.3
	c0.5-2,0.8-4.4,1.1-6.3c0.1-0.2,0.2-0.3,0.3-0.5c0.8-1.4,1.6-2.4,2.3-2.4c0.2,0,0.3,0.1,0.4,0.3c0.1,0.2,0.1,0.4,0.1,0.7
	c0,0.2-0.1,0.5-0.1,0.7c-0.6,0.3-1.1,0.7-1.6,1c-0.6,0.5-1,0.9-1.1,1.2c-0.1,0.2-0.1,0.3-0.1,0.4c0,0.2,0.1,0.3,0.3,0.4
	c0.1,0.1,0.3,0.1,0.5,0.1c1.1-0.1,2-1.4,2.4-2.6v0c0.3-0.1,0.6-0.3,1-0.4c0.8-0.3,1.7-0.5,2.7-0.5c0.2,0,0.3-0.1,0.3-0.3
	c0-0.2-0.1-0.3-0.3-0.3c-1,0-2,0.2-2.9,0.5c-0.2,0.1-0.4,0.1-0.6,0.2C102.9,9.1,102.9,9,102.9,8.8z"/>
<path class="st2" d="M105.9,9.8c0.3-0.5,0.7-1,1.1-1.4c0.3-0.3,0.6-0.4,0.7-0.5c0,0,0,0.1,0,0.1c0,0.1-0.1,0.3-0.1,0.4
	C107.3,9,106.8,9.6,105.9,9.8C105.9,9.8,105.9,9.8,105.9,9.8z M105.5,10.5c1.4-0.2,2.2-1,2.6-1.7c0.1-0.2,0.2-0.4,0.2-0.6
	c0-0.2,0-0.4,0-0.6c-0.1-0.2-0.3-0.3-0.5-0.3c-0.3,0-0.7,0.2-1.1,0.6c-0.4,0.4-0.8,0.9-1.2,1.5c-0.7,1.1-0.9,1.8-0.8,2.3
	c0.1,0.4,0.3,0.6,0.7,0.8c0.3,0.1,0.7,0.1,1.2-0.1c1.5-0.4,3.7-1.8,4.8-3.4c0.1-0.1,0.1-0.3-0.1-0.4c-0.1-0.1-0.3-0.1-0.4,0.1
	c-1.1,1.5-3.1,2.8-4.5,3.2c-0.4,0.1-0.7,0.1-0.9,0.1c-0.2,0-0.2-0.1-0.3-0.3v0C105.1,11.4,105.2,11,105.5,10.5L105.5,10.5z"/>
<path class="st2" d="M110.1,12.7c0.2,0.1,0.3,0,0.4-0.2l-0.2-0.1l0.2,0.1v0v0c0.3-1.1,0.9-2.3,1.7-3.1c0.6-0.7,1.4-1.1,2.2-1.1
	c0.2,0,0.3-0.1,0.3-0.3c0-0.2-0.1-0.3-0.3-0.3c-1,0-1.9,0.5-2.6,1.3c-0.2,0.2-0.3,0.4-0.5,0.6c0.1-0.5,0.3-1,0.4-1.5
	c0-0.1-0.1-0.3-0.2-0.4c-0.1-0.1-0.3,0-0.3,0.2c-0.3,0.9-0.5,2-0.8,2.9c-0.2,0.7-0.3,1.3-0.4,1.5c0,0,0,0,0,0h0
	C109.9,12.4,110,12.6,110.1,12.7z"/>
<path class="st2" d="M115.4,12L115.4,12L115.4,12L115.4,12c-0.1,0-0.1,0-0.1-0.1v-0.1c-0.1-1.7,0.7-2.9,1.4-3.5
	c0.2-0.1,0.4-0.3,0.6-0.3c0.1,0,0.3,0,0.3,0c0.1,0.1,0.2,0.2,0.2,0.5c0,0.1,0.1,0.2,0.2,0.3v0c-0.4,0.6-0.9,1.4-1.4,2
	S115.7,11.9,115.4,12z M120.2,3.6c0.3-1,0.7-1.8,1-2.3c0,0,0.1-0.1,0.1-0.1c0.5-0.7,0.2,0,0.2,0.1c-0.1,0.3-0.2,0.7-0.4,1.1
	c-0.5,1.3-1.3,3.1-2,4.5C119.4,5.8,119.8,4.6,120.2,3.6z M118,9.8c-0.2,1.2-0.3,2.5,0.6,2.5c1.4,0,4.1-3.3,4.1-3.3
	c0.1-0.1,0.1-0.3,0-0.4c-0.1-0.1-0.3-0.1-0.4,0c0,0-2.5,3.1-3.7,3.1c-0.7,0,0.1-2.6,0.4-3.4c0.8-1.5,2-3.9,2.6-5.6
	c0.2-0.6,0.4-1,0.4-1.4c0.1-0.5,0.1-0.9-0.2-1c-0.1,0-0.2,0-0.2,0c-0.7,0.1-1.3,1.4-2,3.1c-0.5,1.4-1,3-1.4,4.5
	c-0.1-0.2-0.2-0.3-0.4-0.4c-0.2-0.1-0.5-0.1-0.7-0.1c-0.2,0.1-0.5,0.2-0.8,0.4c-0.8,0.7-1.7,2.1-1.7,4c0,0.1,0,0.1,0,0.2
	c0,0.2,0.1,0.3,0.2,0.4c0.1,0.1,0.3,0.2,0.4,0.2c0.1,0,0.1,0,0.1,0c0.4-0.1,1-0.7,1.6-1.4C117.4,10.8,117.7,10.3,118,9.8z"/>
<path class="st2" d="M123,11.9c0,0.2,0,0.4,0,0.7c-0.1,1-0.7,1.7-1.2,1.9c-0.3,0.1-0.5,0.1-0.7,0c-0.1-0.1-0.1-0.3,0.1-0.6
	C121.4,13.4,122,12.7,123,11.9z M120.7,13.6c-0.3,0.7-0.2,1.1,0.1,1.4c0.3,0.2,0.8,0.3,1.2,0c0.7-0.3,1.4-1.1,1.5-2.4
	c0.1-0.5,0.1-0.9,0-1.2c0.9-0.7,2.1-1.5,3.7-2.4c0.1-0.1,0.2-0.3,0.1-0.4c-0.1-0.1-0.2-0.2-0.4-0.1c-1.5,0.8-2.6,1.6-3.5,2.3
	c-0.1-0.1-0.1-0.3-0.2-0.4c-0.2-0.4-0.3-0.8-0.3-1.5c0.1-1.4,0.9-1.5,0.9-1.5c0.2,0,0.3-0.2,0.2-0.3c0-0.2-0.2-0.3-0.3-0.3
	c0,0-1.2,0.2-1.3,2.1c0,0.8,0.2,1.3,0.4,1.7c0.1,0.2,0.1,0.4,0.2,0.6C121.6,12.2,120.9,13,120.7,13.6z"/>
</svg>
