<?xml version="1.0" encoding="UTF-8"?>
<svg id="Calque_1" data-name="Calque 1" xmlns="http://www.w3.org/2000/svg" viewBox="0 0 127.26 21.05">
  <defs>
    <style>
      .cls-1, .cls-2, .cls-3 {
        stroke-width: 0px;
      }

      .cls-2 {
        fill: #1e1f1d;
      }

      .cls-3 {
        fill: #c7a62d;
      }
    </style>
  </defs>
  <path class="cls-1" d="m55.95,13.54v-1.22c-.08.1-.14.16-.2.23-.52.62-1.18.94-1.99.99-.68.04-1.35,0-1.99-.25-.88-.35-1.39-1.03-1.68-1.9-.27-.81-.34-1.66-.34-2.51,0-1.83,0-3.67,0-5.5v-.14c1.37-.09,2.73-.19,4.11-.29v.19c0,1.87,0,3.75,0,5.62,0,.14,0,.28.02.41.12.69.81.96,1.37.53.27-.2.41-.47.41-.82,0-1.83.01-3.66.02-5.48v-.17c1.37-.1,2.73-.19,4.1-.29v10.27c-1.27.1-2.54.2-3.83.3"/>
  <path class="cls-1" d="m24.96,4.13c-.78,1.01-1.55,1.99-2.32,2.99-.1-.07-.19-.14-.29-.21-.69-.47-1.77-.39-2.37.18-.48.46-.63,1.02-.45,1.66.18.63.63.98,1.25,1.12.69.15,1.33.03,1.9-.44.75,1.05,1.49,2.09,2.26,3.17-.46.2-.9.42-1.36.59-.9.33-1.83.52-2.79.49-1.37-.05-2.63-.42-3.72-1.29-1.08-.86-1.7-1.99-1.89-3.36-.16-1.13-.02-2.23.49-3.25.67-1.35,1.76-2.22,3.19-2.64,1.8-.53,3.55-.38,5.22.52.29.16.57.31.88.48"/>
  <path class="cls-1" d="m48.3,7.19c-.23-1.33-.85-2.43-1.93-3.25-1.04-.79-2.24-1.1-3.39-1.11-1.62,0-2.92.46-4,1.49-.63.6-1.14,1.26-1.4,2.1-.31,1.04-.34,2.09-.11,3.14.33,1.53,1.16,2.7,2.56,3.42,1.53.79,3.14.87,4.78.37,1.49-.46,2.57-1.42,3.17-2.87.44-1.06.53-2.17.33-3.3m-5.48,2.04c-.52,0-.94-.42-.94-.94s.42-.94.94-.94.94.42.94.94-.42.94-.94.94"/>
  <path class="cls-1" d="m35.94,6.82c0-.61-.06-1.21-.31-1.77-.36-.8-.99-1.33-1.76-1.72-.88-.45-1.83-.58-2.81-.61-1.26-.03-2.5.13-3.73.36-.09.02-.12.07-.13.15-.12.47-.24.94-.35,1.41-.1.39-.19.77-.29,1.18.06,0,.09-.01.13-.02.95-.22,1.9-.4,2.88-.4.4,0,.81.01,1.17.2.81.42.9,1.06.81,1.88-.19-.11-.38-.22-.57-.33-.85-.49-1.75-.73-2.73-.58-1.01.15-1.82.63-2.34,1.53-.45.76-.54,1.58-.41,2.44.34,2.16,2.36,3.41,4.44,2.95.81-.18,1.45-.66,2.02-1.24.04-.04.06-.09.1-.14.02.01.03.03.05.04v1.26h3.82v-.21c0-2.12,0-4.24.02-6.36m-5.63,3.77c-.52,0-.94-.42-.94-.94s.42-.94.94-.94.94.42.94.94-.42.94-.94.94"/>
  <path class="cls-1" d="m10.99,7.2c-.23-1.33-.85-2.43-1.93-3.25-1.04-.79-2.24-1.1-3.39-1.11-1.62,0-2.92.46-4,1.49-.63.6-1.14,1.26-1.4,2.1-.31,1.04-.34,2.09-.11,3.14.33,1.53,1.16,2.7,2.56,3.42,1.53.79,3.14.87,4.78.37,1.49-.46,2.57-1.42,3.17-2.87.44-1.06.53-2.17.33-3.3m-5.48,2.04c-.52,0-.94-.42-.94-.94s.42-.94.94-.94.94.42.94.94-.42.94-.94.94"/>
  <path class="cls-3" d="m12.27,3.47h-.22c-.17,0-.34-.05-.51-.15-.17-.09-.31-.23-.42-.42-.17-.3-.21-.62-.12-.94.1-.33.29-.58.59-.75.3-.17.62-.21.94-.12.33.1.58.28.74.57.19.33.27.73.21,1.19-.15,1.18-1.15,1.79-1.15,1.79l-.07-1.16Z"/>
  <g>
    <path class="cls-2" d="m61.63,19.98c-.17-.66.03-1.69.86-2.96.71-1.1,3.1-3.4,5.45-5.36.26-.2.52-.42.8-.62.22-1.01.42-2.11.57-3.33.02-.17.17-.28.33-.24.14.02.26.18.24.35-.12.94-.28,1.82-.45,2.66,1.54-1.19,2.91-2.08,3.58-2.17.14-.02.29.09.31.26.03.17-.07.31-.22.33-.66.09-2.18,1.14-3.86,2.48-1.12,4.83-2.98,7.57-4.53,8.76-.71.55-1.37.79-1.89.79-.61-.02-1.04-.37-1.19-.96Zm.55-.15c.07.31.31.48.64.5.42,0,.95-.2,1.54-.66,1.4-1.08,3.04-3.49,4.13-7.68-.07.06-.12.09-.19.15-2.32,1.93-4.65,4.19-5.36,5.25-.71,1.08-.92,1.93-.76,2.44Zm7.4-13.84c.14-.44.42-.72.42-.72.1-.11.28-.11.4,0,.1.13.12.31,0,.42,0,0-.17.2-.26.5-.05.17-.23.24-.36.18-.16-.06-.23-.24-.19-.39Z"/>
    <path class="cls-2" d="m72.29,10.41c-.26.5-.35.86-.29,1.08v.02c.03.13.12.22.28.26.22.06.54.04.9-.07,1.4-.35,3.43-1.65,4.5-3.18.09-.13.26-.15.4-.06.12.11.15.29.05.42-1.12,1.64-3.3,3.03-4.79,3.4-.45.13-.86.15-1.18.07-.38-.11-.64-.35-.71-.75-.09-.5.14-1.25.81-2.32.36-.55.8-1.08,1.21-1.47.4-.37.8-.61,1.12-.61.24,0,.4.13.5.33.05.15.07.35.03.55-.02.18-.09.39-.21.61-.36.7-1.21,1.51-2.58,1.71h-.05Zm.4-.7c.9-.24,1.47-.81,1.75-1.32.07-.15.12-.29.14-.42.02-.05.02-.11.02-.15-.19.02-.45.18-.74.46-.38.35-.78.85-1.12,1.36,0,.04-.02.06-.03.07Z"/>
    <path class="cls-2" d="m84,9.91c-.09.61-.09,1.1.05,1.38.07.17.21.24.4.24.48-.02,1.02-.35,1.56-.79.83-.7,1.63-1.69,2.06-2.3.1-.13.28-.15.4-.06.12.11.15.29.05.44-.45.61-1.26,1.65-2.14,2.39-.62.51-1.26.88-1.87.92-.47.02-.78-.2-.95-.57-.19-.42-.21-1.03-.12-1.76.1-.68.29-1.51.57-2.35.92-2.94,2.63-6.41,3.3-7.18.03-.07.1-.13.19-.15.09-.02.17,0,.24.02.28.11.35.46.24.97-.07.37-.23.86-.45,1.41-.83,2.24-2.56,5.68-3.27,6.72-.05.07-.1.11-.17.13-.03.18-.07.37-.09.53Zm.55-2.32c.8-1.49,1.85-3.71,2.46-5.31.19-.51.35-.97.42-1.32.02-.06.03-.11.07-.15-.54.62-2.06,3.95-2.94,6.78Z"/>
    <path class="cls-2" d="m87.55,10.41c-.26.5-.35.86-.29,1.08v.02c.03.13.12.22.28.26.22.06.54.04.9-.07,1.4-.35,3.43-1.65,4.5-3.18.09-.13.26-.15.4-.06.12.11.15.29.05.42-1.12,1.64-3.3,3.03-4.79,3.4-.45.13-.86.15-1.18.07-.38-.11-.64-.35-.71-.75-.09-.5.14-1.25.81-2.32.36-.55.8-1.08,1.21-1.47.4-.37.8-.61,1.12-.61.24,0,.4.13.5.33.05.15.07.35.03.55-.02.18-.09.39-.21.61-.36.7-1.21,1.51-2.58,1.71h-.05Zm.4-.7c.9-.24,1.47-.81,1.75-1.32.07-.15.12-.29.14-.42.02-.05.02-.11.02-.15-.19.02-.45.18-.74.46-.38.35-.78.85-1.12,1.36,0,.04-.02.06-.03.07Z"/>
    <path class="cls-2" d="m102.76,9.05c.17-.07.36-.15.55-.22.9-.33,1.87-.55,2.85-.53.17.02.29.15.29.31s-.12.29-.28.29c-.92-.02-1.83.18-2.66.5-.33.11-.64.26-.95.4v.04c-.42,1.21-1.31,2.46-2.39,2.61-.21.04-.4,0-.54-.06-.14-.09-.24-.2-.26-.39-.03-.13,0-.28.07-.44.14-.29.48-.68,1.09-1.18.43-.35.95-.7,1.56-1.01.07-.26.12-.51.14-.74.02-.28,0-.51-.07-.68-.07-.17-.19-.26-.36-.26-.66,0-1.47.99-2.27,2.41-.09.17-.17.33-.26.5-.26,1.93-.59,4.37-1.06,6.34-.38,1.56-.95,2.76-1.38,3.27-.21.22-.42.35-.61.33-.24,0-.42-.2-.49-.57-.09-.51.05-1.56.55-3.31.57-1.95,1.45-4.35,2.42-6.27.02-.07.03-.15.03-.22.17-1.29.31-2.32.43-2.76.03-.15.21-.24.35-.18.15.04.24.22.21.37-.09.28-.17.79-.26,1.47.76-1.19,1.56-1.98,2.3-1.98.45,0,.74.24.9.64.1.26.14.59.1.97,0,.11-.02.22-.03.33Zm-4.29,3.29c-.64,1.51-1.21,3.14-1.63,4.54-.47,1.64-.61,2.59-.54,3.01.02.06-.1.06-.05.07.02,0,.07-.06.16-.16.4-.46.9-1.54,1.26-3.01.33-1.36.59-2.96.8-4.45Zm3.3-2.08c-.33.2-.62.4-.88.61-.54.44-.83.77-.93.99h.14c.68-.09,1.28-.79,1.68-1.6Z"/>
    <path class="cls-2" d="m105.34,10.41c-.26.5-.35.86-.29,1.08v.02c.03.13.12.22.28.26.22.06.54.04.9-.07,1.4-.35,3.43-1.65,4.5-3.18.09-.13.26-.15.4-.06.12.11.15.29.05.42-1.12,1.64-3.3,3.03-4.79,3.4-.45.13-.86.15-1.18.07-.38-.11-.64-.35-.71-.75-.09-.5.14-1.25.81-2.32.36-.55.8-1.08,1.21-1.47.4-.37.8-.61,1.12-.61.24,0,.4.13.5.33.05.15.07.35.03.55-.02.18-.09.39-.21.61-.36.7-1.21,1.51-2.58,1.71h-.05Zm.4-.7c.9-.24,1.47-.81,1.75-1.32.07-.15.12-.29.14-.42.02-.05.02-.11.02-.15-.19.02-.45.18-.74.46-.38.35-.78.85-1.12,1.36,0,.04-.02.06-.03.07Z"/>
    <path class="cls-2" d="m109.82,12.17h-.02s.02-.04.02-.04c.09-.28.22-.85.4-1.54.22-.86.5-1.95.76-2.88.05-.17.21-.24.35-.18.15.04.24.22.21.37-.14.5-.28,1.01-.42,1.52.16-.2.31-.42.48-.61.74-.77,1.63-1.3,2.59-1.27.16,0,.28.15.28.31s-.12.29-.28.29c-.8-.04-1.56.42-2.18,1.08-.8.86-1.38,2.06-1.66,3.12v-.02.02l-.22-.07.22.07c-.05.15-.21.24-.36.18-.14-.06-.22-.22-.17-.37Z"/>
    <path class="cls-2" d="m116.92,11.09c-.55.7-1.14,1.27-1.59,1.36-.05,0-.09.02-.14.02-.16,0-.31-.06-.42-.17-.1-.11-.17-.24-.21-.42-.02-.06-.02-.13-.02-.18-.05-1.89.81-3.34,1.66-4.02.26-.18.52-.33.76-.39.26-.07.52-.07.73.06.17.07.31.22.4.4.42-1.49.92-3.14,1.42-4.5.64-1.71,1.33-3,1.99-3.12.09-.02.16,0,.24.02.28.11.33.46.22.97-.07.37-.22.86-.43,1.41-.64,1.69-1.78,4.08-2.61,5.6-.28.83-1.12,3.44-.41,3.44,1.12,0,3.67-3.12,3.67-3.14.1-.13.28-.13.4-.02.12.11.14.29.03.42,0,.02-2.72,3.34-4.08,3.34-.9,0-.85-1.27-.62-2.46-.29.46-.64.94-.99,1.38Zm-.43-.4c.48-.61.97-1.34,1.37-1.97v-.04c-.12-.04-.19-.15-.19-.28,0-.29-.09-.48-.19-.53-.09-.06-.21-.06-.35-.02-.17.06-.36.17-.57.31-.74.59-1.49,1.86-1.44,3.53v.09s.02.07.02.07h.09c.31-.09.78-.57,1.26-1.18Zm2.47-3.86c.73-1.43,1.54-3.2,2.04-4.54.16-.4.28-.77.36-1.07.02-.07.26-.83-.22-.11-.02.04-.03.07-.07.11-.31.5-.68,1.3-1.02,2.26-.38,1.01-.76,2.19-1.09,3.34Z"/>
    <path class="cls-2" d="m122.72,11.07c-.07-.22-.14-.4-.21-.59-.19-.46-.4-.92-.36-1.75.09-1.89,1.33-2.09,1.33-2.09.15-.02.31.09.33.26.03.17-.07.31-.22.35,0,0-.81.11-.86,1.53-.02.7.14,1.08.31,1.49.05.13.1.28.16.42.92-.68,2.08-1.47,3.55-2.32.14-.09.31-.02.38.11.09.15.03.33-.1.42-1.56.9-2.75,1.71-3.67,2.41.05.33.07.72,0,1.21-.14,1.27-.85,2.06-1.51,2.37-.47.22-.93.2-1.23-.04-.29-.28-.4-.74-.07-1.4.28-.59.93-1.4,2.18-2.39Zm-1.68,2.66c-.17.37-.17.57-.09.64.12.11.36.09.66-.04.5-.24,1.05-.88,1.18-1.91.03-.26.03-.5.03-.68-1,.83-1.54,1.49-1.78,1.98Z"/>
  </g>
  <g>
    <path class="cls-2" d="m62.94,17.39c.71-1.07,3.05-3.33,5.36-5.26.07-.06.12-.09.19-.15-1.09,4.19-2.74,6.6-4.14,7.68-.59.46-1.12.66-1.54.66-.33-.02-.57-.18-.64-.5-.16-.51.05-1.36.76-2.44Zm-.12,3.55c.52,0,1.18-.24,1.89-.79,1.56-1.2,3.41-3.93,4.53-8.77,1.68-1.34,3.2-2.39,3.86-2.48.16-.02.26-.17.22-.33-.02-.17-.17-.28-.31-.26-.67.09-2.04.97-3.58,2.17.17-.85.33-1.73.45-2.66.02-.17-.1-.33-.24-.35-.16-.04-.31.07-.33.24-.16,1.21-.35,2.32-.57,3.33-.28.2-.54.42-.8.62-2.35,1.97-4.74,4.26-5.45,5.37-.83,1.27-1.04,2.3-.87,2.96.16.59.59.94,1.19.96Zm6.96-14.56c.14.05.31-.02.36-.18.09-.29.26-.5.26-.5.12-.11.1-.29,0-.42-.12-.11-.29-.11-.4,0,0,0-.28.28-.42.72-.03.15.03.33.19.39Z"/>
    <path class="cls-2" d="m62.82,21.05h0c-.65-.02-1.13-.4-1.3-1.04-.21-.78.11-1.87.88-3.04.67-1.04,2.92-3.26,5.47-5.39.09-.07.19-.15.28-.22.16-.13.32-.26.49-.38.22-1,.41-2.07.56-3.28.01-.11.07-.21.16-.27.09-.06.2-.08.3-.06.19.03.35.24.32.47-.1.77-.23,1.56-.39,2.39,1.18-.9,2.64-1.91,3.4-2.01.1-.01.2.02.29.08.08.07.14.16.15.27.02.1,0,.21-.06.3-.06.08-.15.14-.26.15-.57.08-1.91.94-3.78,2.43-1.36,5.82-3.64,8.08-4.57,8.79-.67.52-1.37.81-1.95.81Zm6.76-13.48s-.07.01-.09.03c-.04.03-.06.07-.07.12-.16,1.23-.35,2.32-.57,3.34v.04s-.04.02-.04.02c-.18.13-.35.27-.51.4-.09.08-.19.15-.28.22-2.54,2.12-4.77,4.31-5.43,5.34-.73,1.11-1.04,2.16-.85,2.87.15.55.53.86,1.09.88.54,0,1.18-.27,1.82-.77.9-.69,3.15-2.93,4.5-8.71v-.04s.04-.02.04-.02c1.35-1.08,3.13-2.39,3.91-2.5.04,0,.08-.03.11-.06.03-.04.04-.09.03-.14,0-.08-.05-.12-.07-.13-.04-.03-.08-.04-.12-.04-.59.08-1.85.84-3.53,2.15l-.23.18.06-.29c.19-.93.34-1.8.45-2.66.01-.11-.07-.22-.15-.23-.02,0-.03,0-.05,0Zm-6.76,12.87c-.4-.02-.67-.23-.75-.58-.18-.59.1-1.49.78-2.53h0c.69-1.04,2.95-3.26,5.39-5.28.04-.03.07-.06.11-.08l.34-.26-.08.31c-1.28,4.91-3.16,6.96-4.17,7.74-.56.44-1.13.68-1.61.68Zm.21-2.99c-.63.97-.91,1.83-.75,2.35.07.33.33.41.54.42.42,0,.94-.23,1.47-.64,1.63-1.26,3.09-3.92,4.01-7.31-2.39,1.99-4.6,4.16-5.28,5.18Zm6.84-10.94s-.09,0-.13-.02c-.22-.08-.3-.33-.26-.51.15-.47.43-.76.45-.77.14-.15.38-.15.55,0,.16.19.16.44,0,.58h0s-.15.19-.23.45c-.03.11-.11.19-.21.24-.05.02-.11.04-.17.04Zm.33-1.2s-.09.02-.12.05c0,0-.26.27-.39.68-.02.09.02.22.12.25h0s.09.02.13,0c.04-.02.08-.06.09-.11.09-.31.27-.52.28-.53.09-.08.06-.2,0-.28-.03-.03-.08-.04-.12-.04Z"/>
  </g>
  <g>
    <path class="cls-2" d="m72.72,9.64c.35-.51.74-1.01,1.12-1.36.29-.28.55-.44.74-.46,0,.04,0,.09-.02.15-.02.13-.07.28-.14.42-.28.51-.85,1.08-1.75,1.32.02-.02.03-.04.03-.07Zm-.38.77c1.37-.2,2.22-1.01,2.58-1.71.12-.22.19-.42.21-.61.03-.2.02-.4-.03-.55-.1-.2-.26-.33-.5-.33-.33,0-.73.24-1.12.61-.42.39-.85.92-1.21,1.47-.67,1.07-.9,1.82-.81,2.32.07.4.33.64.71.75.31.07.73.06,1.18-.07,1.49-.37,3.67-1.77,4.79-3.4.1-.13.07-.31-.05-.42-.14-.09-.31-.07-.4.05-1.07,1.53-3.1,2.83-4.5,3.18-.36.11-.67.13-.9.07-.16-.04-.24-.13-.28-.26v-.02c-.05-.22.03-.59.29-1.08h.05Z"/>
    <path class="cls-2" d="m72.55,12.51c-.15,0-.3-.02-.43-.05-.45-.13-.72-.42-.79-.84-.1-.56.18-1.37.83-2.39.38-.58.82-1.11,1.23-1.49.82-.75,1.49-.84,1.8-.25.07.19.08.41.04.62-.02.19-.09.41-.22.64-.18.35-.91,1.51-2.66,1.76h0c-.21.41-.3.76-.25.95v.03c.03.09.09.14.2.17.21.05.51.03.84-.07,1.33-.33,3.36-1.6,4.44-3.14.12-.17.35-.21.55-.08.18.16.21.41.08.58-1.16,1.69-3.38,3.07-4.85,3.44-.28.08-.55.12-.8.12Zm2.04-5.19c-.28,0-.64.2-1.05.58-.4.37-.82.88-1.2,1.45-.61.96-.88,1.74-.8,2.24.06.34.26.56.63.67.3.07.7.05,1.12-.07,1.44-.36,3.6-1.71,4.73-3.36.08-.1.04-.21-.04-.28-.08-.05-.18-.04-.24.03-1.11,1.58-3.19,2.88-4.56,3.22-.37.11-.7.14-.95.07-.19-.04-.31-.16-.36-.34v-.03c-.06-.25.04-.66.3-1.15l.03-.06h.11c1.64-.25,2.32-1.32,2.49-1.65.11-.21.18-.4.2-.57.03-.18.02-.37-.03-.5-.09-.17-.22-.26-.4-.26Zm-2.22,2.59l.24-.27v-.03l.03-.03c.38-.56.78-1.05,1.14-1.38.32-.3.6-.47.81-.49h.12s0,.11,0,.11c0,.04,0,.11-.02.18-.01.11-.06.27-.14.44-.17.32-.69,1.08-1.82,1.38l-.35.09Zm2.1-1.94c-.12.05-.29.16-.54.39-.31.29-.66.69-.99,1.16.86-.32,1.26-.92,1.41-1.18.07-.14.11-.27.12-.37Z"/>
  </g>
  <g>
    <path class="cls-2" d="m87.5.81s-.05.09-.07.15c-.07.35-.22.81-.42,1.32-.61,1.6-1.66,3.82-2.46,5.31.88-2.83,2.41-6.16,2.94-6.78Zm-3.41,8.56c.07-.02.12-.05.17-.13.71-1.05,2.44-4.48,3.27-6.73.23-.55.38-1.05.45-1.42.1-.51.03-.86-.24-.97-.07-.02-.16-.04-.24-.02-.09.02-.16.07-.19.15-.67.77-2.39,4.25-3.31,7.19-.28.85-.47,1.67-.57,2.35-.09.73-.07,1.34.12,1.76.17.37.48.59.95.57.61-.04,1.25-.4,1.87-.92.88-.74,1.7-1.78,2.15-2.39.1-.15.07-.33-.05-.44-.12-.09-.29-.07-.4.06-.43.61-1.23,1.6-2.06,2.3-.54.44-1.07.77-1.56.79-.19,0-.33-.07-.4-.24-.14-.28-.14-.77-.05-1.38.02-.17.05-.35.09-.53Z"/>
    <path class="cls-2" d="m84.45,12.25c-.46,0-.8-.22-.99-.63-.18-.41-.23-1.01-.13-1.82.11-.74.32-1.58.58-2.37.94-3.02,2.66-6.44,3.32-7.21.05-.1.15-.17.26-.19.11-.02.21,0,.29.02.24.09.47.36.32,1.1-.07.38-.23.89-.46,1.44-.86,2.32-2.6,5.74-3.28,6.75-.05.07-.1.12-.17.15-.03.16-.06.32-.07.46-.11.8-.04,1.16.04,1.32.03.08.1.18.3.18.39-.02.88-.27,1.49-.77.96-.81,1.81-1.95,2.04-2.28.14-.18.38-.21.55-.08.18.16.21.41.08.59-.79,1.07-1.5,1.86-2.17,2.41-.73.6-1.36.91-1.93.94-.02,0-.04,0-.06,0ZM87.58.22s-.04,0-.05,0c-.05.01-.09.04-.12.09l-.02.02c-.64.74-2.34,4.14-3.28,7.15-.25.78-.46,1.61-.57,2.34-.09.77-.05,1.33.11,1.7.17.35.45.52.85.51.52-.03,1.12-.32,1.81-.89.65-.54,1.35-1.32,2.13-2.37.07-.1.04-.23-.04-.3-.07-.05-.18-.04-.24.04-.23.33-1.09,1.48-2.07,2.31-.66.54-1.17.8-1.62.81-.31,0-.44-.17-.5-.31-.14-.27-.16-.74-.06-1.44.02-.16.05-.34.08-.51v-.07s.08-.04.08-.04c.04-.01.07-.03.11-.09.67-1,2.4-4.4,3.26-6.7.22-.53.38-1.03.45-1.4.07-.33.09-.75-.18-.85-.04,0-.08-.02-.12-.02Zm-2.92,7.43l-.2-.08c.84-2.71,2.37-6.11,2.95-6.81v-.02s.18.14.18.14c0,0,0,0,0,0-.02.02-.03.06-.04.1-.08.38-.26.91-.42,1.33-.64,1.69-1.73,3.94-2.46,5.33Zm2.5-6.08c-.54,1-1.36,2.83-2.04,4.7.63-1.27,1.33-2.8,1.8-4.02.08-.21.16-.45.24-.68Z"/>
  </g>
  <g>
    <path class="cls-2" d="m87.98,9.64c.35-.51.74-1.01,1.12-1.36.29-.28.55-.44.74-.46,0,.04,0,.09-.02.15-.02.13-.07.28-.14.42-.28.51-.85,1.08-1.75,1.32.02-.02.03-.04.03-.07Zm-.38.77c1.37-.2,2.22-1.01,2.58-1.71.12-.22.19-.42.21-.61.03-.2.02-.4-.03-.55-.1-.2-.26-.33-.5-.33-.33,0-.73.24-1.12.61-.42.39-.85.92-1.21,1.47-.67,1.07-.9,1.82-.81,2.32.07.4.33.64.71.75.31.07.73.06,1.18-.07,1.49-.37,3.67-1.77,4.79-3.4.1-.13.07-.31-.05-.42-.14-.09-.31-.07-.4.05-1.07,1.53-3.1,2.83-4.5,3.18-.36.11-.67.13-.9.07-.16-.04-.24-.13-.28-.26v-.02c-.05-.22.03-.59.29-1.08h.05Z"/>
    <path class="cls-2" d="m87.82,12.51c-.15,0-.3-.02-.43-.05-.45-.13-.72-.42-.79-.84-.1-.56.18-1.37.83-2.39.38-.58.82-1.11,1.23-1.49.82-.75,1.49-.83,1.8-.25.07.19.08.41.04.62-.02.19-.09.41-.22.64-.18.35-.91,1.51-2.66,1.76h0c-.21.41-.3.76-.25.95v.03c.03.09.09.14.2.17.21.05.51.03.84-.07,1.33-.33,3.36-1.6,4.44-3.14.12-.17.35-.21.55-.08.18.16.21.41.08.58-1.16,1.69-3.38,3.07-4.85,3.44-.28.08-.55.12-.8.12Zm2.04-5.19c-.28,0-.64.2-1.05.58-.4.37-.82.89-1.19,1.45-.61.96-.89,1.73-.8,2.24.06.34.27.56.63.67.3.07.7.05,1.12-.07,1.44-.36,3.6-1.71,4.73-3.36.08-.1.04-.21-.04-.28-.08-.05-.18-.04-.24.03-1.11,1.58-3.19,2.88-4.56,3.22-.37.11-.7.14-.95.07-.19-.04-.31-.16-.36-.34v-.03c-.06-.25.04-.66.3-1.15l.03-.06h.11c1.64-.25,2.32-1.32,2.49-1.65.12-.21.18-.4.2-.57.03-.18.02-.37-.03-.51-.09-.17-.22-.26-.4-.26Zm-2.22,2.59l.24-.27v-.03l.03-.03c.38-.56.78-1.05,1.14-1.38.32-.3.6-.47.81-.49h.12s0,.11,0,.11c0,.04,0,.11-.02.18-.01.11-.06.26-.14.44-.17.32-.69,1.08-1.82,1.38l-.35.09Zm2.1-1.94c-.12.05-.29.16-.54.39-.31.29-.66.69-.99,1.16.86-.32,1.26-.92,1.41-1.18.07-.14.11-.27.12-.37Z"/>
  </g>
  <g>
    <path class="cls-2" d="m100.1,11.86h-.14c.1-.22.4-.55.93-.99.26-.2.55-.4.88-.61-.4.81-1,1.51-1.68,1.6Zm-2.42,4.93c-.36,1.47-.87,2.56-1.26,3.01-.09.11-.14.17-.16.17-.05-.02.07-.02.05-.07-.07-.42.07-1.38.54-3.01.42-1.4.99-3.03,1.63-4.54-.21,1.49-.47,3.09-.8,4.45Zm5.12-8.07c.03-.39,0-.72-.1-.97-.16-.4-.45-.64-.9-.64-.74,0-1.54.79-2.3,1.98.09-.68.17-1.2.26-1.47.04-.15-.05-.33-.21-.37-.14-.06-.31.04-.35.18-.12.44-.26,1.47-.43,2.76,0,.07-.02.15-.03.22-.97,1.91-1.85,4.32-2.42,6.27-.5,1.75-.64,2.79-.55,3.31.07.37.24.57.49.57.19.02.4-.11.6-.33.43-.51,1-1.71,1.39-3.27.47-1.97.8-4.41,1.05-6.34.09-.17.17-.33.26-.5.8-1.41,1.61-2.41,2.27-2.41.17,0,.29.09.36.26s.09.4.07.68c-.02.22-.07.48-.14.74-.61.31-1.12.66-1.56,1.01-.61.5-.95.88-1.09,1.18-.07.17-.1.31-.07.44.02.18.12.29.26.39.14.06.33.09.54.06,1.07-.15,1.97-1.4,2.39-2.61v-.04c.31-.15.62-.29.95-.4.83-.31,1.75-.51,2.67-.5.16,0,.28-.13.28-.29s-.12-.29-.29-.31c-.99-.02-1.95.2-2.85.53-.19.07-.38.15-.55.22.02-.11.03-.22.03-.33Z"/>
    <path class="cls-2" d="m96.28,20.66s-.03,0-.05,0h0c-.29,0-.5-.24-.58-.66-.1-.59.09-1.75.56-3.36.65-2.21,1.55-4.56,2.43-6.29,0-.06.02-.12.02-.17.17-1.26.31-2.33.44-2.79.02-.1.09-.19.19-.24.1-.05.21-.06.3-.02.08.02.16.08.22.17.06.1.08.22.06.33-.06.2-.13.53-.19,1,.76-1.09,1.48-1.64,2.13-1.64.47,0,.82.25,1,.71.11.27.15.62.11,1.02,0,.05,0,.1,0,.15.11-.04.22-.09.33-.13l.06-.02c1.02-.38,1.99-.56,2.9-.54.24.02.4.2.4.42s-.17.4-.38.4c-.04,0-.08,0-.12,0-.8,0-1.64.17-2.51.49-.31.1-.6.24-.89.37h0c-.42,1.22-1.35,2.53-2.48,2.68-.26.05-.48-.02-.59-.06-.15-.1-.3-.23-.33-.48-.04-.12-.01-.28.08-.49.15-.33.53-.73,1.12-1.22.46-.38.98-.71,1.53-1,.07-.26.11-.48.12-.67.02-.27,0-.49-.06-.63-.05-.13-.14-.19-.26-.19-.55,0-1.32.83-2.17,2.35-.05.1-.11.21-.17.32l-.08.16c-.25,1.84-.58,4.35-1.05,6.33-.42,1.71-1.02,2.85-1.41,3.32-.23.25-.45.37-.65.37Zm3.18-13.32s-.05,0-.07.02c-.04.02-.07.06-.08.1-.12.45-.27,1.51-.43,2.75,0,.06-.02.14-.03.21v.05c-.88,1.72-1.79,4.05-2.43,6.25-.57,1.99-.62,2.87-.55,3.26.03.18.13.48.38.48.15.01.33-.09.53-.3.37-.44.95-1.55,1.36-3.22.47-1.97.81-4.49,1.05-6.33v-.04s.1-.17.1-.17c.06-.11.11-.22.17-.32.92-1.64,1.72-2.47,2.36-2.47.21,0,.37.11.46.32.07.17.1.42.08.73-.02.21-.06.46-.14.76v.05s-.05.02-.05.02c-.56.29-1.08.62-1.54,1-.56.46-.92.85-1.06,1.14-.07.16-.09.28-.06.37.01.14.08.23.21.32.07.02.24.08.46.04,1.04-.14,1.9-1.37,2.3-2.52v-.09l.06-.03c.31-.15.63-.29.96-.41.93-.35,1.83-.53,2.7-.5.09,0,.17-.08.17-.19s-.08-.19-.2-.21c-.04,0-.07,0-.11,0-.83,0-1.74.18-2.7.53l-.05.02c-.17.07-.34.13-.49.2l-.18.08.03-.22c.01-.1.03-.19.03-.28h0c.03-.38,0-.69-.1-.93-.15-.38-.42-.58-.8-.58-.64,0-1.4.67-2.21,1.93l-.26.41.06-.48c.09-.73.18-1.22.26-1.49.01-.04,0-.11-.03-.15-.02-.03-.05-.06-.1-.08-.02,0-.04-.01-.06-.01Zm-3.2,12.73h-.04s-.07-.03-.07-.03l-.02-.16.06-.03c-.06-.53.13-1.56.54-3.01.46-1.53,1.04-3.15,1.63-4.55l.32-.75-.11.81c-.26,1.83-.52,3.29-.8,4.46h0c-.34,1.36-.83,2.53-1.29,3.06-.13.16-.17.2-.24.2Zm-.05-.17s0,.02,0,.02c0,0,0-.02,0-.02Zm2.04-6.71c-.47,1.19-.92,2.48-1.29,3.72-.45,1.56-.55,2.34-.55,2.73.41-.54.86-1.65,1.17-2.88.23-.97.46-2.14.67-3.57Zm1.87-1.22h-.32l.07-.15c.12-.26.44-.6.96-1.03.26-.2.56-.41.89-.62l.32-.2-.17.34c-.48.97-1.12,1.57-1.76,1.66h0Zm1.37-1.39c-.19.13-.36.25-.52.37-.45.37-.68.62-.8.79.46-.1.93-.52,1.32-1.16Z"/>
  </g>
  <g>
    <path class="cls-2" d="m105.77,9.64c.35-.51.74-1.01,1.12-1.36.29-.28.55-.44.74-.46,0,.04,0,.09-.02.15-.02.13-.07.28-.14.42-.28.51-.85,1.08-1.75,1.32.02-.02.03-.04.03-.07Zm-.38.77c1.37-.2,2.22-1.01,2.58-1.71.12-.22.19-.42.21-.61.03-.2.02-.4-.03-.55-.1-.2-.26-.33-.5-.33-.33,0-.73.24-1.12.61-.42.39-.85.92-1.21,1.47-.67,1.07-.9,1.82-.81,2.32.07.4.33.64.71.75.31.07.73.06,1.18-.07,1.49-.37,3.67-1.77,4.79-3.4.1-.13.07-.31-.05-.42-.14-.09-.31-.07-.4.05-1.07,1.53-3.1,2.83-4.5,3.18-.36.11-.67.13-.9.07-.16-.04-.24-.13-.28-.26v-.02c-.05-.22.03-.59.29-1.08h.05Z"/>
    <path class="cls-2" d="m105.61,12.51c-.15,0-.3-.02-.43-.05-.45-.13-.72-.42-.79-.84-.1-.56.18-1.37.83-2.39.38-.58.82-1.11,1.23-1.49.82-.75,1.5-.83,1.8-.25.07.19.08.41.04.62-.02.19-.09.41-.22.64-.18.35-.91,1.51-2.66,1.76h0c-.21.41-.3.76-.25.95v.03c.03.09.09.14.2.17.21.05.51.03.84-.07,1.33-.33,3.36-1.6,4.44-3.14.12-.17.35-.21.55-.08.18.16.21.41.08.58-1.16,1.69-3.38,3.07-4.85,3.44-.28.08-.55.12-.8.12Zm2.04-5.19c-.28,0-.64.2-1.05.58-.4.37-.82.89-1.19,1.45-.61.96-.89,1.74-.8,2.24.06.34.27.56.63.67.3.07.7.05,1.12-.07,1.44-.36,3.6-1.71,4.73-3.36.08-.1.04-.21-.04-.28-.08-.05-.18-.04-.24.03-1.11,1.58-3.19,2.88-4.56,3.22-.37.11-.7.14-.95.07-.19-.04-.31-.16-.36-.34v-.03c-.06-.25.04-.66.3-1.15l.03-.06h.11c1.64-.25,2.32-1.32,2.49-1.65.12-.21.18-.4.2-.57.03-.18.02-.37-.03-.51-.09-.17-.22-.26-.4-.26Zm-2.22,2.59l.24-.27v-.03l.03-.03c.38-.56.78-1.05,1.14-1.38.32-.3.6-.47.81-.49h.12s0,.11,0,.11c0,.04,0,.11-.02.18-.01.11-.06.26-.14.44-.17.32-.69,1.08-1.82,1.38l-.35.09Zm2.1-1.94c-.12.05-.29.16-.54.39-.31.28-.66.69-.99,1.16.86-.32,1.26-.92,1.41-1.18.07-.14.11-.27.12-.37Z"/>
  </g>
  <g>
    <path class="cls-2" d="m110,12.54c.16.05.31-.04.36-.18l-.22-.07.22.07v-.02.02c.28-1.07.87-2.26,1.66-3.12.62-.66,1.38-1.12,2.18-1.08.16,0,.28-.13.28-.29s-.12-.31-.28-.31c-.97-.04-1.85.5-2.6,1.27-.17.18-.33.4-.48.61.14-.51.28-1.03.41-1.53.03-.15-.05-.33-.21-.37-.14-.06-.29.02-.35.18-.26.94-.54,2.02-.76,2.89-.17.7-.31,1.27-.4,1.54,0,0,0,.02-.02.04h.02c-.05.15.03.31.17.37Z"/>
    <path class="cls-2" d="m110.25,13.21v-.58c-.09.04-.19.05-.29.01h0c-.15-.06-.25-.21-.25-.36h-.13l.15-.18c.08-.26.21-.76.36-1.4l.15-.6c.2-.77.43-1.65.64-2.42.04-.11.11-.2.21-.25.09-.04.19-.05.29,0,.21.05.32.3.27.49-.09.33-.18.67-.27,1,.05-.06.1-.12.16-.18.84-.87,1.7-1.3,2.58-1.3.03,0,.07,0,.1,0,.21,0,.38.19.38.42s-.17.4-.39.4c-.89-.05-1.63.55-2.1,1.05-.71.77-1.31,1.88-1.61,2.98h0s-.03.09-.03.09v.11h-.03s-.19.72-.19.72Zm-.22-.77c.06.02.11,0,.16-.02l-.09-.03.07-.21.12.04c.31-1.13.93-2.27,1.66-3.06.49-.52,1.25-1.12,2.17-1.12.03,0,.06,0,.1,0,.09,0,.16-.08.16-.19s-.08-.2-.17-.2c-.85-.05-1.7.38-2.52,1.23-.13.14-.25.3-.37.45l-.44.57.14-.52c.14-.51.28-1.03.42-1.53.02-.08-.03-.21-.13-.23-.05-.02-.09-.02-.13,0-.04.02-.07.06-.09.11-.21.77-.44,1.64-.64,2.41l-.15.6c-.14.57-.25,1.03-.33,1.31l-.03.14c-.03.09.02.19.11.23Zm-.31-.34s0,0,0,0h0Z"/>
  </g>
  <g>
    <path class="cls-2" d="m115.22,11.86h-.09s-.02-.04-.02-.07v-.09c-.05-1.67.69-2.94,1.44-3.53.21-.15.4-.26.57-.31.14-.04.26-.04.35.02.1.06.19.24.19.53,0,.13.07.24.19.28v.04c-.4.62-.88,1.36-1.37,1.97s-.95,1.08-1.26,1.18Zm4.83-8.38c.35-.96.71-1.76,1.02-2.26.03-.04.05-.07.07-.11.48-.72.24.04.22.11-.09.29-.21.66-.36,1.07-.5,1.34-1.31,3.11-2.04,4.54.33-1.16.71-2.33,1.09-3.35Zm-2.15,6.23c-.22,1.2-.28,2.46.62,2.46,1.37,0,4.08-3.33,4.08-3.35.1-.13.09-.31-.03-.42-.12-.11-.29-.11-.4.02,0,.02-2.54,3.14-3.67,3.14-.71,0,.14-2.61.42-3.44.83-1.52,1.97-3.91,2.61-5.61.21-.55.36-1.05.43-1.41.1-.51.05-.86-.22-.97-.09-.02-.16-.04-.24-.02-.66.13-1.35,1.41-1.99,3.12-.5,1.36-1,3.01-1.42,4.5-.09-.18-.22-.33-.4-.4-.21-.13-.47-.13-.73-.06-.24.06-.5.2-.76.39-.85.68-1.71,2.13-1.66,4.02,0,.06,0,.13.02.18.03.18.1.31.21.42.1.11.26.17.42.17.05,0,.09-.02.14-.02.45-.09,1.04-.66,1.59-1.36.35-.44.69-.92.99-1.38Z"/>
    <path class="cls-2" d="m115.19,12.58c-.2,0-.38-.07-.49-.2-.12-.13-.2-.28-.24-.48-.02-.06-.02-.14-.02-.2-.05-1.98.88-3.45,1.7-4.11.31-.22.58-.36.8-.41.31-.09.59-.07.81.07.11.05.21.13.3.23.34-1.21.84-2.87,1.36-4.28.76-2.02,1.43-3.07,2.07-3.19.1-.02.18,0,.26.01h.04c.31.14.41.5.29,1.11-.07.36-.22.85-.44,1.43-.66,1.75-1.82,4.15-2.62,5.62-.84,2.51-.7,3.1-.61,3.23.03.03.05.05.1.05.98,0,3.3-2.73,3.56-3.07h0s.02-.03.02-.03c.07-.08.16-.13.26-.14.1,0,.21.03.3.11.17.15.19.4.05.57h0c-.17.26-1.04,1.21-1.53,1.69-1.15,1.13-2.03,1.7-2.63,1.7-.25,0-.45-.09-.6-.27-.27-.32-.34-.92-.21-1.83-.22.32-.46.64-.71.97-.46.58-1.12,1.29-1.66,1.4-.04,0-.05,0-.07,0-.02,0-.05.01-.09.01Zm2.11-5.23c-.11,0-.21.02-.3.04-.21.05-.44.17-.73.37-.78.62-1.67,2.03-1.62,3.93,0,.05,0,.12.01.16.03.17.09.28.18.38.08.08.2.13.34.13.01,0,.03,0,.05,0,.02,0,.05-.01.09-.01.35-.07.89-.54,1.51-1.32.37-.47.7-.94.98-1.37l.3-.47-.1.55c-.21,1.11-.18,1.83.08,2.15.1.13.25.19.43.19,1.2,0,3.69-2.89,3.98-3.27h0s.02-.03.02-.03c.07-.08.06-.2-.02-.27-.04-.04-.09-.06-.14-.05-.04,0-.08.02-.11.06h0c-.28.49-2.7,3.18-3.75,3.18-.11,0-.21-.05-.27-.14-.26-.36-.07-1.49.58-3.44.8-1.48,1.96-3.87,2.61-5.61.21-.57.36-1.05.43-1.4.1-.49.04-.77-.16-.85-.08-.02-.12-.02-.18-.01-.38.07-1.02.66-1.91,3.06-.55,1.49-1.08,3.27-1.42,4.49l-.08.28-.12-.26c-.08-.17-.2-.29-.34-.35-.12-.07-.24-.1-.36-.1Zm-2.06,4.62h-.15l-.05-.06s-.03-.06-.03-.12v-.09c-.06-1.76.76-3.05,1.48-3.61.25-.17.44-.28.61-.33.18-.05.33-.04.44.03.15.08.24.31.24.62,0,.09.04.15.11.17l.08.02v.15l-.02.03c-.38.59-.88,1.35-1.37,1.98-.57.72-1.02,1.12-1.32,1.21h-.01Zm2.06-4.03s-.1.01-.14.02c-.14.05-.32.14-.54.3-.67.53-1.44,1.75-1.39,3.44v.05c.19-.07.54-.33,1.17-1.13.47-.59.94-1.31,1.31-1.88-.1-.07-.16-.19-.16-.33,0-.29-.09-.41-.13-.44-.04-.02-.08-.03-.12-.03Zm1.76-1.06l-.2-.08c.34-1.2.72-2.35,1.09-3.35.35-.97.72-1.78,1.03-2.28.04-.04.05-.06.06-.1.2-.3.31-.41.43-.36.13.06.08.25.01.51v.03c-.08.24-.2.62-.38,1.08-.46,1.23-1.23,2.93-2.05,4.55Zm2.23-5.79s-.04.05-.06.09c-.01.03-.04.08-.08.12-.29.47-.65,1.26-1,2.22h0c-.24.65-.49,1.36-.72,2.11.59-1.23,1.13-2.46,1.47-3.38.17-.45.29-.82.36-1.06v-.03s.02-.05.03-.07Z"/>
  </g>
  <g>
    <path class="cls-2" d="m122.82,11.75c0,.18,0,.42-.03.68-.12,1.03-.68,1.67-1.18,1.91-.3.13-.54.15-.66.04-.09-.07-.09-.28.09-.64.24-.5.78-1.16,1.78-1.98Zm-2.28,1.71c-.33.66-.22,1.12.07,1.4.29.24.76.26,1.23.04.66-.31,1.37-1.1,1.51-2.37.07-.5.05-.88,0-1.21.92-.7,2.11-1.51,3.67-2.41.14-.09.19-.28.1-.42-.07-.13-.24-.2-.38-.11-1.47.85-2.63,1.64-3.55,2.32-.05-.15-.1-.29-.16-.42-.17-.4-.33-.79-.31-1.49.05-1.42.87-1.53.87-1.53.16-.04.26-.18.22-.35-.02-.17-.17-.28-.33-.26,0,0-1.25.2-1.33,2.1-.03.83.17,1.29.36,1.75.07.18.14.37.21.59-1.25.99-1.9,1.8-2.18,2.39Z"/>
    <path class="cls-2" d="m121.19,15.16c-.25,0-.48-.07-.66-.22-.22-.21-.52-.67-.1-1.53.23-.48.78-1.28,2.15-2.38-.06-.18-.11-.33-.17-.48l-.04-.09c-.19-.45-.38-.92-.35-1.73.09-1.96,1.41-2.2,1.42-2.2.11-.01.22.02.31.09.08.07.13.16.15.27.04.21-.09.41-.31.47-.04,0-.74.13-.78,1.42-.02.7.15,1.08.3,1.44.04.09.07.19.11.29,1.08-.8,2.21-1.53,3.44-2.24.08-.05.18-.07.28-.05.11.03.2.1.25.2.11.19.05.44-.14.56-1.37.79-2.58,1.59-3.61,2.36.05.38.05.75,0,1.18-.15,1.33-.9,2.14-1.57,2.45-.23.11-.47.16-.69.16Zm2.32-8.41s-.01,0-.02,0c-.04,0-1.16.22-1.24,1.99-.03.77.15,1.21.33,1.64l.04.1c.07.18.13.35.2.56l.02.07-.06.05c-1.38,1.1-1.93,1.89-2.15,2.35h0c-.27.55-.25.99.05,1.27.26.21.68.22,1.11.02.61-.29,1.31-1.04,1.44-2.29.06-.43.06-.81,0-1.19v-.06s.04-.04.04-.04c1.04-.8,2.28-1.61,3.68-2.42.09-.06.12-.18.07-.27-.03-.05-.07-.08-.12-.09-.04-.01-.08,0-.11.02-1.27.73-2.43,1.49-3.54,2.31l-.12.09-.05-.14c-.05-.15-.1-.29-.16-.42-.16-.37-.34-.79-.32-1.53.05-1.49.92-1.62.96-1.63.09-.02.16-.12.13-.22,0-.06-.03-.1-.07-.13-.03-.03-.08-.04-.12-.04Zm-2.33,7.81c-.12,0-.23-.03-.3-.1-.14-.12-.12-.38.06-.77.29-.59.9-1.27,1.81-2.02l.18-.15v.23c0,.18,0,.43-.04.69-.13,1.1-.72,1.75-1.24,1.99-.18.08-.34.12-.48.12Zm1.53-2.57c-.98.83-1.4,1.44-1.58,1.8-.17.36-.14.49-.11.51.08.08.29.06.54-.05.46-.22.99-.82,1.11-1.83.02-.15.03-.3.03-.43Z"/>
  </g>
</svg>