<?xml version="1.0" encoding="UTF-8"?>
<svg id="Calque_1" xmlns="http://www.w3.org/2000/svg" version="1.1" viewBox="0 0 140 29.8">
  <!-- Generator: Adobe Illustrator 29.0.1, SVG Export Plug-In . SVG Version: 2.1.0 Build 192)  -->
  <defs>
    <style>
      .st0, .st1 {
        fill: #1e1f1d;
      }

      .st1 {
        stroke: #1e1f1d;
        stroke-miterlimit: 10;
        stroke-width: .2px;
      }

      .st2 {
        fill: #c7a62d;
      }
    </style>
  </defs>
  <path d="M64.5,21.2v-1.4c0,.1,0,.2-.2.2-.6.7-1.4,1-2.3,1.2-.8,0-1.5,0-2.3-.2-1-.3-1.6-1.2-2-2.2-.2-1-.3-2-.3-3v-6.4h0c1.6-.2,3.1-.3,4.7-.5v7.2c0,.8.9,1.2,1.6.6.3-.2.5-.6.5-.9v-6.4h0c1.6-.2,3.1-.3,4.7-.5v11.9c-1.5.1-2.9.2-4.4.3"/>
  <path d="M28.7,10.4c-.9,1.2-1.7,2.3-2.7,3.5-.1-.1-.2-.1-.3-.2-.8-.6-2.1-.5-2.8.2-.6.6-.7,1.2-.6,2,.2.7.7,1.2,1.4,1.3.8.2,1.5,0,2.2-.5.8,1.2,1.7,2.4,2.7,3.7-.6.2-1,.5-1.6.7-1,.3-2.1.6-3.2.6-1.6-.1-3-.5-4.3-1.5-1.3-1-2-2.3-2.2-3.9-.2-1.3,0-2.5.6-3.8.8-1.5,2.1-2.5,3.7-3,2.1-.6,4.2-.5,6,.6.5,0,.8.2,1.2.5"/>
  <path d="M55.6,13.9c-.2-1.5-1-2.8-2.2-3.7-1.2-.9-2.5-1.3-3.9-1.3s-3.3.6-4.6,1.7c-.7.6-1.3,1.4-1.6,2.3-.3,1.2-.3,2.4,0,3.6.3,1.7,1.4,3.1,3,3.9,1.7.9,3.6,1,5.5.5,1.7-.6,3-1.6,3.7-3.3.3-1,.5-2.4.2-3.7M49.3,16.3c-.6,0-1-.5-1-1s.5-1,1-1,1,.5,1,1-.5,1-1,1"/>
  <path d="M41.4,13.4c0-.7,0-1.4-.3-2.1-.5-.9-1.2-1.5-2.1-2-1-.5-2.1-.7-3.2-.7s-2.9,0-4.3.5c-.1,0-.1,0-.1,0-.1.6-.2,1-.5,1.6-.1.5-.2.9-.3,1.4h.1c1-.2,2.2-.5,3.3-.5s.9,0,1.4.2c.9.5,1,1.3.9,2.2-.2-.1-.5-.2-.7-.3-.9-.6-2.1-.8-3.1-.7-1.2.2-2.1.7-2.7,1.7-.5.9-.6,1.8-.5,2.8.3,2.5,2.8,3.9,5.1,3.3s1.7-.8,2.3-1.4h0c0,0,0,0,0-.1v1.5h4.4v-7.6M34.8,17.8c-.6,0-1-.5-1-1s.5-1,1-1,1,.5,1,1c0,.6-.3,1-1,1"/>
  <path d="M12.5,13.9c-.2-1.5-.9-2.8-2.2-3.7-1.3-.9-2.7-1.3-3.9-1.3-1.8,0-3.3.6-4.6,1.7-.7.7-1.3,1.4-1.6,2.4-.3,1.2-.3,2.4,0,3.6.3,1.7,1.4,3.1,3,3.9,1.7.9,3.6,1,5.4.5,1.7-.6,3-1.6,3.7-3.3.5-1.2.6-2.4.3-3.8M6.1,16.3c-.6,0-1-.5-1-1s.5-1,1-1,1,.5,1,1c0,.5-.3,1-1,1"/>
  <path class="st2" d="M14,9.6h-.2c-.2,0-.3,0-.6,0-.2,0-.3-.2-.5-.5s-.2-.7-.1-1c.1-.3.3-.7.7-.9.3-.2.7-.2,1,0,.3,0,.7.3.8.7.2.3.3.8.2,1.4-.1,1.4-1.3,2.1-1.3,2.1v-1.5h0Z"/>
  <g>
    <path class="st0" d="M72,26.3c-.2-.7,0-1.8.9-3.2.7-1.2,3.2-3.5,5.6-5.6.3-.2.5-.5.8-.6.2-1.1.5-2.2.6-3.4,0-.2.2-.3.3-.2,0,0,.3.2.2.3,0,.9-.3,1.9-.5,2.8,1.5-1.3,3-2.2,3.8-2.3,0,0,.3,0,.3.3s0,.3-.2.3c-.7,0-2.3,1.2-4.1,2.6-1.2,5-3.2,7.9-4.7,9.2-.7.6-1.4.8-2,.8-.5,0-1.1-.5-1.2-1.1h.2ZM72.6,26.2c0,.3.3.5.6.5s1.1-.2,1.5-.7c1.4-1.2,3.2-3.6,4.2-8,0,0-.1,0-.2,0-2.4,2-4.9,4.4-5.6,5.5-.5,1.2-.7,2-.6,2.6ZM80.3,11.8c0-.5.5-.7.5-.7,0,0,.3,0,.5,0s0,.3,0,.5c0,0-.2.2-.3.5,0,.2-.2.2-.5.2,0,0,0-.2,0-.5h0Z"/>
    <path class="st0" d="M83.1,16.4c-.3.5-.3.9-.3,1.2h0c0,0,0,.2.3.3.2,0,.5,0,.9,0,1.4-.3,3.5-1.8,4.7-3.3,0,0,.3,0,.5,0,0,0,.2.3,0,.5-1.2,1.6-3.4,3.2-5,3.5-.5,0-.9,0-1.3,0-.5,0-.6-.3-.7-.8s0-1.3.8-2.4c.5-.6.8-1.2,1.3-1.5.5-.5.8-.6,1.2-.6s.5,0,.5.3c0,0,0,.3,0,.6,0,.2,0,.5-.2.6-.3.8-1.3,1.6-2.7,1.9,0,0,0,0,0,0h0ZM83.5,15.6c.9-.2,1.5-.8,1.8-1.4,0,0,0-.3,0-.5h0c-.2,0-.5,0-.7.5-.3.2-.7.7-1.2,1.4,0,0,0,0,0,0Z"/>
    <path class="st0" d="M95.3,15.8c0,.6,0,1.2,0,1.4,0,.2.2.2.5.2.5,0,1.1-.3,1.6-.8.8-.7,1.6-1.8,2.2-2.4,0,0,.3,0,.5,0,0,0,.2.3,0,.5-.5.6-1.4,1.8-2.2,2.5-.6.5-1.4.9-2,.9s-.8-.2-1.1-.6c-.2-.5-.2-1.1,0-1.9,0-.7.3-1.5.6-2.5.9-3,2.7-6.7,3.4-7.5,0,0,0,0,.2,0h.2c.3,0,.3.5.2,1.1,0,.5-.2.9-.5,1.4-.8,2.3-2.7,5.9-3.4,6.9,0,0-.1,0-.2,0,0,.5,0,.7,0,.8h0ZM95.9,13.4c.8-1.5,2-3.9,2.6-5.5.2-.5.3-1.1.5-1.4,0,0,0,0,0,0-.6.6-2.2,4.1-3.2,6.9Z"/>
    <path class="st0" d="M99,16.4c-.3.5-.3.9-.3,1.2h0c0,0,0,.2.3.3.2,0,.5,0,.9,0,1.4-.3,3.5-1.8,4.7-3.3,0,0,.3,0,.5,0,0,0,.2.3,0,.5-1.2,1.6-3.4,3.2-5,3.5-.5,0-.9,0-1.3,0-.5,0-.6-.3-.7-.8s0-1.3.8-2.4c.5-.6.8-1.2,1.3-1.5.5-.5.8-.6,1.2-.6s.5,0,.5.3c0,0,0,.3,0,.6,0,.2,0,.5-.2.6-.3.8-1.3,1.6-2.7,1.9h0ZM99.4,15.6c.9-.2,1.5-.8,1.8-1.4,0,0,.2-.3.2-.5v-.2c-.2,0-.5.2-.7.5-.5.3-.8.8-1.3,1.4h0Z"/>
    <path class="st0" d="M114.8,15c.2,0,.5,0,.6-.2.9-.3,2-.6,3-.5.2,0,.3,0,.3.3s0,.3-.3.3c-.9,0-1.9.2-2.8.5-.3,0-.6.3-1.1.5h0c-.5,1.3-1.4,2.6-2.5,2.7-.2,0-.5,0-.5,0s-.2-.2-.3-.5c0,0,0-.3,0-.5,0-.3.5-.7,1.2-1.3.5-.3,1.1-.7,1.6-1.1,0-.3,0-.5,0-.7,0-.3,0-.5,0-.7s-.2-.3-.5-.3c-.7,0-1.5,1.1-2.4,2.5,0,.2-.2.3-.3.5-.3,2-.6,4.6-1.2,6.6-.5,1.6-1.1,2.9-1.4,3.4-.2.2-.5.3-.6.3s-.5-.2-.5-.6c0-.5,0-1.6.6-3.4.6-2,1.5-4.6,2.5-6.6v-.2c.5-1.3.5-2.3.6-2.7,0,0,.2-.2.3-.2.2,0,.2.2.2.5,0,.3-.2.8-.3,1.5.8-1.3,1.6-2.1,2.4-2.1s.7.2.9.6c0,.3,0,.6,0,1.1,0,0,0,.2,0,.3h.2ZM110.3,18.4c-.6,1.5-1.3,3.2-1.6,4.7-.5,1.6-.6,2.7-.5,3.2,0,0,0,0,0,0l.2-.2c.5-.5.9-1.5,1.4-3.2.2-1.4.5-3.2.7-4.6ZM113.8,16.2c-.3.2-.6.5-.9.6-.5.5-.8.8-.9,1.1h0c.7,0,1.4-.8,1.8-1.6h0Z"/>
    <path class="st0" d="M117.5,16.4c-.3.5-.3.9-.3,1.2h0c0,0,0,.2.3.3.2,0,.5,0,.9,0,1.4-.3,3.5-1.8,4.7-3.3,0,0,.3,0,.5,0,0,0,.2.3,0,.5-1.2,1.6-3.4,3.2-5,3.5-.5,0-.9,0-1.3,0-.5,0-.6-.3-.7-.8s0-1.3.8-2.4c.5-.6.8-1.2,1.3-1.5.5-.5.8-.6,1.2-.6s.5,0,.5.3c0,0,0,.3,0,.6,0,.2,0,.5-.2.6-.5.8-1.3,1.6-2.7,1.9h0ZM117.9,15.6c.9-.2,1.5-.8,1.8-1.4,0,0,0-.3,0-.5h0c-.2,0-.5,0-.7.5-.3.2-.7.7-1.2,1.4h0Z"/>
    <path class="st0" d="M122.2,18.2h0c0-.3.2-.9.5-1.6.2-.9.5-2,.8-3,0-.2.2-.2.3-.2.2,0,.2.2.2.5,0,.5-.3,1.1-.5,1.5.2-.2.3-.5.5-.6.7-.8,1.6-1.4,2.7-1.4s.3,0,.3.3,0,.3-.3.3c-.8,0-1.6.5-2.3,1.2-.8.9-1.4,2.2-1.8,3.2h-.2c0,0,.2,0,.2,0,0,0-.2.2-.5.2s-.2-.2,0-.3h0Z"/>
    <path class="st0" d="M129.6,17.1c-.6.7-1.2,1.4-1.6,1.4h0c-.2,0-.3,0-.5-.2,0,0-.2-.2-.2-.5v-.2c0-2,.8-3.4,1.8-4.1.3-.2.5-.3.8-.5s.5,0,.7,0c.2,0,.3.2.5.5.5-1.5.9-3.2,1.4-4.7.6-1.8,1.4-3.2,2.1-3.2h.2c.3,0,.3.5.2,1.1,0,.5-.2.9-.5,1.4-.6,1.8-1.9,4.2-2.7,5.9-.3.8-1.2,3.5-.5,3.5,1.2,0,3.9-3.2,3.9-3.2,0,0,.3,0,.5,0s0,.3,0,.5c0,0-2.8,3.4-4.2,3.4s-.8-1.4-.6-2.6c-.5.5-.8,1.1-1.2,1.4ZM129,16.6c.5-.6,1.1-1.4,1.4-2.1h0c0,0-.2,0-.2-.3,0-.3,0-.5-.2-.5,0,0-.2,0-.3,0-.2,0-.5.2-.6.3-.7.6-1.5,2-1.4,3.6h0v.2h0c.3,0,.7-.6,1.3-1.3h0ZM131.6,12.6c.7-1.4,1.5-3.3,2.1-4.7.2-.5.3-.8.5-1.2,0,0,.3-.8-.2,0,0,0,0,0,0,0-.3.5-.7,1.4-1.1,2.4-.5,1.1-.8,2.3-1.2,3.4Z"/>
    <path class="st0" d="M135.6,17.1c0-.2,0-.5-.2-.6-.2-.5-.5-.9-.5-1.8,0-2,1.4-2.2,1.4-2.2.2,0,.3,0,.3.3s0,.3-.2.3c0,0-.8,0-.9,1.5,0,.7,0,1.2.3,1.5,0,0,0,.3.2.5.9-.7,2.2-1.5,3.6-2.4,0,0,.3,0,.5,0s0,.3,0,.5c-1.6.9-2.9,1.8-3.9,2.5,0,.3,0,.7,0,1.3,0,1.4-.8,2.2-1.5,2.5-.5.2-.9.2-1.3,0-.3-.3-.5-.7,0-1.4.3-.6,1.1-1.4,2.4-2.5h0ZM133.9,19.9c-.2.5-.2.6,0,.6,0,0,.5,0,.7,0,.5-.2,1.2-.9,1.3-2v-.7c-1.1.8-1.6,1.5-1.9,2.1h0Z"/>
  </g>
  <path class="st1" d="M73.4,23.6c.7-1.2,3.2-3.4,5.6-5.5,0,0,.1,0,.2,0-1.2,4.4-2.8,6.8-4.2,8-.6.5-1.2.7-1.5.7s-.6-.2-.6-.5c-.3-.6,0-1.4.6-2.6ZM73.3,27.4c.5,0,1.3-.2,2-.8,1.6-1.3,3.5-4.1,4.7-9.2,1.8-1.4,3.3-2.5,4.1-2.6.2,0,.3-.2.2-.3,0-.2-.2-.3-.3-.3-.7,0-2.1,1.1-3.8,2.3.2-.8.3-1.8.5-2.8,0-.2,0-.3-.2-.3-.2,0-.3,0-.3.2-.2,1.3-.3,2.4-.6,3.4-.3.2-.5.5-.8.6-2.5,2.1-4.9,4.5-5.8,5.6-.8,1.4-1.1,2.4-.9,3.2.2.6.7.9,1.4,1.1h0ZM80.5,12.1c0,0,.3,0,.5-.2,0-.3.3-.5.3-.5,0,0,0-.3,0-.5s-.3,0-.5,0c0,0-.3.3-.5.7,0,.2,0,.5,0,.5h0Z"/>
  <path class="st1" d="M83.6,15.6c.3-.5.7-1.1,1.2-1.4.3-.3.6-.5.7-.5h0c0,.2,0,.5,0,.5-.3.6-.9,1.3-1.8,1.4,0,0,0,0,0,0ZM83.2,16.4c1.4-.2,2.3-1.1,2.7-1.8,0-.2.2-.5.2-.6v-.6c0-.2-.3-.3-.5-.3s-.7.2-1.2.6-.8.9-1.3,1.5c-.7,1.2-.9,1.9-.8,2.4,0,.5.3.6.7.8.3,0,.7,0,1.3,0,1.4-.5,3.6-1.9,4.9-3.5,0,0,0-.3,0-.5,0,0-.3,0-.5,0-1.2,1.5-3.2,2.9-4.7,3.3-.5,0-.7,0-.9,0s-.2,0-.3-.3h0c0-.3,0-.7.5-1.3h0Z"/>
  <path class="st1" d="M98.9,6.4h0c0,.5-.2.9-.5,1.4-.6,1.6-1.8,4-2.6,5.5,1.1-2.8,2.6-6.2,3.2-6.9ZM95.3,15.3c0,0,0,0,.2,0,.7-1.1,2.5-4.7,3.4-6.9.2-.6.5-1.1.5-1.4,0-.5,0-.9-.2-1.1h-.2c0,0-.2,0-.2,0-.7.8-2.5,4.4-3.4,7.5-.3.8-.5,1.8-.6,2.5s0,1.4,0,1.9c.2.5.5.6,1.1.6s1.3-.5,2-.9c.9-.7,1.8-1.9,2.2-2.5,0,0,0-.3,0-.5,0,0-.3,0-.5,0-.5.6-1.3,1.6-2.2,2.4-.5.5-1.2.8-1.6.8s-.3,0-.5-.2c0-.3,0-.8,0-1.4,0-.5,0-.6,0-.8h0Z"/>
  <path class="st1" d="M99.4,15.6c.3-.5.7-1.1,1.2-1.4.3-.3.6-.5.8-.5h0c0,.2,0,.5,0,.5-.3.6-.9,1.3-1.9,1.4h0ZM99,16.4c1.4-.2,2.3-1.1,2.7-1.8,0-.2.2-.5.2-.6v-.6c0-.2-.3-.3-.5-.3s-.7.2-1.2.6-.8.9-1.3,1.5c-.7,1.2-.9,1.9-.8,2.4,0,.5.3.6.7.8.3,0,.7,0,1.3,0,1.5-.5,3.9-1.9,5-3.5,0,0,0-.3,0-.5,0,0-.3,0-.5,0-1.2,1.5-3.2,2.9-4.7,3.3-.5,0-.7,0-.9,0s-.2,0-.3-.3h0c0-.3,0-.7.3-1.3h0Z"/>
  <path class="st1" d="M112,17.9h0c0-.2.5-.6.9-1.1.3-.2.6-.5.9-.6-.5.8-1.1,1.5-1.8,1.6h0ZM109.5,22.9c-.5,1.5-.9,2.7-1.4,3.2,0,0,0,.2-.2.2s0,0,0,0c0-.5,0-1.4.5-3.2.5-1.4,1.1-3.2,1.6-4.7,0,1.5-.5,3.2-.7,4.6ZM114.8,14.6c0-.5,0-.7,0-1.1-.2-.5-.5-.6-.9-.6-.7,0-1.5.8-2.4,2.1,0-.7.2-1.3.3-1.5,0,0,0-.3-.2-.5s-.3,0-.3.2c-.2.5-.3,1.5-.5,2.9v.2c-1.1,2-2,4.5-2.5,6.6-.5,1.8-.6,2.9-.6,3.4,0,.5.2.6.5.6s.5,0,.6-.3c.5-.5,1.1-1.8,1.4-3.4.5-2.1.8-4.6,1.2-6.6,0-.2.2-.3.3-.5.8-1.4,1.6-2.5,2.4-2.5s.3,0,.5.3,0,.5,0,.7,0,.5,0,.7c-.6.3-1.2.7-1.6,1.1-.6.5-1.1.9-1.2,1.3,0,.2,0,.3,0,.5s0,.3.3.5c0,0,.3,0,.5,0,1.2,0,2.1-1.4,2.5-2.7h0c.3,0,.6-.3,1.1-.5.8-.3,1.8-.5,2.8-.5s.3,0,.3-.3,0-.3-.3-.3c-1.1,0-2.1.2-3,.5-.2,0-.5,0-.6.2-.2-.2-.2-.3-.2-.5h-.2Z"/>
  <path class="st1" d="M117.9,15.6c.3-.5.7-1.1,1.2-1.4.3-.3.6-.5.7-.5h0c0,.2,0,.5,0,.5-.3.6-.8,1.3-1.8,1.4h0ZM117.5,16.4c1.4-.2,2.3-1.1,2.7-1.8,0-.2.2-.5.2-.6v-.6c0-.2-.3-.3-.5-.3s-.7.2-1.2.6-.8.9-1.3,1.5c-.7,1.2-.9,1.9-.8,2.4,0,.5.3.6.7.8.3,0,.7,0,1.3,0,1.5-.5,3.9-1.9,5-3.5,0,0,0-.3,0-.5,0,0-.3,0-.5,0-1.2,1.5-3.2,2.9-4.7,3.3-.5,0-.7,0-.9,0s-.2,0-.3-.3h0c0-.3,0-.7.3-1.3h0Z"/>
  <path class="st1" d="M122.3,18.6c.2,0,.3,0,.5-.2h-.2c0,0,.2,0,.2,0h0c.3-1.2.9-2.4,1.8-3.2.6-.7,1.4-1.2,2.3-1.2s.3,0,.3-.3,0-.3-.3-.3c-1.1,0-2,.5-2.7,1.4-.2.2-.3.5-.5.6,0-.5.3-1.1.5-1.5,0,0,0-.3-.2-.5s-.3,0-.3.2c-.3.9-.5,2.1-.8,3-.2.7-.3,1.4-.5,1.5h0c0,0,0,.3,0,.5h0Z"/>
  <path class="st1" d="M127.9,17.9h0c0,0,0,0,0,0h0c0-1.9.7-3.2,1.4-3.8.2,0,.5-.3.6-.3h.3c0,0,.2.2.2.5s0,.2.2.3h0c-.5.6-.9,1.4-1.4,2.1s-.9,1.2-1.3,1.3h0ZM132.8,9.2c.3-1.1.7-1.9,1.1-2.4h0c.5-.8.2,0,.2,0,0,.3-.2.7-.5,1.2-.5,1.4-1.4,3.2-2.1,4.7.3-1.2.7-2.4,1.2-3.4ZM130.6,15.6c-.2,1.3-.3,2.6.6,2.6,1.4,0,4.2-3.4,4.2-3.4,0,0,0-.3,0-.5,0,0-.3,0-.5,0,0,0-2.6,3.2-3.9,3.2s0-2.7.5-3.5c.8-1.5,2.1-4.1,2.7-5.9.2-.6.5-1.1.5-1.4,0-.5,0-.9-.2-1.1h-.2c-.7,0-1.4,1.4-2.1,3.2-.5,1.4-1.1,3.2-1.4,4.7,0-.2-.2-.3-.5-.5-.2,0-.5,0-.7,0-.2,0-.5.2-.8.5-.8.7-1.8,2.2-1.8,4.1v.2c0,.2,0,.3.2.5,0,0,.3.2.5.2h0c.5,0,1.1-.7,1.6-1.4.5-.5.8-.9,1.2-1.4Z"/>
  <path class="st1" d="M135.7,17.8v.7c0,1.1-.7,1.8-1.3,2-.3,0-.5,0-.7,0,0,0,0-.3,0-.6.2-.5.8-1.3,1.9-2.1h0ZM133.3,19.5c-.3.7-.2,1.2,0,1.4.3.2.8.3,1.3,0,.7-.3,1.4-1.2,1.5-2.5,0-.5,0-.9,0-1.3.9-.7,2.2-1.5,3.9-2.5,0,0,.2-.3,0-.5,0,0-.2-.2-.5,0-1.5.8-2.7,1.6-3.6,2.4,0,0,0-.3-.2-.5-.2-.5-.3-.8-.3-1.5,0-1.4.9-1.5.9-1.5.2,0,.3-.2.2-.3,0-.2-.2-.3-.3-.3,0,0-1.3.2-1.4,2.2,0,.8.2,1.4.5,1.8,0,.2,0,.5.2.6-1.4,1.1-2.2,1.9-2.4,2.5h0Z"/>
</svg>