<svg width="50" height="50" viewBox="0 0 50 50" fill="none" xmlns="http://www.w3.org/2000/svg">
<circle cx="25" cy="25" r="24" stroke="#111111" stroke-width="2"/>
<path d="M11.6819 27.9673L11.7723 28.175L11.6955 28.3877C11.5353 28.816 11.4524 29.2756 11.4516 29.74C11.4516 32.1579 12.3081 34.4767 13.8326 36.1864C15.357 37.8961 17.4247 38.8566 19.5806 38.8566H23.6452V40.8825C23.6452 41.2855 23.7879 41.672 24.042 41.9569C24.2961 42.2419 24.6407 42.402 25 42.402C25.3593 42.402 25.7039 42.2419 25.958 41.9569C26.2121 41.672 26.3548 41.2855 26.3548 40.8825V38.8566H30.4194C31.4869 38.8566 32.5439 38.6208 33.5302 38.1627C34.5165 37.7045 35.4126 37.033 36.1674 36.1864C36.9223 35.3399 37.5211 34.3349 37.9296 33.2288C38.3381 32.1227 38.5484 30.9372 38.5484 29.74C38.5481 29.2739 38.4653 28.8125 38.3045 28.3826L38.2277 28.1699L38.3181 27.9623C38.7663 26.9394 38.9996 25.8149 39 24.6752C38.9928 22.8555 38.4066 21.0984 37.3468 19.7205C36.287 18.3425 34.8233 17.4342 33.2194 17.1591L32.971 17.1185L32.8716 16.8552C32.2181 15.1194 31.1229 13.6383 29.7228 12.5968C28.3228 11.5554 26.68 11 25 11C23.32 11 21.6772 11.5554 20.2772 12.5968C18.8771 13.6383 17.7819 15.1194 17.1284 16.8552L17.029 17.1185L16.7806 17.1591C15.1767 17.4342 13.713 18.3425 12.6532 19.7205C11.5934 21.0984 11.0072 22.8555 11 24.6752C10.9998 25.8166 11.2331 26.9429 11.6819 27.9673ZM23.6452 35.8177H19.5806C18.1433 35.8177 16.7649 35.1774 15.7486 34.0376C14.7323 32.8978 14.1613 31.3519 14.1613 29.74V29.2335H18.2258C19.6631 29.2335 21.0415 29.8738 22.0579 31.0136C23.0742 32.1534 23.6452 33.6993 23.6452 35.3113V35.8177ZM35.8387 29.74C35.8387 31.3519 35.2677 32.8978 34.2514 34.0376C33.2351 35.1774 31.8567 35.8177 30.4194 35.8177H26.3548V35.3113C26.3548 33.6993 26.9258 32.1534 27.9421 31.0136C28.9585 29.8738 30.3369 29.2335 31.7742 29.2335H35.8387V29.74ZM13.7097 24.2295C13.8332 23.0851 14.3294 22.0323 15.103 21.2732C15.8765 20.5141 16.8729 20.1023 17.9006 20.1169H18.3523C18.5586 20.1236 18.7607 20.0509 18.9251 19.9108C19.0894 19.7708 19.206 19.5718 19.2555 19.3471L19.3413 18.9773C19.6616 17.5668 20.3918 16.3162 21.4165 15.423C22.4413 14.5297 23.7021 14.0448 25 14.0448C26.2979 14.0448 27.5587 14.5297 28.5835 15.423C29.6082 16.3162 30.3384 17.5668 30.6587 18.9773L30.7445 19.3471C30.794 19.5718 30.9106 19.7708 31.0749 19.9108C31.2393 20.0509 31.4414 20.1236 31.6477 20.1169H32.0994C33.1271 20.1023 34.1235 20.5141 34.897 21.2732C35.6706 22.0323 36.1668 23.0851 36.2903 24.2295C36.335 24.7686 36.2937 25.3122 36.1684 25.835L36.0735 26.2453L35.6716 26.1946C35.5768 26.1946 35.4819 26.1946 35.3871 26.1946H31.7742C30.0859 26.1936 28.4399 26.7871 27.0684 27.8913L26.3548 28.4637V24.1687C26.3558 23.9557 26.3168 23.7449 26.2404 23.5499C26.164 23.3549 26.0519 23.1801 25.9114 23.0368C25.7708 22.8935 25.605 22.785 25.4247 22.7182C25.2443 22.6515 25.0535 22.628 24.8645 22.6493C24.5207 22.7016 24.2061 22.8943 23.9811 23.1906C23.7561 23.4868 23.6365 23.8658 23.6452 24.2548V28.4637L22.9316 27.8913C21.5601 26.7871 19.9141 26.1936 18.2258 26.1946H14.6129C14.5181 26.1946 14.4232 26.1946 14.3284 26.1946L13.949 26.2301L13.8542 25.8198C13.7229 25.3034 13.6739 24.765 13.7097 24.2295Z" fill="black"/>
</svg>
