<?xml version="1.0" encoding="UTF-8"?>
<svg xmlns="http://www.w3.org/2000/svg" version="1.1" viewBox="0 0 50 50">
  <defs>
    <style>
      .cls-1 {
        fill: none;
        stroke: #111;
        stroke-width: 2px;
      }
    </style>
  </defs>
  <!-- Generator: Adobe Illustrator 28.7.0, SVG Export Plug-In . SVG Version: 1.2.0 Build 136)  -->
  <g>
    <g id="Calque_1">
      <circle class="cls-1" cx="25" cy="25" r="24"/>
      <path d="M29.5,8c-.4-.4-1.1-.4-1.6,0,0,0,0,0,0,0l-15.5,15.5c-.2.2-.3.5-.3.8v7.7c0,.3.1.6.3.8l3.4,3.4c-.4.9-.8,1.3-1.1,1.3-.6,0-1.3-.9-1.5-1.3v-.3c-.1,0-1.7.7-1.7.7v.3c.2,0,1.2,2.3,3.1,2.3,1.1,0,2-.8,2.4-1.8.1,0,.3.1.5.1h7.7c.3,0,.6-.1.8-.3l15.5-15.5c.4-.4.4-1.1,0-1.6,0,0,0,0,0,0l-12.2-12.2ZM25.3,36.1h-7.5c.2-.6.3-1.1.4-1.6,2,.4,4-.9,4.5-2.9.4-2-.9-4-2.9-4.5-2-.4-4,.9-4.5,2.9-.3,1.4.2,2.8,1.4,3.7,0,.1,0,.2,0,.4,0,.2,0,.3-.1.5l-2.7-2.7v-7.4l15.1-15.1,11.6,11.6-15.1,15.1ZM16.7,30.9c0-1.2,1-2.2,2.2-2.2s2.2,1,2.2,2.2-1,2.2-2.2,2.2,0,0,0,0c.3-.4.6-.7.9-1l.2-.2-1-1.4-.2.2c-.6.4-1.1,1-1.5,1.6-.4-.4-.6-.9-.6-1.5ZM20.4,22.2l8.8-8.8,1.1,1.1-8.8,8.8-1.1-1.1ZM23.5,25.2l8.8-8.8,1.1,1.1-8.8,8.8-1.1-1.1ZM26.5,28.3l8.8-8.8,1.1,1.1-8.8,8.8-1.1-1.1Z"/>
    </g>
  </g>
</svg>