<svg width="50" height="50" viewBox="0 0 50 50" fill="none" xmlns="http://www.w3.org/2000/svg">
<circle cx="25" cy="25" r="24" stroke="#111111" stroke-width="2"/>
<path d="M30.694 18.0156V14.5095L24.9496 10.9639L19.2051 14.5095V21.5217L24.9496 25.0673L30.694 21.5217V18.0156ZM24.9496 35.2617L18.781 39.0687C18.5258 39.2264 18.2288 39.2148 17.9915 39.0658L11.4347 35.0194C11.165 34.8521 11.0122 34.5387 11.0114 34.2147H11.0096V26.1161C11.0096 25.7479 11.2017 25.4297 11.479 25.2826L17.5708 21.5227V13.9673H17.5725C17.5725 13.6433 17.7261 13.3289 17.9958 13.1626L24.5527 9.11616C24.79 8.96811 25.087 8.95561 25.3421 9.11327L31.8581 13.1347C32.1363 13.2818 32.3283 13.599 32.3283 13.9682V21.5236L38.4201 25.2836C38.6975 25.4307 38.8895 25.7479 38.8895 26.1171V34.2157H38.8878C38.8878 34.5397 38.7341 34.8541 38.4645 35.0204L31.9076 39.0668C31.6703 39.2149 31.3733 39.2273 31.1181 39.0697L24.9496 35.2626V35.2617ZM18.3884 23.1128L12.644 26.6583V33.6706L18.3884 37.2162L24.1328 33.6706V26.6583L18.3884 23.1128ZM25.7663 26.6583V33.6706L31.5107 37.2162L37.2552 33.6706V26.6583L31.5107 23.1128L25.7663 26.6583Z" fill="black"/>
</svg>
