<svg width="50" height="50" viewBox="0 0 50 50" fill="none" xmlns="http://www.w3.org/2000/svg">
<circle cx="25" cy="25" r="24" stroke="#111111" stroke-width="2"/>
<path d="M10.4734 16C10.1809 15.999 9.95806 16.2937 10.0067 16.6171C10.8036 22.0145 11.6155 27.4098 12.4098 32.8072C12.944 36.2309 15.614 38.752 18.7136 38.752H31.2306C34.3302 38.752 37.0002 36.2309 37.5344 32.8072C38.3344 27.4108 39.1363 22.0137 39.9375 16.6171C39.9861 16.2937 39.7633 15.999 39.4708 16H36.5976C36.3666 15.9992 36.1692 16.186 36.1309 16.4414L33.8183 32.0806C33.5955 33.5083 32.5229 34.5218 31.2306 34.5218H18.7136C17.4224 34.5218 16.3499 33.5103 16.1259 32.0845C15.356 26.8701 14.5844 21.6557 13.8133 16.4414C13.775 16.186 13.5776 15.9992 13.3467 16H10.4734ZM11.0271 17.0585H12.9461C13.692 22.1265 14.4527 27.1924 15.196 32.2604C15.4956 34.1805 16.9754 35.5765 18.7136 35.5765H31.2306C32.9688 35.5765 34.4486 34.1805 34.7482 32.2604C35.4971 27.1934 36.2479 22.1257 36.9981 17.0585H38.9171L36.6045 32.6314C36.1475 35.5503 33.873 37.6973 31.2306 37.6973H18.7136C16.0712 37.6973 13.7967 35.5503 13.3397 32.6314C12.5698 27.4404 11.7982 22.2494 11.0271 17.0585Z" fill="black" stroke="#111111"/>
<path d="M14.1825 19.5583L13.5173 20.3044L14.7293 21.6675C15.6913 22.7464 17.2675 22.7464 18.2295 21.6675C18.8309 20.9931 19.7909 20.9931 20.3923 21.6675C21.3543 22.7464 22.927 22.7464 23.889 21.6675C24.4904 20.9931 25.4538 20.9931 26.0552 21.6675C27.0172 22.7464 28.5899 22.7464 29.5519 21.6675C30.1533 20.9931 31.1133 20.9931 31.7147 21.6675C32.6767 22.7464 34.2529 22.7464 35.2149 21.6675L36.4269 20.3044L35.7582 19.5583L34.5462 20.9176C33.9448 21.5921 32.9848 21.5921 32.3834 20.9176C31.4214 19.8387 29.8452 19.8387 28.8832 20.9176C28.2818 21.5921 27.3218 21.5921 26.7204 20.9176C25.7584 19.8387 24.1858 19.8387 23.2238 20.9176C22.6224 21.5921 21.6624 21.5921 21.061 20.9176C20.099 19.8387 18.5228 19.8387 17.5608 20.9176C16.9594 21.5921 15.9994 21.5921 15.398 20.9176L14.1825 19.5583Z" fill="black" stroke="#111111"/>
</svg>
