<svg width="50" height="50" viewBox="0 0 50 50" fill="none" xmlns="http://www.w3.org/2000/svg">
<circle cx="25" cy="25" r="24" stroke="#111111" stroke-width="2"/>
<path fill-rule="evenodd" clip-rule="evenodd" d="M19.1412 16.2089L22.8433 15.7287C22.6899 10.5317 27.3508 8.05077 29.8721 11.7099C30.7005 12.9118 31.0905 14.5554 30.9319 16.2201C31.5609 16.3247 32.0569 16.7041 32.3727 17.2367L39.4716 29.2008C40.0635 30.1962 39.7209 31.4827 38.7071 32.0526L28.1627 37.9777C27.1374 38.5537 25.8309 38.1879 25.2415 37.1988L24.9999 36.7907C24.6202 37.4315 24.3326 37.9404 23.462 38.1755C22.934 38.3186 22.3459 38.2639 21.8371 37.9764L11.2914 32.0504L11.2901 32.0517C10.2725 31.4793 9.93504 30.1953 10.5257 29.1999L17.6245 17.2332C17.9544 16.682 18.4824 16.2951 19.1407 16.2092L19.1412 16.2089ZM24.3942 15.5271L26.758 15.2198C28.0224 15.0555 28.6437 15.8954 28.7063 15.929L29.3954 16.0186C29.6805 12.4352 26.9907 9.98297 25.2227 12.5483C24.7049 13.3011 24.3904 14.3513 24.3942 15.5271ZM24.586 17.0226C24.7202 17.5303 24.9299 18.0242 25.2175 18.446C26.4589 18.1313 27.4867 19.4315 26.8398 20.5214C26.0344 21.8788 23.8854 21.1161 24.15 19.5808C23.6093 18.9064 23.2424 18.0827 23.0391 17.223L19.3419 17.7045C19.1719 17.7269 19.053 17.8476 18.9686 17.9907L11.8698 29.9561C11.7074 30.2299 11.7854 30.5857 12.0692 30.7462L12.0679 30.7475L22.5495 36.6362C22.9279 36.8266 23.204 36.7669 23.4431 36.3961L30.5151 24.4739L30.5164 24.4752C30.6021 24.3284 30.6455 24.1691 30.5803 24.0161L27.6515 17.102L27.6042 17.0112H27.6055C27.4738 16.786 27.2271 16.6802 26.9586 16.715L24.586 17.0226ZM29.5193 17.5564L32.0135 23.4439C32.2653 24.0399 32.1835 24.6819 31.8562 25.2306L31.8575 25.2319L25.8949 35.2814L26.6006 36.4722C26.7425 36.7086 27.1094 36.828 27.3855 36.6725L37.9604 30.7315C38.2276 30.5784 38.2851 30.2363 38.1074 29.9153L31.0314 17.9871C30.9471 17.8465 30.8218 17.7258 30.6581 17.7046L29.5193 17.5564Z" fill="black"/>
</svg>
