<?xml version="1.0" encoding="UTF-8"?>
<svg id="Calque_1" xmlns="http://www.w3.org/2000/svg" version="1.1" viewBox="0 0 140 29.8">
  <!-- Generator: Adobe Illustrator 29.0.1, SVG Export Plug-In . SVG Version: 2.1.0 Build 192)  -->
  <defs>
    <style>
      .st0 {
        fill: #d7ac05;
      }

      .st1 {
        fill: #1e1e1c;
        stroke: #312a28;
        stroke-miterlimit: 10;
        stroke-width: .2px;
      }
    </style>
  </defs>
  <g>
    <path class="st1" d="M6.2,15.1c.1-.5.3-.9.3-1.3s0-.3-.2-.3c-.8,0-1.8,1.7-2.4,2.6-.2.3-.3.5-.5.7,0,0-.2.1-.3,0-.2,0-.2-.3,0-.9,0-.2.1-.4.2-.7.2-.6.4-1.3.4-1.7s0-.2,0-.2c-1,0-2.2,2.3-2.9,3.4,0,.1-.1.3-.2.4,0,.1-.2.2-.3.1-.1,0-.2-.2-.2-.3,0-.3.2-.7.4-1.3.2-.6.4-1.4.6-2.1,0-.1.2-.2.3-.2.1,0,.2.2.2.3-.1.5-.3.9-.4,1.3.7-1.1,1.6-2.2,2.4-2.2s.6.3.6.7-.1.9-.3,1.4c.7-1,1.5-2.1,2.4-2.1s.8.3.8.9-.1.9-.3,1.4c-.1.5-.3.9-.3,1.3s0,.3.3.3c1.1,0,3.5-2.8,3.5-2.8,0-.1.3-.1.4,0s.1.3,0,.4c0,0-2.6,3-3.8,3s-.8-.3-.8-.9.1-.9.3-1.4h0Z"/>
    <path class="st1" d="M9.7,15.8c-.2.4-.3.8-.3,1h0c0,.1.1.2.3.2.2,0,.5,0,.9,0,1.3-.3,3.2-1.5,4.2-2.8,0-.1.2-.1.4,0,.1,0,.1.3,0,.4-1.1,1.4-3.1,2.7-4.5,3-.4.1-.8.1-1.1,0-.4,0-.6-.3-.7-.7,0-.4.1-1.1.8-2.1.3-.5.8-1,1.1-1.3.4-.3.8-.5,1.1-.5s.4.1.5.3c0,.1,0,.3,0,.5,0,.2,0,.3-.2.5-.3.6-1.1,1.3-2.4,1.5h0,0ZM10.1,15.2c.9-.2,1.4-.7,1.6-1.2,0-.1.1-.3.1-.4,0,0,0,0,0-.1-.2,0-.4.2-.7.4-.4.3-.7.8-1.1,1.2,0,0,0,0,0,0Z"/>
    <path class="st1" d="M15.3,16.4c0-.2-.1-.4-.2-.5-.2-.4-.4-.8-.3-1.5,0-1.7,1.3-1.9,1.3-1.9.1,0,.3,0,.3.2,0,.1,0,.3-.2.3,0,0-.8,0-.8,1.3,0,.6.1,1,.3,1.3,0,.1,0,.2.1.4.9-.6,2-1.3,3.3-2.1.1,0,.3,0,.4,0,0,.1,0,.3,0,.4-1.5.8-2.6,1.5-3.5,2.1,0,.3,0,.6,0,1.1-.1,1.1-.8,1.8-1.4,2.1-.4.2-.9.2-1.2,0-.3-.2-.4-.7,0-1.2.3-.5.9-1.2,2.1-2.1h0ZM13.7,18.7c-.2.3-.2.5,0,.6.1,0,.3,0,.6,0,.5-.2,1-.8,1.1-1.7,0-.2,0-.4,0-.6-.9.7-1.4,1.3-1.7,1.8h0Z"/>
    <path class="st1" d="M28,13.5s-1.3,3.3-.5,3.3,3.5-2.8,3.5-2.8c0-.1.3-.1.4,0s.1.3,0,.4c0,0-2.5,3-3.8,3s-.8-1.1-.6-2.2c-.3.4-.6.8-.9,1.2-.5.6-1.1,1.1-1.5,1.2,0,0,0,0-.1,0-.1,0-.3,0-.4-.1s-.2-.2-.2-.4c0,0,0-.1,0-.2,0-1.7.8-3,1.6-3.6.2-.2.5-.3.7-.3.2,0,.5,0,.7,0,.2.1.4.3.5.7.1-.2.2-.3.3-.5,0-.1.2-.2.4,0,.1,0,.2.2.1.3ZM26.9,14.3c-.1,0-.2-.1-.2-.3,0-.3,0-.4-.2-.5,0,0-.2,0-.3,0-.2,0-.3.1-.5.3-.7.5-1.4,1.6-1.4,3.1h0c0,0,0,.1,0,.1h0c.3,0,.7-.5,1.2-1,.5-.6.9-1.2,1.3-1.8h0Z"/>
    <path class="st1" d="M30.9,14.4v-.2c.5-1.6,1-3.2,1.6-4.8.3-.8.6-1.4.9-1.9.3-.5.6-.8.9-.9,0,0,0,0,0,0,0,0,.1,0,.2,0,.3,0,.3.4.2.8,0,.3-.2.7-.4,1.2-.4,1-.9,2-1.4,3.1s-1.1,2-1.5,2.7c0,0,.3,0,.5,0,.2,0,.5,0,.9,0s.8,0,1.3-.2c.5,0,.9-.2,1.2-.3s.5-.1.5-.1c0,0,.1,0,.2,0,0,0,0,0,.1.1,0,0,0,.1,0,.2s0,.1-.1.1c0,0-.2,0-.6.2-.4,0-.8.2-1.3.3-.5.1-.9.2-1.3.2s-.9,0-1.2,0c0,.2.2.6.2,1.1,0,.5,0,1.2-.1,2-.3,1.8-.6,3.2-1,4.4-.1.3-.2.6-.4.8-.2.3-.4.4-.6.3,0,0-.1,0-.2-.1-.2-.2-.4-.7-.4-1.3s0-1.4.2-2.2c.3-1.7.8-3.5,1.3-5.2h0s0-.3,0-.3h0ZM31.2,18.1c.1-.8.2-1.4.1-1.9,0-.5-.1-.8-.2-1-.5,1.6-.9,3.2-1.2,4.8-.3,1.6-.3,2.6,0,3.1h0s0,0,0,0c0-.1.2-.4.3-.6.4-1.1.7-2.5,1-4.3h0ZM33,9.6c-.4.9-.7,1.9-1,3,.8-1.4,1.4-2.8,2-4.2.2-.4.3-.8.4-1.1,0,0,0,0,0,0-.4.3-.8,1.1-1.3,2.4h0Z"/>
    <path class="st1" d="M35.6,14.4v-.2c.5-1.6,1-3.2,1.6-4.8.3-.8.6-1.4.9-1.9.3-.5.6-.8.9-.9,0,0,0,0,0,0,0,0,.1,0,.2,0,.3,0,.3.4.2.8,0,.3-.2.7-.4,1.2-.4,1-.9,2-1.4,3.1s-1.1,2-1.5,2.7c0,0,.3,0,.5,0,.2,0,.5,0,.9,0s.8,0,1.3-.2c.5,0,.9-.2,1.2-.3s.5-.1.5-.1c0,0,.1,0,.2,0,0,0,0,0,.1.1,0,0,0,.1,0,.2s0,.1-.1.1c0,0-.2,0-.6.2-.4,0-.8.2-1.3.3-.5.1-.9.2-1.4.2s-.9,0-1.2,0c0,.2.2.6.2,1.1,0,.5,0,1.2-.1,2-.3,1.8-.6,3.2-1,4.4-.1.3-.2.6-.4.8-.2.3-.4.4-.6.3,0,0-.1,0-.2-.1-.2-.2-.4-.7-.4-1.3s0-1.4.2-2.2c.3-1.7.8-3.5,1.3-5.2h0s0-.3,0-.3h0ZM36,18.1c.1-.8.2-1.4.1-1.9,0-.5-.1-.8-.2-1-.5,1.6-.9,3.2-1.2,4.8-.3,1.6-.3,2.6,0,3.1h0s0,0,0,0c0-.1.2-.4.3-.6.4-1.1.7-2.5,1-4.3h0ZM37.7,9.6c-.4.9-.7,1.9-1,3,.8-1.4,1.4-2.8,2-4.2.2-.4.3-.8.4-1.1,0,0,0,0,0,0-.4.3-.8,1.1-1.3,2.4h0Z"/>
    <path class="st1" d="M43.8,13.5s-1.3,3.3-.5,3.3,3.5-2.8,3.5-2.8c0-.1.3-.1.4,0s.1.3,0,.4c0,0-2.5,3-3.8,3s-.8-1.1-.6-2.2c-.3.4-.6.8-.9,1.2-.5.6-1.1,1.1-1.5,1.2,0,0,0,0-.1,0-.1,0-.3,0-.4-.1s-.2-.2-.2-.4c0,0,0-.1,0-.2,0-1.7.8-3,1.6-3.6.2-.2.5-.3.7-.3.2,0,.5,0,.7,0,.2.1.4.3.5.7.1-.2.2-.3.3-.5,0-.1.2-.2.4,0,.1,0,.2.2.1.3ZM42.7,14.3c-.1,0-.2-.1-.2-.3,0-.3,0-.4-.2-.5,0,0-.2,0-.3,0-.2,0-.3.1-.5.3-.7.5-1.4,1.6-1.4,3.1h0c0,0,0,.1,0,.1h0c.3,0,.7-.5,1.2-1,.5-.6.9-1.2,1.3-1.8h0Z"/>
    <path class="st1" d="M47.1,17.4c-1.6,0,0-4,0-4,0-.1.2-.2.3-.1.1,0,.2.2.1.3,0,0-1,3.3-.5,3.3,1.1,0,3.5-2.8,3.5-2.8,0-.1.3-.1.4,0s.1.3,0,.4c0,0-2.5,3-3.8,3h0ZM48,11.6c.1.1.1.3,0,.4,0,0-.2.2-.3.4,0,.1-.2.2-.3.2-.1,0-.2-.2-.2-.3.1-.4.4-.6.4-.6.1,0,.3,0,.4,0Z"/>
    <path class="st1" d="M49.7,17.4h0,0c0-.3.2-.8.4-1.4.2-.8.5-1.7.7-2.6,0-.1.2-.2.3-.2.1,0,.2.2.2.3-.1.4-.3.9-.4,1.3.1-.2.3-.4.5-.5.7-.7,1.5-1.2,2.4-1.1.1,0,.3.1.3.3s-.1.3-.3.3c-.8,0-1.5.4-2.1,1-.8.8-1.3,1.8-1.6,2.8h0s0,0,0,0h-.2c0,0,.2,0,.2,0,0,.1-.2.2-.3.2-.1,0-.2-.2-.2-.3h0Z"/>
    <path class="st1" d="M54.5,15.8c-.2.4-.3.8-.3,1h0c0,.1.1.2.3.2.2,0,.5,0,.9,0,1.3-.3,3.2-1.5,4.2-2.8,0-.1.2-.1.4,0,.1,0,.1.3,0,.4-1.1,1.4-3.1,2.7-4.5,3-.4.1-.8.1-1.1,0-.4,0-.6-.3-.7-.7,0-.4.1-1.1.8-2.1.3-.5.8-1,1.1-1.3.4-.3.8-.5,1.1-.5s.4.1.5.3c0,.1,0,.3,0,.5,0,.2,0,.3-.2.5-.3.6-1.1,1.3-2.4,1.5h0ZM54.8,15.2c.9-.2,1.4-.7,1.6-1.2,0-.1.1-.3.1-.4,0,0,0,0,0-.1-.2,0-.4.2-.7.4-.4.3-.7.8-1.1,1.2,0,0,0,0,0,0Z"/>
    <path class="st1" d="M60.1,16.4c0-.2-.1-.4-.2-.5-.2-.4-.4-.8-.3-1.5,0-1.7,1.3-1.9,1.3-1.9.1,0,.3,0,.3.2,0,.1,0,.3-.2.3,0,0-.8,0-.8,1.3,0,.6.1,1,.3,1.3,0,.1,0,.2.1.4.9-.6,2-1.3,3.3-2.1.1,0,.3,0,.4,0,0,.1,0,.3,0,.4-1.5.8-2.6,1.5-3.5,2.1,0,.3,0,.6,0,1.1-.1,1.1-.8,1.8-1.4,2.1-.4.2-.9.2-1.2,0-.3-.2-.4-.7,0-1.2.3-.5.9-1.2,2.1-2.1h0ZM58.5,18.7c-.2.3-.2.5,0,.6.1,0,.3,0,.6,0,.5-.2,1-.8,1.1-1.7,0-.2,0-.4,0-.6-.9.7-1.4,1.3-1.7,1.8h0Z"/>
  </g>
  <path d="M135.3,21.5v-1.4c-.1.1-.2.2-.2.3-.6.7-1.4,1.1-2.3,1.1-.8,0-1.6,0-2.3-.3-1-.4-1.6-1.2-1.9-2.2-.3-.9-.4-1.9-.4-2.9v-6.5c1.6-.1,3.1-.2,4.8-.3v6.7c0,.2,0,.3,0,.5.1.8.9,1.1,1.6.6.3-.2.5-.6.5-.9,0-2.1,0-4.2,0-6.3v-.2c1.6-.1,3.1-.2,4.7-.3v11.9c-1.5.1-2.9.2-4.4.4"/>
  <path d="M99.5,10.6c-.9,1.2-1.8,2.3-2.7,3.4l-.3-.2c-.8-.5-2-.4-2.7.2-.6.5-.7,1.2-.5,1.9.2.7.7,1.1,1.4,1.3.8.2,1.5,0,2.2-.5.9,1.2,1.7,2.4,2.6,3.7-.5.2-1,.5-1.6.7-1,.4-2.1.6-3.2.6-1.6,0-3-.5-4.3-1.5-1.2-1-2-2.3-2.2-3.9-.2-1.3,0-2.6.6-3.8.8-1.6,2-2.6,3.7-3,2.1-.6,4.1-.4,6,.6.3.2.7.4,1,.6"/>
  <path d="M126.4,14.2c-.3-1.5-1-2.8-2.2-3.8-1.2-.9-2.6-1.3-3.9-1.3-1.9,0-3.4.5-4.6,1.7-.7.7-1.3,1.5-1.6,2.4-.4,1.2-.4,2.4-.1,3.6.4,1.8,1.3,3.1,3,4,1.8.9,3.6,1,5.5.4,1.7-.5,3-1.6,3.7-3.3.5-1.2.6-2.5.4-3.8M120.1,16.5c-.6,0-1.1-.5-1.1-1.1s.5-1.1,1.1-1.1,1.1.5,1.1,1.1-.5,1.1-1.1,1.1"/>
  <path d="M112.2,13.7c0-.7,0-1.4-.4-2-.4-.9-1.2-1.5-2-2-1-.5-2.1-.7-3.2-.7-1.4,0-2.9.2-4.3.4-.1,0-.1,0-.2.2-.1.5-.3,1.1-.4,1.6-.1.4-.2.9-.3,1.4,0,0,.1,0,.2,0,1.1-.2,2.2-.5,3.3-.5s.9,0,1.4.2c.9.5,1,1.2.9,2.2-.2-.1-.4-.2-.7-.4-1-.6-2-.8-3.2-.7-1.2.2-2.1.7-2.7,1.8-.5.9-.6,1.8-.5,2.8.4,2.5,2.7,3.9,5.1,3.4.9-.2,1.7-.8,2.3-1.4,0,0,0-.1.1-.2,0,0,0,0,0,0v1.5h4.4v-.2c0-2.4,0-4.9,0-7.3M105.6,18.1c-.6,0-1.1-.5-1.1-1.1s.5-1.1,1.1-1.1,1.1.5,1.1,1.1-.5,1.1-1.1,1.1"/>
  <path d="M83.3,14.2c-.3-1.5-1-2.8-2.2-3.8-1.2-.9-2.6-1.3-3.9-1.3-1.9,0-3.4.5-4.6,1.7-.7.7-1.3,1.5-1.6,2.4-.4,1.2-.4,2.4-.1,3.6.4,1.8,1.3,3.1,3,4,1.8.9,3.6,1,5.5.4,1.7-.5,3-1.6,3.7-3.3.5-1.2.6-2.5.4-3.8M77,16.5c-.6,0-1.1-.5-1.1-1.1s.5-1.1,1.1-1.1,1.1.5,1.1,1.1-.5,1.1-1.1,1.1"/>
  <path class="st0" d="M84.8,9.9h-.3c-.2,0-.4,0-.6-.2-.2-.1-.4-.3-.5-.5-.2-.3-.2-.7-.1-1.1s.3-.7.7-.9c.3-.2.7-.2,1.1-.1s.7.3.8.7c.2.4.3.8.2,1.4-.2,1.4-1.3,2.1-1.3,2.1v-1.3c0,0,0,0,0,0Z"/>
</svg>