<?xml version="1.0" encoding="UTF-8"?>
<svg id="Calque_1" data-name="Calque 1" xmlns="http://www.w3.org/2000/svg" viewBox="0 0 145.73 14.62">
  <defs>
    <style>
      .cls-1 {
        fill: #1e1e1c;
        stroke: #312a28;
        stroke-miterlimit: 10;
        stroke-width: .25px;
      }

      .cls-2, .cls-3 {
        stroke-width: 0px;
      }

      .cls-3 {
        fill: #d7ac05;
      }
    </style>
  </defs>
  <g>
    <path class="cls-2" d="m64.66,14.46v-1.41c-.1.11-.17.19-.23.27-.6.71-1.37,1.09-2.29,1.15-.79.05-1.56,0-2.3-.29-1.02-.4-1.61-1.19-1.95-2.2-.32-.94-.39-1.91-.39-2.9,0-2.12,0-4.24,0-6.36v-.16c1.58-.11,3.15-.22,4.75-.33v.22c0,2.17,0,4.33,0,6.49,0,.16,0,.32.03.48.14.8.93,1.1,1.59.62.31-.24.47-.55.47-.94,0-2.11.01-4.23.02-6.34v-.19c1.58-.11,3.15-.22,4.74-.33v11.87c-1.46.12-2.93.23-4.43.35"/>
    <path class="cls-2" d="m28.85,3.58c-.9,1.17-1.79,2.3-2.68,3.45-.11-.08-.22-.16-.33-.24-.8-.54-2.04-.45-2.74.21-.56.53-.73,1.18-.52,1.92.2.72.73,1.14,1.44,1.3.8.18,1.54.04,2.19-.51.87,1.21,1.73,2.42,2.62,3.66-.53.23-1.04.49-1.57.68-1.04.38-2.11.6-3.22.56-1.58-.06-3.04-.49-4.3-1.5-1.24-1-1.97-2.3-2.18-3.88-.18-1.31-.02-2.57.57-3.76.77-1.56,2.03-2.56,3.68-3.05,2.08-.61,4.11-.44,6.03.6.33.18.66.36,1.02.55"/>
    <path class="cls-2" d="m55.82,7.12c-.26-1.53-.98-2.81-2.23-3.76-1.21-.91-2.59-1.27-3.92-1.28-1.87,0-3.37.53-4.63,1.72-.72.69-1.32,1.46-1.62,2.43-.36,1.2-.39,2.42-.13,3.63.38,1.76,1.34,3.12,2.96,3.96,1.77.91,3.63,1,5.52.42,1.73-.53,2.97-1.64,3.66-3.32.51-1.23.61-2.51.39-3.81m-6.33,2.35c-.6,0-1.09-.49-1.09-1.08s.49-1.08,1.09-1.08,1.08.49,1.08,1.08-.48,1.08-1.08,1.08"/>
    <path class="cls-2" d="m41.54,6.68c0-.7-.07-1.4-.36-2.05-.41-.93-1.15-1.54-2.03-1.99-1.02-.52-2.12-.67-3.24-.7-1.45-.03-2.89.15-4.32.41-.11.02-.13.08-.16.17-.13.54-.27,1.09-.41,1.63-.11.45-.22.89-.34,1.36.07-.01.11-.02.15-.03,1.09-.25,2.2-.46,3.33-.46.47,0,.93.01,1.36.23.94.48,1.04,1.23.94,2.17-.22-.13-.44-.25-.65-.38-.98-.57-2.02-.85-3.16-.67-1.17.18-2.1.73-2.71,1.76-.52.88-.63,1.83-.47,2.82.4,2.5,2.72,3.94,5.14,3.41.94-.21,1.68-.76,2.33-1.44.05-.05.07-.11.11-.16.02.02.04.03.06.05v1.46h4.41v-.24c0-2.45.01-4.9.02-7.35m-6.51,4.36c-.6,0-1.08-.49-1.08-1.08s.48-1.08,1.08-1.08,1.08.49,1.08,1.08-.48,1.08-1.08,1.08"/>
    <path class="cls-2" d="m12.7,7.13c-.26-1.53-.98-2.81-2.23-3.76-1.21-.91-2.59-1.27-3.92-1.28-1.87,0-3.37.53-4.63,1.72-.72.69-1.32,1.46-1.62,2.43-.36,1.2-.39,2.42-.13,3.63.38,1.76,1.34,3.12,2.96,3.96,1.77.91,3.63,1,5.52.42,1.73-.53,2.97-1.64,3.66-3.32.51-1.23.61-2.51.39-3.81m-6.33,2.35c-.6,0-1.08-.49-1.08-1.08s.48-1.08,1.08-1.08,1.08.49,1.08,1.08-.48,1.08-1.08,1.08"/>
    <path class="cls-3" d="m14.18,2.81h-.26c-.2,0-.4-.06-.59-.17-.2-.11-.36-.27-.48-.49-.2-.35-.25-.71-.14-1.09.11-.38.34-.67.68-.87.35-.2.71-.25,1.09-.14.38.11.67.33.85.66.22.38.31.84.25,1.38-.17,1.36-1.33,2.06-1.33,2.06l-.08-1.34Z"/>
  </g>
  <g>
    <path class="cls-1" d="m82.45,10.25c.13-.55.27-1.11.27-1.47,0-.23-.07-.38-.25-.38-.8,0-1.88,1.97-2.48,3.06-.2.34-.35.61-.48.76-.07.1-.18.15-.3.11-.22-.08-.25-.36-.1-.99.07-.23.13-.48.22-.76.22-.69.45-1.47.45-1.95,0-.13-.03-.23-.08-.23-.99,0-2.31,2.72-2.93,4-.08.17-.15.33-.2.42-.07.13-.2.19-.33.15-.13-.06-.22-.25-.17-.4.08-.33.22-.84.37-1.51.18-.73.4-1.63.62-2.47.05-.15.2-.25.35-.19.13.06.22.23.18.38-.15.57-.28,1.09-.4,1.55.72-1.28,1.64-2.54,2.49-2.54.47,0,.63.34.63.86,0,.44-.13,1.03-.3,1.61.67-1.15,1.57-2.47,2.44-2.47.62,0,.82.4.82.99,0,.48-.15,1.07-.3,1.66-.13.55-.29,1.09-.29,1.47,0,.21.07.36.27.36,1.09,0,3.55-3.25,3.55-3.27.1-.13.27-.13.38-.02.12.12.13.31.04.44,0,.02-2.63,3.48-3.95,3.48-.62,0-.82-.4-.82-1.01,0-.46.15-1.05.3-1.64Z"/>
    <path class="cls-1" d="m92.85,9.59c-.47.21-1.05.36-1.62.48-.79.17-1.54.23-1.92.25-.13.34-.29.69-.47,1.03-.22.4-.45.8-.72,1.11-.28.34-.59.57-.87.69-.23.09-.47.11-.69.04-.22-.08-.4-.27-.54-.54-.12-.27-.2-.63-.22-1.09-.02-.9.23-1.68.6-2.31.45-.75,1.11-1.26,1.66-1.4.15-.04.3.08.33.23v.12c.22-.06.44-.04.64.04.12.06.23.15.33.27.08.12.15.27.18.42.05.23.05.48-.02.75.38-.02.97-.08,1.59-.21.54-.12,1.07-.27,1.51-.46.15-.06.3.02.37.17.05.17,0,.34-.15.42Zm-4.13.67c-.38-.08-.65-.25-.82-.44-.13-.15-.2-.33-.23-.5s-.02-.36.05-.52c.03-.06.05-.11.1-.17-.33.19-.67.54-.95.98-.3.54-.52,1.18-.5,1.95,0,.36.07.63.15.8.05.11.13.19.22.23.08.02.2.02.33-.04.2-.08.44-.25.65-.52.23-.29.45-.65.65-1.03.12-.23.23-.5.35-.75Zm.32-1.19c-.02-.06-.05-.11-.08-.17-.03-.04-.07-.08-.12-.1-.08-.02-.17-.04-.29,0-.17.06-.29.15-.33.27-.02.06-.03.12-.02.15,0,.06.03.11.08.15.12.13.33.25.65.29.02-.04.03-.08.05-.11.07-.19.08-.34.05-.48Z"/>
    <path class="cls-1" d="m93.17,8.78c-.15.57-.29,1.09-.38,1.55.7-1.28,1.62-2.54,2.48-2.54.62,0,.84.4.84.99,0,.48-.15,1.07-.3,1.66-.15.55-.28,1.09-.28,1.47,0,.21.07.36.25.36,1.09,0,3.57-3.25,3.57-3.27.1-.13.27-.13.38-.02.12.12.13.31.03.44-.02.02-2.63,3.48-3.97,3.48-.6,0-.8-.4-.8-1.01,0-.46.13-1.05.29-1.64.15-.55.29-1.11.29-1.47,0-.23-.07-.38-.27-.38-.99,0-2.29,2.72-2.93,4-.08.17-.15.33-.2.42-.07.13-.2.19-.32.15-.15-.06-.23-.25-.18-.4.08-.33.22-.84.38-1.51.17-.73.38-1.63.6-2.47.05-.15.2-.25.35-.19.13.06.22.23.18.38Z"/>
    <path class="cls-1" d="m106.56,11.78c-.54.73-1.11,1.32-1.54,1.42-.05,0-.08.02-.13.02-.15,0-.3-.06-.4-.17-.1-.12-.17-.25-.2-.44-.02-.06-.02-.13-.02-.19-.05-1.97.79-3.48,1.61-4.19.25-.19.5-.34.74-.4.25-.08.5-.08.7.06.17.08.3.23.38.42.4-1.55.89-3.27,1.37-4.68.62-1.78,1.29-3.12,1.92-3.25.08-.02.15,0,.23.02.27.11.32.48.22,1.01-.07.38-.22.9-.42,1.47-.62,1.76-1.72,4.24-2.53,5.83-.27.86-1.09,3.58-.4,3.58,1.09,0,3.55-3.25,3.55-3.27.1-.13.27-.13.39-.02.12.12.13.31.03.44,0,.02-2.63,3.48-3.95,3.48-.87,0-.82-1.32-.6-2.56-.29.48-.62.98-.96,1.43Zm-.42-.42c.47-.63.94-1.4,1.32-2.05v-.04c-.12-.04-.18-.15-.18-.29,0-.31-.08-.5-.19-.56-.08-.06-.2-.06-.33-.02-.17.06-.35.17-.55.33-.72.61-1.44,1.93-1.39,3.67v.09s.02.08.02.08h.08c.3-.1.75-.59,1.22-1.22Zm2.39-4.02c.7-1.49,1.49-3.33,1.98-4.72.15-.42.27-.8.35-1.11.02-.08.25-.86-.22-.11-.02.04-.03.08-.07.11-.3.52-.65,1.36-.99,2.35-.37,1.05-.74,2.28-1.05,3.48Z"/>
    <path class="cls-1" d="m117.99,9.59c-.47.21-1.05.36-1.62.48-.79.17-1.54.23-1.92.25-.13.34-.29.69-.47,1.03-.22.4-.45.8-.72,1.11-.28.34-.59.57-.87.69-.23.09-.47.11-.69.04-.22-.08-.4-.27-.54-.54-.12-.27-.2-.63-.22-1.09-.02-.9.23-1.68.6-2.31.45-.75,1.11-1.26,1.66-1.4.15-.04.3.08.33.23v.12c.22-.06.44-.04.64.04.12.06.23.15.33.27.08.12.15.27.18.42.05.23.05.48-.02.75.38-.02.97-.08,1.59-.21.54-.12,1.07-.27,1.51-.46.15-.06.3.02.37.17.05.17,0,.34-.15.42Zm-4.13.67c-.38-.08-.65-.25-.82-.44-.13-.15-.2-.33-.23-.5s-.02-.36.05-.52c.03-.06.05-.11.1-.17-.33.19-.67.54-.95.98-.3.54-.52,1.18-.5,1.95,0,.36.07.63.15.8.05.11.13.19.22.23.08.02.2.02.33-.04.2-.08.44-.25.65-.52.23-.29.45-.65.65-1.03.12-.23.23-.5.35-.75Zm.32-1.19c-.02-.06-.05-.11-.08-.17-.03-.04-.07-.08-.12-.1-.08-.02-.17-.04-.29,0-.17.06-.29.15-.33.27-.02.06-.03.12-.02.15,0,.06.03.11.08.15.12.13.33.25.65.29.02-.04.03-.08.05-.11.07-.19.08-.34.05-.48Z"/>
    <path class="cls-1" d="m118.46,8.44c.05-.1-1.14,3.48-.49,3.84,1.07,0,3.43-3.54,3.43-3.54.1-.13.27-.15.38-.06.1.1.13.25.08.38-.17.59-.38,1.45-.47,2.18-.05.57-.03,1.03.19,1.03,1.09,0,3.55-3.25,3.55-3.27.1-.13.27-.13.39-.02.12.12.13.31.03.44,0,.02-2.61,3.48-3.95,3.48-.7,0-.84-.78-.74-1.76.03-.27.07-.55.13-.84-.85,1.09-2.16,2.6-3.01,2.6-1.62,0-.05-4.7-.03-4.7.05-.17.2-.25.35-.17.13.06.2.25.15.4Z"/>
    <path class="cls-1" d="m126.54,11.78c-.54.73-1.11,1.32-1.54,1.42-.05,0-.08.02-.13.02-.15,0-.3-.06-.4-.17-.1-.12-.17-.25-.2-.44-.02-.06-.02-.13-.02-.19-.05-1.97.79-3.48,1.61-4.19.25-.19.5-.34.74-.4.25-.08.5-.08.7.06.17.08.3.23.38.42.4-1.55.89-3.27,1.37-4.68.62-1.78,1.29-3.12,1.93-3.25.08-.02.15,0,.23.02.27.11.32.48.22,1.01-.07.38-.22.9-.42,1.47-.62,1.76-1.72,4.24-2.53,5.83-.27.86-1.09,3.58-.4,3.58,1.09,0,3.55-3.25,3.55-3.27.1-.13.27-.13.38-.02.12.12.13.31.03.44,0,.02-2.63,3.48-3.95,3.48-.87,0-.82-1.32-.6-2.56-.29.48-.62.98-.95,1.43Zm-.42-.42c.47-.63.94-1.4,1.32-2.05v-.04c-.12-.04-.18-.15-.18-.29,0-.31-.08-.5-.18-.56-.08-.06-.2-.06-.34-.02-.17.06-.35.17-.55.33-.72.61-1.44,1.93-1.39,3.67v.09s.02.08.02.08h.08c.3-.1.75-.59,1.22-1.22Zm2.39-4.02c.7-1.49,1.49-3.33,1.97-4.72.15-.42.27-.8.35-1.11.02-.08.25-.86-.22-.11-.02.04-.03.08-.07.11-.3.52-.65,1.36-.99,2.35-.37,1.05-.74,2.28-1.05,3.48Z"/>
    <path class="cls-1" d="m137.98,9.59c-.47.21-1.05.36-1.62.48-.79.17-1.54.23-1.93.25-.13.34-.28.69-.47,1.03-.22.4-.45.8-.72,1.11-.29.34-.59.57-.87.69-.23.09-.47.11-.69.04-.22-.08-.4-.27-.54-.54-.12-.27-.2-.63-.22-1.09-.02-.9.23-1.68.6-2.31.45-.75,1.1-1.26,1.66-1.4.15-.04.3.08.34.23v.12c.22-.06.43-.04.63.04.12.06.23.15.34.27.08.12.15.27.18.42.05.23.05.48-.02.75.38-.02.97-.08,1.59-.21.54-.12,1.07-.27,1.51-.46.15-.06.3.02.37.17.05.17,0,.34-.15.42Zm-4.13.67c-.38-.08-.65-.25-.82-.44-.13-.15-.2-.33-.23-.5-.03-.17-.02-.36.05-.52.03-.06.05-.11.1-.17-.34.19-.67.54-.96.98-.3.54-.52,1.18-.5,1.95,0,.36.07.63.15.8.05.11.13.19.22.23.08.02.2.02.33-.04.2-.08.44-.25.65-.52.23-.29.45-.65.65-1.03.12-.23.23-.5.35-.75Zm.32-1.19c-.02-.06-.05-.11-.08-.17-.03-.04-.07-.08-.12-.1-.08-.02-.17-.04-.28,0-.17.06-.29.15-.34.27-.02.06-.03.12-.02.15,0,.06.03.11.08.15.12.13.33.25.65.29.02-.04.03-.08.05-.11.07-.19.08-.34.05-.48Z"/>
    <path class="cls-1" d="m138.45,8.44c.05-.1-1.14,3.48-.48,3.84,1.07,0,3.43-3.54,3.43-3.54.1-.13.27-.15.38-.06.1.1.13.25.08.38-.17.59-.38,1.45-.47,2.18-.05.57-.03,1.03.18,1.03,1.09,0,3.55-3.25,3.55-3.27.1-.13.27-.13.38-.02.12.12.13.31.03.44,0,.02-2.61,3.48-3.95,3.48-.7,0-.84-.78-.74-1.76.03-.27.07-.55.13-.84-.85,1.09-2.16,2.6-3.01,2.6-1.62,0-.05-4.7-.03-4.7.05-.17.2-.25.35-.17.13.06.2.25.15.4Z"/>
  </g>
</svg>