<?xml version="1.0" encoding="UTF-8"?>
<svg id="Calque_1" xmlns="http://www.w3.org/2000/svg" version="1.1" viewBox="0 0 140 29.8">
  <!-- Generator: Adobe Illustrator 29.0.1, SVG Export Plug-In . SVG Version: 2.1.0 Build 192)  -->
  <defs>
    <style>
      .st0 {
        fill: #d7ac05;
      }

      .st1 {
        fill: #1e1e1c;
        stroke: #312a28;
        stroke-miterlimit: 10;
        stroke-width: .2px;
      }
    </style>
  </defs>
  <g>
    <path d="M64.7,22v-1.4c0,.1-.2.2-.2.3-.6.7-1.4,1.1-2.3,1.1-.8,0-1.6,0-2.3-.3-1-.4-1.6-1.2-2-2.2-.3-.9-.4-1.9-.4-2.9v-6.5c1.6-.1,3.2-.2,4.8-.3v6.7c0,.2,0,.3,0,.5.1.8.9,1.1,1.6.6.3-.2.5-.6.5-.9,0-2.1,0-4.2,0-6.3v-.2c1.6-.1,3.2-.2,4.7-.3v11.9c-1.5.1-2.9.2-4.4.4"/>
    <path d="M28.9,11.2c-.9,1.2-1.8,2.3-2.7,3.4-.1,0-.2-.2-.3-.2-.8-.5-2-.4-2.7.2-.6.5-.7,1.2-.5,1.9.2.7.7,1.1,1.4,1.3.8.2,1.5,0,2.2-.5.9,1.2,1.7,2.4,2.6,3.7-.5.2-1,.5-1.6.7-1,.4-2.1.6-3.2.6-1.6,0-3-.5-4.3-1.5-1.2-1-2-2.3-2.2-3.9-.2-1.3,0-2.6.6-3.8.8-1.6,2-2.6,3.7-3,2.1-.6,4.1-.4,6,.6.3.2.7.4,1,.5"/>
    <path d="M55.8,14.7c-.3-1.5-1-2.8-2.2-3.8-1.2-.9-2.6-1.3-3.9-1.3-1.9,0-3.4.5-4.6,1.7-.7.7-1.3,1.5-1.6,2.4-.4,1.2-.4,2.4-.1,3.6.4,1.8,1.3,3.1,3,4,1.8.9,3.6,1,5.5.4,1.7-.5,3-1.6,3.7-3.3.5-1.2.6-2.5.4-3.8M49.5,17c-.6,0-1.1-.5-1.1-1.1s.5-1.1,1.1-1.1,1.1.5,1.1,1.1-.5,1.1-1.1,1.1"/>
    <path d="M41.5,14.3c0-.7,0-1.4-.4-2-.4-.9-1.2-1.5-2-2-1-.5-2.1-.7-3.2-.7-1.5,0-2.9.2-4.3.4-.1,0-.1,0-.2.2-.1.5-.3,1.1-.4,1.6-.1.4-.2.9-.3,1.4,0,0,.1,0,.1,0,1.1-.2,2.2-.5,3.3-.5s.9,0,1.4.2c.9.5,1,1.2.9,2.2-.2-.1-.4-.2-.7-.4-1-.6-2-.8-3.2-.7-1.2.2-2.1.7-2.7,1.8-.5.9-.6,1.8-.5,2.8.4,2.5,2.7,3.9,5.1,3.4.9-.2,1.7-.8,2.3-1.4,0,0,0-.1.1-.2,0,0,0,0,0,0v1.5h4.4v-.2c0-2.4,0-4.9,0-7.3M35,18.6c-.6,0-1.1-.5-1.1-1.1s.5-1.1,1.1-1.1,1.1.5,1.1,1.1-.5,1.1-1.1,1.1"/>
    <path d="M12.7,14.7c-.3-1.5-1-2.8-2.2-3.8-1.2-.9-2.6-1.3-3.9-1.3-1.9,0-3.4.5-4.6,1.7-.7.7-1.3,1.5-1.6,2.4-.4,1.2-.4,2.4-.1,3.6.4,1.8,1.3,3.1,3,4,1.8.9,3.6,1,5.5.4,1.7-.5,3-1.6,3.7-3.3.5-1.2.6-2.5.4-3.8M6.4,17c-.6,0-1.1-.5-1.1-1.1s.5-1.1,1.1-1.1,1.1.5,1.1,1.1-.5,1.1-1.1,1.1"/>
    <path class="st0" d="M14.2,10.4h-.3c-.2,0-.4,0-.6-.2-.2-.1-.4-.3-.5-.5-.2-.4-.2-.7-.1-1.1s.3-.7.7-.9c.4-.2.7-.2,1.1-.1s.7.3.9.7c.2.4.3.8.2,1.4-.2,1.4-1.3,2.1-1.3,2.1v-1.3c0,0,0,0,0,0Z"/>
  </g>
  <g>
    <path class="st1" d="M81.9,18.1c.1-.5.2-1,.2-1.4s0-.3-.2-.3c-.7,0-1.7,1.8-2.3,2.8-.2.3-.3.6-.4.7,0,0-.2.1-.3.1-.2,0-.2-.3,0-.9,0-.2.1-.4.2-.7.2-.6.4-1.4.4-1.8s0-.2,0-.2c-.9,0-2.1,2.5-2.7,3.7,0,.2-.1.3-.2.4,0,.1-.2.2-.3.1-.1,0-.2-.2-.2-.4,0-.3.2-.8.3-1.4.2-.7.4-1.5.6-2.3,0-.1.2-.2.3-.2.1,0,.2.2.2.3-.1.5-.3,1-.4,1.4.7-1.2,1.5-2.3,2.3-2.3s.6.3.6.8-.1.9-.3,1.5c.6-1.1,1.4-2.3,2.2-2.3s.8.4.8.9-.1,1-.3,1.5c-.1.5-.3,1-.3,1.4s0,.3.2.3c1,0,3.3-3,3.3-3,0-.1.2-.1.3,0,.1.1.1.3,0,.4,0,0-2.4,3.2-3.6,3.2s-.8-.4-.8-.9.1-1,.3-1.5h0Z"/>
    <path class="st1" d="M91.5,17.5c-.4.2-1,.3-1.5.4-.7.2-1.4.2-1.8.2-.1.3-.3.6-.4.9-.2.4-.4.7-.7,1-.3.3-.5.5-.8.6-.2,0-.4.1-.6,0-.2,0-.4-.2-.5-.5-.1-.2-.2-.6-.2-1,0-.8.2-1.5.6-2.1.4-.7,1-1.2,1.5-1.3.1,0,.3,0,.3.2h0c.2,0,.4,0,.6.1.1,0,.2.1.3.2,0,.1.1.2.2.4,0,.2,0,.4,0,.7.3,0,.9,0,1.5-.2.5-.1,1-.2,1.4-.4.1,0,.3,0,.3.2,0,.2,0,.3-.1.4h0ZM87.7,18.1c-.3,0-.6-.2-.8-.4-.1-.1-.2-.3-.2-.5s0-.3,0-.5c0,0,0-.1,0-.2-.3.2-.6.5-.9.9-.3.5-.5,1.1-.5,1.8,0,.3,0,.6.1.7,0,.1.1.2.2.2,0,0,.2,0,.3,0,.2,0,.4-.2.6-.5.2-.3.4-.6.6-.9.1-.2.2-.5.3-.7h0ZM88,17c0,0,0-.1,0-.2,0,0,0,0-.1,0,0,0-.2,0-.3,0-.2,0-.3.1-.3.2,0,0,0,.1,0,.1,0,0,0,.1,0,.1.1.1.3.2.6.3,0,0,0,0,0-.1,0-.2,0-.3,0-.4h0Z"/>
    <path class="st1" d="M91.8,16.7c-.1.5-.3,1-.3,1.4.6-1.2,1.5-2.3,2.3-2.3s.8.4.8.9-.1,1-.3,1.5c-.1.5-.3,1-.3,1.4s0,.3.2.3c1,0,3.3-3,3.3-3,0-.1.2-.1.3,0,.1.1.1.3,0,.4,0,0-2.4,3.2-3.6,3.2s-.7-.4-.7-.9.1-1,.3-1.5c.1-.5.3-1,.3-1.4s0-.3-.2-.3c-.9,0-2.1,2.5-2.7,3.7,0,.2-.1.3-.2.4,0,.1-.2.2-.3.1-.1,0-.2-.2-.2-.4,0-.3.2-.8.3-1.4.2-.7.3-1.5.6-2.3,0-.1.2-.2.3-.2.1,0,.2.2.2.3h0Z"/>
    <path class="st1" d="M104.1,19.5c-.5.7-1,1.2-1.4,1.3,0,0,0,0-.1,0-.1,0-.3,0-.4-.2,0-.1-.2-.2-.2-.4,0,0,0-.1,0-.2,0-1.8.7-3.2,1.5-3.9.2-.2.5-.3.7-.4.2,0,.5,0,.6,0,.2,0,.3.2.3.4.4-1.4.8-3,1.3-4.3.6-1.6,1.2-2.9,1.8-3,0,0,.1,0,.2,0,.2.1.3.4.2.9,0,.3-.2.8-.4,1.4-.6,1.6-1.6,3.9-2.3,5.4-.2.8-1,3.3-.4,3.3,1,0,3.3-3,3.3-3,0-.1.2-.1.4,0,.1.1.1.3,0,.4,0,0-2.4,3.2-3.6,3.2s-.8-1.2-.6-2.4c-.3.4-.6.9-.9,1.3h0ZM103.7,19.1c.4-.6.9-1.3,1.2-1.9h0c-.1,0-.2-.2-.2-.3,0-.3,0-.5-.2-.5,0,0-.2,0-.3,0-.2,0-.3.2-.5.3-.7.6-1.3,1.8-1.3,3.4h0c0,0,0,.2,0,.2h0c.3,0,.7-.5,1.1-1.1h0ZM105.9,15.4c.6-1.4,1.4-3.1,1.8-4.3.1-.4.2-.7.3-1,0,0,.2-.8-.2-.1,0,0,0,0,0,.1-.3.5-.6,1.2-.9,2.2-.3,1-.7,2.1-1,3.2Z"/>
    <path class="st1" d="M114.6,17.5c-.4.2-1,.3-1.5.4-.7.2-1.4.2-1.8.2-.1.3-.3.6-.4.9-.2.4-.4.7-.7,1-.3.3-.5.5-.8.6-.2,0-.4.1-.6,0-.2,0-.4-.2-.5-.5-.1-.2-.2-.6-.2-1,0-.8.2-1.5.6-2.1.4-.7,1-1.2,1.5-1.3.1,0,.3,0,.3.2h0c.2,0,.4,0,.6.1.1,0,.2.1.3.2,0,.1.1.2.2.4,0,.2,0,.4,0,.7.3,0,.9,0,1.5-.2.5-.1,1-.2,1.4-.4.1,0,.3,0,.3.2,0,.2,0,.3-.1.4h0ZM110.8,18.1c-.3,0-.6-.2-.8-.4-.1-.1-.2-.3-.2-.5s0-.3,0-.5c0,0,0-.1,0-.2-.3.2-.6.5-.9.9-.3.5-.5,1.1-.5,1.8,0,.3,0,.6.1.7,0,.1.1.2.2.2,0,0,.2,0,.3,0,.2,0,.4-.2.6-.5.2-.3.4-.6.6-.9.1-.2.2-.5.3-.7h0ZM111.1,17c0,0,0-.1,0-.2,0,0,0,0-.1,0,0,0-.2,0-.3,0-.2,0-.3.1-.3.2,0,0,0,.1,0,.1,0,0,0,.1,0,.1.1.1.3.2.6.3,0,0,0,0,0-.1,0-.2,0-.3,0-.4h0Z"/>
    <path class="st1" d="M115,16.4c0,0-1,3.2-.5,3.5,1,0,3.2-3.3,3.2-3.3,0-.1.2-.1.3,0,0,0,.1.2,0,.3-.2.5-.3,1.3-.4,2,0,.5,0,.9.2.9,1,0,3.3-3,3.3-3,0-.1.2-.1.4,0,.1.1.1.3,0,.4,0,0-2.4,3.2-3.6,3.2s-.8-.7-.7-1.6c0-.2,0-.5.1-.8-.8,1-2,2.4-2.8,2.4-1.5,0,0-4.3,0-4.3,0-.2.2-.2.3-.2.1,0,.2.2.1.4h0Z"/>
    <path class="st1" d="M122.4,19.5c-.5.7-1,1.2-1.4,1.3,0,0,0,0-.1,0-.1,0-.3,0-.4-.2,0-.1-.2-.2-.2-.4,0,0,0-.1,0-.2,0-1.8.7-3.2,1.5-3.9.2-.2.5-.3.7-.4.2,0,.5,0,.6,0,.2,0,.3.2.3.4.4-1.4.8-3,1.3-4.3.6-1.6,1.2-2.9,1.8-3,0,0,.1,0,.2,0,.2.1.3.4.2.9,0,.3-.2.8-.4,1.4-.6,1.6-1.6,3.9-2.3,5.4-.2.8-1,3.3-.4,3.3,1,0,3.3-3,3.3-3,0-.1.2-.1.3,0,.1.1.1.3,0,.4,0,0-2.4,3.2-3.6,3.2s-.8-1.2-.6-2.4c-.3.4-.6.9-.9,1.3h0ZM122.1,19.1c.4-.6.9-1.3,1.2-1.9h0c-.1,0-.2-.2-.2-.3,0-.3,0-.5-.2-.5,0,0-.2,0-.3,0-.2,0-.3.2-.5.3-.7.6-1.3,1.8-1.3,3.4h0c0,0,0,.2,0,.2h0c.3,0,.7-.5,1.1-1.1h0ZM124.3,15.4c.6-1.4,1.4-3.1,1.8-4.3.1-.4.2-.7.3-1,0,0,.2-.8-.2-.1,0,0,0,0,0,.1-.3.5-.6,1.2-.9,2.2-.3,1-.7,2.1-1,3.2h0Z"/>
    <path class="st1" d="M133,17.5c-.4.2-1,.3-1.5.4-.7.2-1.4.2-1.8.2-.1.3-.3.6-.4.9-.2.4-.4.7-.7,1-.3.3-.5.5-.8.6-.2,0-.4.1-.6,0-.2,0-.4-.2-.5-.5-.1-.2-.2-.6-.2-1,0-.8.2-1.5.6-2.1.4-.7,1-1.2,1.5-1.3.1,0,.3,0,.3.2h0c.2,0,.4,0,.6.1.1,0,.2.1.3.2,0,.1.1.2.2.4,0,.2,0,.4,0,.7.3,0,.9,0,1.5-.2.5-.1,1-.2,1.4-.4.1,0,.3,0,.3.2,0,.2,0,.3-.1.4h0ZM129.2,18.1c-.3,0-.6-.2-.8-.4-.1-.1-.2-.3-.2-.5s0-.3,0-.5c0,0,0-.1,0-.2-.3.2-.6.5-.9.9-.3.5-.5,1.1-.5,1.8,0,.3,0,.6.1.7,0,.1.1.2.2.2,0,0,.2,0,.3,0,.2,0,.4-.2.6-.5.2-.3.4-.6.6-.9.1-.2.2-.5.3-.7h0ZM129.5,17c0,0,0-.1,0-.2,0,0,0,0-.1,0,0,0-.2,0-.3,0-.2,0-.3.1-.3.2,0,0,0,.1,0,.1,0,0,0,.1,0,.1.1.1.3.2.6.3,0,0,0,0,0-.1,0-.2,0-.3,0-.4h0Z"/>
    <path class="st1" d="M133.4,16.4c0,0-1,3.2-.4,3.5,1,0,3.2-3.3,3.2-3.3,0-.1.2-.1.3,0,0,0,.1.2,0,.3-.2.5-.3,1.3-.4,2,0,.5,0,.9.2.9,1,0,3.3-3,3.3-3,0-.1.2-.1.3,0,.1.1.1.3,0,.4,0,0-2.4,3.2-3.6,3.2s-.8-.7-.7-1.6c0-.2,0-.5.1-.8-.8,1-2,2.4-2.8,2.4-1.5,0,0-4.3,0-4.3,0-.2.2-.2.3-.2.1,0,.2.2.1.4h0Z"/>
  </g>
</svg>