<?xml version="1.0" encoding="UTF-8"?>
<svg id="Calque_1" data-name="Calque 1" xmlns="http://www.w3.org/2000/svg" viewBox="0 0 63.06 15.29">
  <defs>
    <style>
      .cls-1 {
        fill: #1d1d1b;
        stroke-width: 0px;
      }
    </style>
  </defs>
  <g>
    <g>
      <path class="cls-1" d="m28.65,14.31h-11.47s5.77-10.65,5.77-10.65l5.7,10.65Zm-10.46-.6h9.46s-4.7-8.78-4.7-8.78l-4.76,8.78Z"/>
      <rect class="cls-1" x="22.62" y="3.7" width=".6" height="12.93" transform="translate(-.52 19.08) rotate(-44.74)"/>
      <rect class="cls-1" x="16.45" y="9.86" width="12.93" height=".6" transform="translate(-.44 19.28) rotate(-45.24)"/>
    </g>
    <g>
      <path class="cls-1" d="m43.83,14.44h-11.03s0-11.03,0-11.03h11.03s0,11.03,0,11.03Zm-10.43-.6h9.83s0-9.83,0-9.83h-9.83s0,9.83,0,9.83Z"/>
      <path class="cls-1" d="m38.31,14.23c-2.93,0-5.31-2.38-5.31-5.31s2.38-5.31,5.31-5.31,5.31,2.38,5.31,5.31-2.38,5.31-5.31,5.31Zm0-10.03c-2.6,0-4.71,2.11-4.71,4.71s2.11,4.71,4.71,4.71,4.71-2.11,4.71-4.71-2.11-4.71-4.71-4.71Z"/>
      <rect class="cls-1" x="38.01" y=".92" width=".6" height="16" transform="translate(8.96 35.1) rotate(-54.84)"/>
      <rect class="cls-1" x="30.31" y="8.62" width="16" height=".6" transform="translate(1.85 23.68) rotate(-35.14)"/>
    </g>
    <g>
      <path class="cls-1" d="m47.31,14.24l.18-.42c.03-.07.8-1.85,2.74-4.2,1.27-1.54,3.78-1.3,3.88-1.29l6.75-.08-.7-2.6h-8.36v-.6h8.82s2.43,9.1,2.43,9.1l-15.75.09Zm6.36-5.32c-.72,0-2.18.13-2.97,1.08-1.34,1.62-2.11,2.98-2.45,3.63l14.03-.08-1.26-4.7-6.94.08s-.17-.02-.42-.02Z"/>
      <rect class="cls-1" x="55.32" y="3.73" width=".6" height="14.86" transform="translate(18.22 53.8) rotate(-60.09)"/>
      <rect class="cls-1" x="48.19" y="11.03" width="14.86" height=".6" transform="translate(1.76 29.25) rotate(-29.92)"/>
    </g>
  </g>
  <g>
    <path class="cls-1" d="m15.49,3.79l-.73,2.2c-.21-.12-.4-.27-.59-.43-.39-.33-.83-.7-1.54-.83,0,.05-.01.09-.02.14-.04.15-.07.29-.12.44.57.09.91.38,1.3.7.23.2.47.4.78.56l-2.36,7.08H3.85S1.55,6.74,1.55,6.74c.49-.17.83-.44,1.16-.72.47-.4.87-.74,1.72-.74.59,0,.97.17,1.3.4.1-.17.21-.33.32-.5-.39-.27-.88-.5-1.62-.5-1.06,0-1.62.47-2.1.88-.29.25-.58.48-.96.61l-.79-2.38-.56.19,3.42,10.27h9.21s3.42-10.27,3.42-10.27l-.56-.19Z"/>
    <path class="cls-1" d="m8.31.24s-1.48.93-2.96,1.42c-1.23.41-1.54.06-1.54.86,0,.45.8.74,1.42.68s1.3-.37,1.42.19.31,1.05.06,1.54-1.73,2.96-1.79,3.52.19.62.56.68,1.79-3.14,1.98-3.09c.31.09.03.52-.4,1.76-.36,1.04-.52,1.2-.65,1.82s.37.8.37.8c0,0,.43.25.9-1.11.33-.98,1.08-3.07,1.3-3.02.28.06.06.59-.28,1.67-.26.82-.68,1.98-.68,1.98,0,0-.19.86.43.86.49,0,1.42-3.09,1.42-3.09,0,0,.47-1.4.65-1.36.37.09-.15,1.36-.34,1.91s-.15.8.28.93.83-1.2,1.08-2.07.74-2.81.93-3.43-.12-1.79-.49-2.35-2.01-1.88-3.64-1.11Z"/>
  </g>
</svg>