<?xml version="1.0" encoding="utf-8"?>
<!-- Generator: Adobe Illustrator 28.0.0, SVG Export Plug-In . SVG Version: 6.00 Build 0)  -->
<svg version="1.1" id="Calque_1" xmlns="http://www.w3.org/2000/svg" xmlns:xlink="http://www.w3.org/1999/xlink" x="0px" y="0px"
	 viewBox="0 0 50 50" style="enable-background:new 0 0 50 50;" xml:space="preserve">
<style type="text/css">
	.st0{fill:#D6B8A2;}
	.st1{clip-path:url(#SVGID_00000023276642377827962170000007187943255899042231_);}
</style>
<path class="st0" d="M25,50C11.2,50,0,38.8,0,25S11.2,0,25,0s25,11.2,25,25S38.8,50,25,50z M25,2C12.3,2,2,12.3,2,25
	c0,12.7,10.3,23,23,23c12.7,0,23-10.3,23-23C48,12.3,37.7,2,25,2z"/>
<g>
	<defs>
		<rect id="SVGID_1_" y="7" width="50" height="41"/>
	</defs>
	<clipPath id="SVGID_00000067922873936839619220000005101028194121028015_">
		<use xlink:href="#SVGID_1_"  style="overflow:visible;"/>
	</clipPath>
	<g style="clip-path:url(#SVGID_00000067922873936839619220000005101028194121028015_);">
		<path class="st0" d="M23.4,22.2c0-0.9,0.7-1.6,1.6-1.6s1.6,0.7,1.6,1.6s-0.7,1.6-1.6,1.6S23.4,23,23.4,22.2z M29.7,8h-1.6
			c-0.9,0-1.6,0.7-1.6,1.6v1.6h-3.1V9.6c0-0.9-0.7-1.6-1.6-1.6h-1.6c-2.6,0-4.7,2.1-4.7,4.7v40.9c0,2.6,2.1,4.7,4.7,4.7h9.4
			c2.6,0,4.7-2.1,4.7-4.7V12.7C34.4,10.1,32.3,8,29.7,8z M23.2,12.7h3.7l1.8,8.8c0.2,0.9-0.1,1.9-0.6,2.6c-0.6,0.7-1.5,1.2-2.4,1.2
			h-1.1c-0.9,0-1.8-0.4-2.4-1.2c-0.6-0.7-0.8-1.7-0.6-2.6L23.2,12.7z M26.6,56.8h-6.2c-1.7,0-3.1-1.4-3.1-3.2V12.7
			c0-1.7,1.4-3.2,3.1-3.2h1.6v2.3c-0.1,0.2-0.2,0.4-0.3,0.6l-1.8,8.8c-0.4,2,0.5,3.8,2,4.8v2.4c0,0.9,0.7,1.6,1.6,1.6h3.1v1.6h-3.1
			c-0.9,0-1.6,0.7-1.6,1.6v1.6c0,0.9,0.7,1.6,1.6,1.6h3.1v1.6h-3.1c-0.9,0-1.6,0.7-1.6,1.6v1.6c0,0.9,0.7,1.6,1.6,1.6h3.1v1.6h-3.1
			c-0.9,0-1.6,0.7-1.6,1.6v1.6c0,0.9,0.7,1.6,1.6,1.6h3.1v1.6h-3.1c-0.9,0-1.6,0.7-1.6,1.6v1.6c0,0.9,0.7,1.6,1.6,1.6h3.1L26.6,56.8
			z M32.8,53.7c0,1.7-1.4,3.2-3.1,3.2h-1.6v-1.6c0-0.9-0.7-1.6-1.6-1.6h-3.1v-1.6h3.1c0.9,0,1.6-0.7,1.6-1.6V49
			c0-0.9-0.7-1.6-1.6-1.6h-3.1v-1.6h3.1c0.9,0,1.6-0.7,1.6-1.6v-1.6c0-0.9-0.7-1.6-1.6-1.6h-3.1v-1.6h3.1c0.9,0,1.6-0.7,1.6-1.6
			v-1.6c0-0.9-0.7-1.6-1.6-1.6h-3.1v-1.6h3.1c0.9,0,1.6-0.7,1.6-1.6V30c0-0.9-0.7-1.6-1.6-1.6h-3.1v-1.7c0.3,0.1,0.7,0.1,1,0.1h1.1
			c3,0,5.2-2.7,4.6-5.7l-1.8-8.8c0-0.2-0.1-0.4-0.2-0.6V9.6h1.6c1.7,0,3.1,1.4,3.1,3.2V53.7z"/>
	</g>
</g>
</svg>
