<?xml version="1.0" encoding="utf-8"?>
<!-- Generator: Adobe Illustrator 28.0.0, SVG Export Plug-In . SVG Version: 6.00 Build 0)  -->
<svg version="1.1" id="Calque_1" xmlns="http://www.w3.org/2000/svg" xmlns:xlink="http://www.w3.org/1999/xlink" x="0px" y="0px"
	 viewBox="0 0 50 50" style="enable-background:new 0 0 50 50;" xml:space="preserve">
<style type="text/css">
	.st0{fill:#D6B8A2;}
	.st1{clip-path:url(#SVGID_00000090281323732043399360000003773102549815815311_);}
</style>
<path class="st0" d="M25,50C11.2,50,0,38.8,0,25S11.2,0,25,0s25,11.2,25,25S38.8,50,25,50z M25,2C12.3,2,2,12.3,2,25
	c0,12.7,10.3,23,23,23c12.7,0,23-10.3,23-23C48,12.3,37.7,2,25,2z"/>
<g>
	<defs>
		<rect id="SVGID_1_" x="-7" y="-15" width="64" height="80"/>
	</defs>
	<clipPath id="SVGID_00000048491829899041720750000008775541465818242971_">
		<use xlink:href="#SVGID_1_"  style="overflow:visible;"/>
	</clipPath>
	<g style="clip-path:url(#SVGID_00000048491829899041720750000008775541465818242971_);">
		<path class="st0" d="M33.8,39.7V10.3c0-2-1.6-3.7-3.7-3.7h-0.4H17c-0.4,0-0.8,0.3-0.8,0.8v3c0,1.3,0.6,2.5,1.7,3.3
			c0.7,0.5,1,1.2,1,2v4.6c-0.6,0.5-0.9,1.2-0.9,1.9v1c0,0.7,0.3,1.5,0.9,1.9v9.1c0,0.8-0.4,1.6-1,2c-1,0.8-1.7,2-1.7,3.3v3
			c0,0.4,0.3,0.8,0.8,0.8h12.3h0.4h0.4C32.1,43.3,33.8,41.7,33.8,39.7z M32.3,10.3v29.4c0,1.1-0.8,1.9-1.8,2.1v-2.2
			c0-1.3-0.6-2.5-1.7-3.3c-0.7-0.5-1-1.2-1-2v-9.1c0.6-0.5,0.9-1.2,0.9-1.9v-1c0-0.7-0.3-1.5-0.9-1.9v-4.6c0-0.8,0.4-1.6,1-2
			c1-0.8,1.7-2,1.7-3.3V8.2C31.5,8.4,32.3,9.3,32.3,10.3z M26.2,25.8v3.5h-5.8v-3.5C20.5,25.8,26.2,25.8,26.2,25.8z M18.8,12.5
			c-0.7-0.5-1-1.2-1-2V8.2h11.2v2.3c0,0.8-0.4,1.6-1,2c-1,0.8-1.7,2-1.7,3.3v8.5c-0.3,0-0.9,0-0.9,0v-1.5c0-0.4-0.3-0.8-0.8-0.8
			c-0.4,0-0.8,0.3-0.8,0.8v1.5h-0.9v-1.5c0-0.4-0.3-0.8-0.8-0.8s-0.8,0.3-0.8,0.8v1.5c-0.1,0-0.7,0-0.9,0v-8.5
			C20.5,14.5,19.8,13.2,18.8,12.5z M20.5,30.8h5.8v3c0,1.6-1.3,2.9-2.9,2.9s-2.9-1.3-2.9-2.9V30.8z M17.7,41.8v-2.3
			c0-0.8,0.4-1.6,1-2c0.4-0.3,0.8-0.7,1-1.1c0.8,1.1,2.1,1.8,3.5,1.8c1.4,0,2.7-0.7,3.5-1.8c0.3,0.4,0.6,0.8,1,1.1l0,0
			c0.7,0.5,1,1.2,1,2v2.3L17.7,41.8L17.7,41.8z"/>
		<circle class="st0" cx="25.8" cy="19.7" r="0.9"/>
		<circle class="st0" cx="25.8" cy="27.8" r="0.9"/>
		<circle class="st0" cx="23.3" cy="19.7" r="0.9"/>
		<circle class="st0" cx="23.3" cy="27.8" r="0.9"/>
		<circle class="st0" cx="25.8" cy="32.8" r="0.9"/>
		<circle class="st0" cx="23.3" cy="32.8" r="0.9"/>
	</g>
</g>
</svg>
