<?xml version="1.0" encoding="utf-8"?>
<!-- Generator: Adobe Illustrator 28.0.0, SVG Export Plug-In . SVG Version: 6.00 Build 0)  -->
<svg version="1.1" id="Calque_1" xmlns="http://www.w3.org/2000/svg" xmlns:xlink="http://www.w3.org/1999/xlink" x="0px" y="0px"
	 viewBox="0 0 800 800" style="enable-background:new 0 0 800 800;" xml:space="preserve">
<style type="text/css">
	.st0{fill-rule:evenodd;clip-rule:evenodd;fill:#FFFFFF;}
</style>
<path class="st0" d="M133.3,366.7c0-128.9,104.5-233.3,233.3-233.3c128.9,0,233.3,104.5,233.3,233.3C600,495.5,495.5,600,366.7,600
	C237.8,600,133.3,495.5,133.3,366.7z M366.7,66.7c-165.7,0-300,134.3-300,300c0,165.7,134.3,300,300,300
	c70.8,0,135.9-24.5,187.3-65.6l122.5,122.5c13,13,34.1,13,47.1,0c13-13,13-34.1,0-47.1L601.1,553.9c41.1-51.3,65.6-116.4,65.6-187.3
	C666.7,201,532.4,66.7,366.7,66.7z"/>
<path class="st0" d="M333.3,466.7c0,18.4,14.9,33.3,33.3,33.3s33.3-14.9,33.3-33.3V400h66.7c18.4,0,33.3-14.9,33.3-33.3
	s-14.9-33.3-33.3-33.3H400v-66.7c0-18.4-14.9-33.3-33.3-33.3s-33.3,14.9-33.3,33.3v66.7h-66.7c-18.4,0-33.3,14.9-33.3,33.3
	s14.9,33.3,33.3,33.3h66.7V466.7z"/>
</svg>
