<?xml version="1.0" encoding="utf-8"?>
<!-- Generator: Adobe Illustrator 28.0.0, SVG Export Plug-In . SVG Version: 6.00 Build 0)  -->
<svg version="1.1" id="Calque_1" xmlns="http://www.w3.org/2000/svg" xmlns:xlink="http://www.w3.org/1999/xlink" x="0px" y="0px"
	 viewBox="0 0 50 50" style="enable-background:new 0 0 50 50;" xml:space="preserve">
<style type="text/css">
	.st0{fill:#D6B8A2;}
</style>
<path class="st0" d="M30.4,18.7C30.4,18.8,30.3,18.8,30.4,18.7C30.4,18.7,30.4,18.7,30.4,18.7c-0.1,0-0.9,0.9-1.6,1.9
	c-2.8,3.6-4.5,6.7-4.7,8.8c-0.1,0.5-0.1,1.2,0,1.7c0.3,2.2,1.3,4.2,2.9,5.4c1,0.8,2.3,1.2,3.5,1.2c1.4,0,2.6-0.5,3.8-1.4
	c1.1-0.9,2-2.2,2.4-3.7c0.3-1.1,0.4-2.3,0.3-3.2c-0.2-1.1-0.7-2.4-1.6-3.9c-0.3-0.5-0.9-1.6-1.1-1.8l0,0l0,0c0,0,0,0,0,0
	c0,0-0.3-0.5-0.6-0.9c-0.4-0.6-0.8-1.1-1.2-1.7c-0.8-1-1.8-2.3-1.9-2.3c0,0,0,0,0,0c0,0,0,0,0,0.1c0,0,0,0-0.1,0H30.4L30.4,18.7z"/>
<path class="st0" d="M18.9,13.1C18.9,13.1,18.9,13.1,18.9,13.1C18.9,13.1,18.9,13.1,18.9,13.1c-0.1,0-0.7,0.7-1.3,1.5
	c-2.1,2.8-3.4,5.1-3.6,6.7c0,0.4,0,0.9,0,1.3c0.2,1.7,1,3.2,2.3,4.1c0.8,0.6,1.7,0.9,2.7,0.9c1.1,0,2-0.4,2.9-1.1
	c0.8-0.7,1.5-1.7,1.8-2.8c0.3-0.9,0.3-1.8,0.2-2.5c-0.1-0.8-0.5-1.8-1.2-3c-0.2-0.3-0.7-1.2-0.8-1.4l0,0l0,0c0,0,0,0,0,0
	c0,0-0.3-0.4-0.4-0.7c-0.3-0.5-0.6-0.9-0.9-1.3c-0.6-0.8-1.4-1.8-1.5-1.8c0,0,0,0,0,0c0,0,0,0,0,0c0,0,0,0,0,0H18.9L18.9,13.1z"/>
<path class="st0" d="M25,50C11.2,50,0,38.8,0,25S11.2,0,25,0s25,11.2,25,25S38.8,50,25,50z M25,2C12.3,2,2,12.3,2,25
	c0,12.7,10.3,23,23,23c12.7,0,23-10.3,23-23C48,12.3,37.7,2,25,2z"/>
</svg>
