<?xml version="1.0" encoding="utf-8"?>
<!-- Generator: Adobe Illustrator 28.0.0, SVG Export Plug-In . SVG Version: 6.00 Build 0)  -->
<svg version="1.1" id="Calque_1" xmlns="http://www.w3.org/2000/svg" xmlns:xlink="http://www.w3.org/1999/xlink" x="0px" y="0px"
	 viewBox="0 0 50 50" style="enable-background:new 0 0 50 50;" xml:space="preserve">
<style type="text/css">
	.st0{fill:#D6B8A2;}
</style>
<path class="st0" d="M25,50C11.2,50,0,38.8,0,25S11.2,0,25,0s25,11.2,25,25S38.8,50,25,50z M25,2C12.3,2,2,12.3,2,25
	c0,12.7,10.3,23,23,23c12.7,0,23-10.3,23-23C48,12.3,37.7,2,25,2z"/>
<path class="st0" d="M36,33.4h-9.8c-4.5,0-8.1-3.6-8.1-8.1V14.1l-2.6-2.8C15.4,11.1,15.2,11,15,11c-0.4,0-0.6,0.2-0.6,0.6v0.8
	c0,0.6-0.4,1-1,1s-1-0.4-1-1v-0.8c0-1.4,1.1-2.6,2.6-2.6c0.7,0,1.4,0.3,1.9,0.8l19.8,21.9c0.3,0.3,0.3,0.7,0.2,1.1
	S36.4,33.4,36,33.4z M20.1,16.3v9.1c0,3.3,2.7,6.1,6.1,6.1h7.6L20.1,16.3z"/>
<path class="st0" d="M34.3,40.1c-1.5,0-2.7-1.2-2.7-2.7c0-1.5,1.2-2.7,2.7-2.7s2.7,1.2,2.7,2.7C37,38.9,35.8,40.1,34.3,40.1z
	 M34.3,36.7c-0.4,0-0.7,0.3-0.7,0.7c0,0.4,0.3,0.7,0.7,0.7c0.4,0,0.7-0.3,0.7-0.7C35,37,34.7,36.7,34.3,36.7z"/>
<path class="st0" d="M20.8,40.1c-1.5,0-2.7-1.2-2.7-2.7c0-1.5,1.2-2.7,2.7-2.7s2.7,1.2,2.7,2.7C23.4,38.9,22.2,40.1,20.8,40.1z
	 M20.8,36.7c-0.4,0-0.7,0.3-0.7,0.7c0,0.4,0.3,0.7,0.7,0.7s0.7-0.3,0.7-0.7C21.4,37,21.1,36.7,20.8,36.7z"/>
</svg>
