<svg width="176" height="37" viewBox="0 0 176 37" fill="none" xmlns="http://www.w3.org/2000/svg">
<g clip-path="url(#clip0_53_616)">
<rect width="176" height="37" fill="#FFFFF"/>
<path d="M164.723 36.5961V33.0138C164.485 33.2947 164.308 33.4879 164.131 33.6986C162.602 35.4986 160.649 36.4468 158.281 36.6049C156.283 36.7366 154.313 36.6225 152.43 35.8849C149.841 34.8664 148.338 32.8645 147.472 30.3182C146.668 27.9388 146.474 25.4715 146.465 22.9867C146.456 17.622 146.465 12.266 146.465 6.90129C146.465 6.78714 146.465 6.673 146.465 6.49739C150.495 6.21643 154.498 5.94424 158.572 5.66327V6.20765C158.572 11.6865 158.572 17.1654 158.572 22.6443C158.572 23.0482 158.572 23.4608 158.643 23.856C159.005 25.8842 161.011 26.6569 162.682 25.4101C163.477 24.813 163.884 24.0316 163.884 23.0218C163.893 17.6747 163.91 12.3275 163.928 6.98031C163.928 6.83982 163.928 6.69056 163.928 6.49739C167.958 6.21643 171.961 5.94424 176 5.66327V35.7093C172.271 36.0078 168.523 36.2976 164.714 36.5961H164.723Z" fill="black"/>
<path d="M73.4931 9.06122C71.1865 12.0114 68.9418 14.8913 66.6617 17.7976C66.3701 17.5869 66.0961 17.3761 65.8133 17.1917C63.7718 15.822 60.608 16.0503 58.8316 17.7273C57.4176 19.0619 56.9757 20.7214 57.506 22.574C58.0274 24.4091 59.3619 25.454 61.1736 25.8579C63.1974 26.3056 65.0886 25.9544 66.7589 24.5672C68.9683 27.6315 71.16 30.6782 73.4224 33.8303C72.0615 34.4274 70.7712 35.0683 69.4279 35.56C66.7854 36.5259 64.0546 37.0878 61.2089 36.9824C57.1702 36.8332 53.4496 35.7444 50.2592 33.1981C47.0954 30.6694 45.2483 27.3768 44.7004 23.3818C44.2408 20.0717 44.6562 16.8757 46.1586 13.864C48.1293 9.92169 51.3374 7.37541 55.5441 6.14618C60.8554 4.59207 65.9989 5.03108 70.9126 7.67394C71.7521 8.13052 72.6005 8.57831 73.502 9.06122H73.4931Z" fill="black"/>
<path d="M142.205 18.0171C141.534 14.1362 139.695 10.9138 136.514 8.51682C133.438 6.20761 129.912 5.30325 126.527 5.26813C121.764 5.28569 117.928 6.61151 114.738 9.62313C112.891 11.3616 111.371 13.3108 110.62 15.7693C109.692 18.7985 109.63 21.8892 110.293 24.9622C111.256 29.4314 113.713 32.8733 117.831 34.9805C122.338 37.2897 127.084 37.518 131.892 36.0605C136.293 34.7171 139.448 31.8986 141.224 27.6578C142.523 24.5583 142.78 21.3184 142.205 18.0171ZM126.068 23.9789C124.539 23.9789 123.302 22.7496 123.302 21.2306C123.302 19.7116 124.539 18.4824 126.068 18.4824C127.597 18.4824 128.834 19.7116 128.834 21.2306C128.834 22.7496 127.597 23.9789 126.068 23.9789Z" fill="black"/>
<path d="M105.821 16.9195C105.821 15.1371 105.644 13.3899 104.911 11.7392C103.859 9.38607 101.985 7.84075 99.7319 6.70809C97.1336 5.39983 94.3321 4.99594 91.4688 4.93448C87.7658 4.85546 84.1071 5.31203 80.4748 5.97055C80.2009 6.02323 80.1302 6.18128 80.0771 6.40078C79.7325 7.77928 79.379 9.149 79.0343 10.5275C78.7515 11.6602 78.4687 12.7928 78.1682 13.9694C78.3361 13.943 78.4422 13.9255 78.5571 13.8991C81.3409 13.2582 84.1513 12.7401 87.0235 12.7226C88.2165 12.7138 89.4096 12.7577 90.4789 13.3108C92.8651 14.5313 93.1302 16.4191 92.8739 18.7985C92.3172 18.4824 91.7604 18.1663 91.2036 17.8502C88.7114 16.4103 86.0513 15.7079 83.1614 16.1381C80.192 16.5859 77.8147 17.9907 76.2682 20.6072C74.9602 22.8286 74.6686 25.2344 75.0662 27.7456C76.0826 34.0674 82.0037 37.7112 88.1547 36.3678C90.5496 35.841 92.4232 34.4361 94.1024 32.724C94.2172 32.6098 94.2879 32.4518 94.3852 32.3113C94.4382 32.3464 94.4824 32.3903 94.5354 32.4255V36.122H105.777C105.777 35.8937 105.777 35.7093 105.777 35.5249C105.794 29.326 105.803 23.1184 105.821 16.9195ZM89.2417 27.9563C87.7128 27.9563 86.4755 26.7271 86.4755 25.2081C86.4755 23.6891 87.7128 22.4599 89.2417 22.4599C90.7706 22.4599 92.0078 23.6891 92.0078 25.2081C92.0078 26.7271 90.7706 27.9563 89.2417 27.9563Z" fill="black"/>
<path d="M32.3543 18.0434C31.6826 14.1626 29.8444 10.9402 26.6629 8.54319C23.5874 6.23398 20.0612 5.32962 16.6765 5.29449C11.913 5.31206 8.07751 6.63787 4.88716 9.6495C3.0401 11.388 1.52004 13.3372 0.768852 15.7957C-0.159092 18.8249 -0.220955 21.9155 0.441862 24.9886C1.40516 29.4578 3.862 32.8996 7.9803 35.0069C12.4875 37.3161 17.2332 37.5444 22.0409 36.0869C26.442 34.7435 29.597 31.925 31.3733 27.6841C32.6724 24.5847 32.9287 21.3448 32.3543 18.0434ZM16.2169 24.0052C14.688 24.0052 13.4508 22.776 13.4508 21.257C13.4508 19.738 14.688 18.5088 16.2169 18.5088C17.7458 18.5088 18.9831 19.738 18.9831 21.257C18.9831 22.776 17.7458 24.0052 16.2169 24.0052Z" fill="black"/>
<path d="M36.128 7.12076H35.474C34.9702 7.1032 34.4665 6.96272 33.9716 6.69053C33.4767 6.41834 33.0613 6.00567 32.7432 5.45251C32.2306 4.57449 32.1157 3.65256 32.3985 2.69551C32.6813 1.72969 33.2558 1.00092 34.1395 0.491669C35.0233 -0.0175855 35.9512 -0.131729 36.9145 0.149239C37.8866 0.430208 38.6113 0.983364 39.0885 1.80871C39.6541 2.78332 39.8839 3.94231 39.716 5.28569C39.2741 8.73633 36.3312 10.5099 36.3312 10.5099L36.128 7.11198V7.12076Z" fill="#C09D2B"/>
</g>
<defs>
<clipPath id="clip0_53_616">
<rect width="176" height="37" fill="white"/>
</clipPath>
</defs>
</svg>
