<?xml version="1.0" encoding="UTF-8"?>
<svg id="Calque_1" xmlns="http://www.w3.org/2000/svg" xmlns:xlink="http://www.w3.org/1999/xlink" version="1.1" viewBox="0 0 6555 543.6">
  <!-- Generator: Adobe Illustrator 29.0.1, SVG Export Plug-In . SVG Version: 2.1.0 Build 192)  -->
  <defs>
    <style>
      .st0 {
        fill: #4285f4;
      }

      .st1 {
        fill: url(#Dégradé_sans_nom_2);
      }

      .st2 {
        fill: #f2ae14;
      }

      .st3 {
        fill: #fefefe;
      }

      .st3, .st4, .st5, .st6, .st7, .st8, .st9 {
        fill-rule: evenodd;
      }

      .st10 {
        stroke-miterlimit: 55.2;
      }

      .st10, .st11, .st12 {
        fill: #fff;
      }

      .st10, .st11, .st13 {
        stroke: #000;
      }

      .st10, .st13 {
        stroke-width: 13.8px;
      }

      .st4 {
        fill: #17120f;
      }

      .st11 {
        stroke-miterlimit: 45.7;
        stroke-width: 11.4px;
      }

      .st5 {
        fill: #3c4043;
      }

      .st14 {
        fill: #34a853;
      }

      .st15 {
        fill: #fbbc04;
      }

      .st13 {
        fill: #f4b6c7;
        stroke-miterlimit: 10;
      }

      .st16 {
        fill: #ea4335;
      }

      .st7 {
        fill: #f9a000;
      }

      .st17 {
        fill: #0e4595;
      }

      .st8 {
        fill: #ed0006;
      }

      .st18 {
        fill: #2557d6;
      }

      .st9 {
        fill: #ff5e00;
      }
    </style>
    <linearGradient id="Dégradé_sans_nom_2" data-name="Dégradé sans nom 2" x1="4817.3" y1="252" x2="4803.2" y2="208.8" gradientTransform="translate(-65967.6 3489.6) scale(13.8 -13.8)" gradientUnits="userSpaceOnUse">
      <stop offset="0" stop-color="#222e72"/>
      <stop offset=".6" stop-color="#40cbff"/>
      <stop offset="1" stop-color="#3cb792"/>
    </linearGradient>
  </defs>
  <g>
    <path class="st17" d="M1932.4,3.1h752.6c23.8,0,43,19.3,43,43v451.5c0,23.8-19.3,43-43,43h-752.6c-23.7,0-43-19.3-43-43V46.1c0-23.7,19.3-43,43-43Z"/>
    <path class="st12" d="M2204.6,378l35.9-210.5h57.4l-35.9,210.5h-57.3ZM2469.2,172.1c-11.4-4.3-29.2-8.8-51.4-8.8-56.7,0-96.6,28.5-97,69.5-.3,30.2,28.5,47.1,50.3,57.2,22.3,10.3,29.8,16.9,29.7,26.1-.1,14.1-17.8,20.6-34.3,20.6s-35.2-3.2-54-11l-7.4-3.3-8.1,47.1c13.4,5.9,38.2,11,63.9,11.2,60.3,0,99.4-28.2,99.9-71.9.2-23.9-15.1-42.2-48.2-57.2-20.1-9.7-32.3-16.2-32.2-26.1,0-8.7,10.4-18.1,32.9-18.1,18.8-.3,32.3,3.8,42.9,8.1l5.1,2.4,7.8-45.6M2616.8,167.5h-44.3c-13.7,0-24,3.7-30,17.5l-85.2,192.9h60.2s9.8-25.9,12.1-31.6c6.6,0,65.1,0,73.5,0,1.7,7.4,7,31.5,7,31.5h53.2l-46.4-210.3h0ZM2546.5,303.4c4.7-12.1,22.9-58.8,22.9-58.8-.3.6,4.7-12.2,7.6-20.1l3.9,18.1s11,50.2,13.3,60.8h-47.6ZM2155.9,167.5l-56.2,143.5-6-29.2c-10.5-33.6-43-70-79.4-88.3l51.4,184.1h60.7c0,0,90.3-210.1,90.3-210.1h-60.8"/>
    <path class="st2" d="M2047.4,167.5h-92.5l-.7,4.4c72,17.4,119.6,59.5,139.4,110.1l-20.1-96.7c-3.5-13.3-13.5-17.3-26-17.8"/>
  </g>
  <g>
    <rect class="st11" x="943.5" y="3.5" width="788.6" height="537.1" rx="62.9" ry="62.9"/>
    <path class="st8" d="M1342.3,395.1c-27.2,23.5-62.6,37.7-101.2,37.7-86.1,0-156-70.6-156-157.8s69.8-157.8,156-157.8,73.9,14.2,101.2,37.7c27.2-23.5,62.6-37.7,101.2-37.7,86.1,0,156,70.6,156,157.8s-69.8,157.8-156,157.8-73.9-14.2-101.2-37.7Z"/>
    <path class="st7" d="M1342.3,395.1c33.5-28.9,54.8-72,54.8-120.1s-21.3-91.2-54.8-120.1c27.2-23.5,62.6-37.7,101.2-37.7,86.1,0,156,70.6,156,157.8s-69.8,157.8-156,157.8-73.9-14.2-101.2-37.7Z"/>
    <path class="st9" d="M1342.3,154.9c33.5,28.9,54.8,72,54.8,120.1s-21.3,91.1-54.8,120.1c-33.5-28.9-54.8-72-54.8-120.1s21.3-91.1,54.8-120.1Z"/>
  </g>
  <g>
    <rect class="st11" x="3886" y="13.4" width="767.1" height="522.5" rx="61.1" ry="61.1"/>
    <path class="st5" d="M4248,358.3v-67.2h34.7c14.2,0,26.2-4.8,36-14.1l2.3-2.4c17.9-19.4,16.7-49.7-2.3-67.7-9.5-9.5-22.5-14.7-36-14.4h-55.7v165.8h21ZM4248,270.7v-57.9h35.2c7.6,0,14.7,2.9,20.1,8.2,11.3,11.1,11.6,29.6.7,41.1-5.3,5.7-12.9,8.9-20.7,8.6h-35.2ZM4418.9,253.7c-9-8.3-21.2-12.6-36.8-12.6s-34.9,7.4-44.8,22.1l18.5,11.8c6.8-10,16-15.1,27.8-15.1s14.6,2.8,20.2,7.8c5.5,4.8,8.6,11.6,8.6,18.9v4.9c-8.1-4.5-18.2-6.9-30.8-6.9s-26.3,3.4-35.1,10.4c-8.7,7-13.2,16.3-13.2,28-.3,10.7,4.3,20.9,12.4,27.8,8.2,7.4,18.6,11.1,30.9,11.1s25.9-6.5,34.7-19.4h.9v15.7h20.1v-69.9c0-14.7-4.4-26.3-13.4-34.6ZM4361.9,337.4c-4.3-3.2-6.9-8.3-6.9-13.9s2.9-11.4,8.5-15.5c5.7-4.1,12.9-6.2,21.4-6.2,11.7-.1,20.9,2.5,27.4,7.8,0,9-3.5,16.8-10.4,23.4-6.3,6.3-14.7,9.9-23.6,9.9-5.9.1-11.6-1.9-16.3-5.6ZM4477.4,408.1l70.1-163.3h-22.8l-32.5,81.5h-.4l-33.2-81.5h-22.8l46,106.2-26.1,57.1h21.6Z"/>
    <path class="st0" d="M4175.6,276.6c0-6.5-.5-13-1.6-19.3h-88.5v36.6h50.7c-2.1,11.8-8.9,22.3-18.8,29v23.8h30.2c17.7-16.5,27.9-41,27.9-70.1Z"/>
    <path class="st14" d="M4085.5,369.6c25.3,0,46.7-8.5,62.2-23l-30.2-23.8c-8.5,5.8-19.3,9.1-31.9,9.1-24.5,0-45.2-16.8-52.7-39.3h-31.2v24.6c15.9,32.1,48.4,52.4,83.8,52.4Z"/>
    <path class="st15" d="M4032.9,292.7c-3.9-11.8-3.9-24.6,0-36.5v-24.5h-31.2c-13.4,26.8-13.4,58.6,0,85.4l31.2-24.5Z"/>
    <path class="st16" d="M4085.5,216.9c13.4-.3,26.3,4.9,36,14.3l26.8-27.2c-17.1-16.1-39.5-25-62.8-24.7-35.5,0-67.9,20.4-83.8,52.5l31.2,24.6c7.4-22.6,28.2-39.4,52.7-39.4Z"/>
  </g>
  <g>
    <rect class="st10" x="4813.1" y="12.8" width="760.7" height="520.5" rx="46.7" ry="46.7"/>
    <path class="st6" d="M5041,205.3c-5.6,6.7-14.6,12-23.6,11.3-1.1-9.1,3.3-18.8,8.4-24.8,5.6-6.9,15.5-11.9,23.5-12.2.9,9.5-2.7,18.8-8.3,25.7ZM5049.2,218.4c-7.9-.5-15.2,2.4-21,4.7-3.8,1.5-7,2.8-9.4,2.8s-6-1.3-9.8-2.8c-4.9-2-10.5-4.2-16.3-4.1-13.4.2-25.9,7.9-32.7,20.1-14.1,24.5-3.7,60.7,9.9,80.6,6.7,9.9,14.6,20.7,25.1,20.3,4.6-.2,7.9-1.6,11.4-3.1,4-1.7,8.1-3.5,14.5-3.5s10.1,1.7,13.9,3.4c3.6,1.6,7,3.1,12.2,3,10.9-.2,17.7-9.9,24.4-19.7,7.2-10.6,10.3-20.9,10.8-22.5v-.2s0,0-.2-.1c-2.4-1.1-20.8-9.6-20.9-32.4-.2-19.1,14.6-28.8,16.9-30.4.1,0,.2-.2.3-.2-9.4-14-24-15.6-29.1-15.9ZM5124.5,338.8v-147.9h54.9c28.3,0,48.1,19.7,48.1,48.6s-20.2,48.8-48.9,48.8h-31.4v50.6h-22.7ZM5147.2,210.2h26.2c19.7,0,31,10.6,31,29.3s-11.3,29.4-31.1,29.4h-26.1v-58.7ZM5302.5,321c-6,11.6-19.2,18.9-33.5,18.9-21.1,0-35.8-12.7-35.8-31.9s14.3-29.9,40.6-31.5l28.3-1.7v-8.2c0-12-7.8-18.6-21.7-18.6s-19.8,6-21.5,15.1h-20.5c.7-19.2,18.5-33.1,42.6-33.1s42.9,13.8,42.9,35.1v73.6h-21v-17.7h-.5ZM5275.1,322.4c-12.1,0-19.8-5.9-19.8-14.9s7.4-14.7,21.6-15.6l25.2-1.6v8.3c0,13.9-11.6,23.7-27,23.7ZM5393.7,344.6c-9.1,25.9-19.5,34.4-41.7,34.4s-7.3-.2-8.6-.6v-17.7c1.4.2,4.9.4,6.7.4,10,0,15.7-4.3,19.1-15.4l2.1-6.5-38.5-107.7h23.7l26.7,87.4h.5l26.7-87.4h23.1l-39.9,113.1Z"/>
  </g>
  <g>
    <rect class="st1" y="3.1" width="786.2" height="537.9" rx="34.5" ry="34.5"/>
    <path class="st3" d="M294.1,263.9h108.3c-1-23.4-6.4-47.6-23-63.1-19.7-18.5-54.2-25.3-85.1-25.3s-67.6,7.5-87.4,27.3c-17.1,17.1-20.8,44.5-20.8,69.2s7.2,55.9,25.8,73.2c19.7,18.4,51.6,23.3,82.4,23.3s62.3-5.5,81.9-23c19.5-17.5,26.3-46.9,26.3-73.5h0c0-.1-108.5-.1-108.5-.1v-8ZM409.7,271.9v92.4h150.7c22-1.3,39.6-21.2,39.6-45.6s-17.5-45.6-39.6-46.8h0s-150.7,0-150.7,0ZM558.7,179.4c21.5,0,38.5,18.6,38.5,42.2s-15.7,40.5-35.6,42.3h-151.9v-84.6h144.2c.9-.1,1.9,0,2.9,0,.6,0,1.3,0,1.8,0Z"/>
  </g>
  <g>
    <path class="st18" d="M2930.9,6.3h752.2c23.7,0,43,19.2,43,43v451.3c0,23.7-19.2,43-43,43h-752.2c-23.7,0-43-19.2-43-43V49.3c0-23.7,19.2-43,43-43Z"/>
    <path class="st12" d="M2888.2,259.6h40.2l9.1-21h20.3l9,21h79.2v-16l7.1,16.1h41.1l7.1-16.3v16.3h196.7v-34.4c0,0,3.7,0,3.7,0,2.7,0,3.4.3,3.4,4.5v29.9h101.7v-8c8.2,4.2,21,8,37.8,8h42.8l9.2-21h20.3l9,21h82.5v-19.9l12.5,19.9h66.1V127.9h-65.4v15.5l-9.2-15.5h-67.1v15.5l-8.4-15.5h-90.7c-15.2,0-28.5,2-39.3,7.7v-7.7h-62.6v7.7c-6.9-5.8-16.2-7.7-26.6-7.7h-228.6l-15.3,34-15.8-34h-72v15.5l-7.9-15.5h-61.4l-28.5,62.6v69h0ZM3142.2,240.6h-24.1v-73.9c0,0-34.2,73.9-34.2,73.9h-20.7l-34.2-74v74h-47.9l-9-21.1h-49l-9.1,21.1h-25.6l42.2-94.4h35l40,89.4v-89.4h38.4l30.8,64,28.3-64h39.2v94.4h0ZM2963.9,200l-16.1-37.6-16,37.6h32.1ZM3238.2,240.6h-78.7v-94.4h78.7v19.7h-55.1v17h53.8v19.3h-53.8v18.8h55.1v19.5s0,0,0,0ZM3349.1,171.6c0,15-10.5,22.8-16.6,25.2,5.2,1.9,9.6,5.2,11.6,7.9,3.3,4.7,3.9,8.9,3.9,17.3v18.5h-23.8v-11.9c0-5.7.5-13.8-3.8-18.4-3.4-3.3-8.7-4-17.2-4h-25.3v34.3h-23.5v-94.4h54.2c12,0,20.9.3,28.5,4.5,7.4,4.2,11.9,10.4,11.9,20.9h0ZM3319.3,185.6c-3.2,1.9-7.1,1.9-11.6,1.9h-28.6v-21h29c4.1,0,8.4.2,11.2,1.7,3.1,1.4,4.9,4.3,4.9,8.3s-1.8,7.4-4.9,9ZM3386.8,240.6h-24v-94.4h24v94.4ZM3665.7,240.6h-33.4l-44.6-70.8v70.8h-48l-9.2-21.1h-48.9l-8.9,21.1h-27.6c-11.4,0-25.9-2.4-34.1-10.4-8.3-8-12.6-18.9-12.6-36s2.6-26.8,12.7-36.9c7.6-7.5,19.5-11,35.8-11h22.8v20.2h-22.3c-8.6,0-13.4,1.2-18.1,5.6-4,4-6.8,11.5-6.8,21.4s2.1,17.4,6.5,22.2c3.6,3.7,10.2,4.9,16.4,4.9h10.6l33.2-74.2h35.3l39.9,89.3v-89.3h35.9l41.4,65.7v-65.7h24.1v94.4h0ZM3522.6,200l-16.3-37.6-16.2,37.6h32.5ZM3725.7,391.3c-5.7,8-16.9,12.1-32,12.1h-45.5v-20.2h45.3c4.5,0,7.6-.6,9.5-2.3,1.8-1.6,2.8-3.8,2.8-6.2,0-2.8-1.1-4.9-2.9-6.2-1.7-1.4-4.2-2.1-8.3-2.1-22.1-.7-49.7.7-49.7-29.2s9.1-28.1,33.8-28.1h46.9v-18.8h-43.6c-13.1,0-22.7,3-29.5,7.7v-7.7h-64.5c-10.3,0-22.4,2.4-28.1,7.7v-7.7h-115.1v7.7c-9.2-6.3-24.6-7.7-31.8-7.7h-75.9v7.7c-7.2-6.7-23.4-7.7-33.2-7.7h-85l-19.4,20.2-18.2-20.2h-126.9v131.7h124.5l20-20.5,18.9,20.5h76.8c0,0,0-30.9,0-30.9h7.5c10.2.2,22.2-.2,32.8-4.6v35.6h63.3v-34.3h3.1c3.9,0,4.3.2,4.3,3.9v30.4h192.3c12.2,0,25-3,32-8.4v8.4h61c12.7,0,25.1-1.7,34.5-6.1v-24.5s0,0,0,0ZM3344.4,340.6c0,26.2-20.4,31.6-41,31.6h-29.4v31.7h-45.8l-29-31.3-30.1,31.3h-93.3v-94.4h94.7l29,30.9,30-30.9h75.2c18.7,0,39.7,5,39.7,31.1ZM3157.2,384.1h-57.9v-18.8h51.7v-19.3h-51.7v-17.2h59l25.8,27.5-26.9,27.7ZM3250.4,394.9l-36.2-38.5,36.2-37.2v75.7ZM3303.9,352.9h-30.4v-24h30.7c8.5,0,14.4,3.3,14.4,11.6s-5.6,12.5-14.7,12.5ZM3463.3,309.5h78.6v19.5h-55.1v17.2h53.8v19.3h-53.8v18.8h55.1v19.7h-78.6v-94.4s0,0,0,0ZM3433.1,360.1c5.2,1.9,9.5,5.2,11.5,7.9,3.3,4.6,3.8,8.9,3.9,17.2v18.7h-23.6v-11.8c0-5.7.6-14.1-3.8-18.5-3.4-3.4-8.7-4.2-17.3-4.2h-25.2v34.5h-23.7v-94.4h54.4c11.9,0,20.6.5,28.3,4.5,7.4,4.3,12.1,10.2,12.1,21,0,15.1-10.5,22.8-16.7,25.1h0ZM3419.8,348.1c-3.2,1.8-7,1.9-11.6,1.9h-28.6v-21.2h29c4.2,0,8.4,0,11.2,1.7,3.1,1.5,4.9,4.5,4.9,8.5s-1.8,7.3-4.9,9.1h0ZM3632.3,354.1c4.6,4.5,7,10.3,7,20,0,20.3-13.2,29.8-37,29.8h-45.9v-20.2h45.7c4.5,0,7.6-.6,9.6-2.3,1.6-1.5,2.8-3.6,2.8-6.2s-1.3-4.9-2.9-6.2c-1.8-1.4-4.3-2.1-8.4-2.1-22-.7-49.6.7-49.6-29.2s9-28.1,33.7-28.1h47.2v20.1h-43.2c-4.3,0-7.1.2-9.4,1.7-2.6,1.5-3.5,3.8-3.5,6.8s2.2,6,5.2,7c2.5.8,5.2,1.1,9.2,1.1l12.7.3c12.8.3,21.6,2.4,26.9,7.6h0ZM3725.8,328.9h-42.9c-4.3,0-7.1.2-9.5,1.7-2.5,1.5-3.4,3.8-3.4,6.8s2.1,6,5.1,7c2.5.8,5.2,1.1,9.1,1.1l12.8.3c12.9.3,21.5,2.4,26.7,7.6,1,.7,1.5,1.5,2.2,2.3v-26.9h0Z"/>
  </g>
  <g>
    <rect class="st13" x="5768.8" width="786.2" height="537.9" rx="48.3" ry="48.3"/>
    <path class="st4" d="M5864.1,348.9h-33.3v-148.9h33.3v148.9ZM5947.3,200h-32.6c0,27.4-12.3,52.6-33.7,69l-12.9,9.9,50,70h41.1l-46-64.4c21.8-22.3,34-52.3,34-84.5ZM6000.4,348.9h-31.4v-148.8h31.4v148.8ZM6095.4,245.9v6.6c-8.5-5.9-18.7-9.4-29.8-9.4-29.2,0-52.9,24.3-52.9,54.3s23.7,54.3,52.9,54.3,21.3-3.5,29.8-9.4v6.6h30v-103h-30ZM6095.3,297.4c0,14.6-12.2,26.5-27.2,26.5s-27.2-11.9-27.2-26.5,12.2-26.5,27.2-26.5,27.2,11.9,27.2,26.5ZM6412.2,252.5v-6.6h30v103h-30v-6.6c-8.5,5.9-18.7,9.4-29.8,9.4-29.2,0-52.9-24.3-52.9-54.3s23.7-54.3,52.9-54.3,21.3,3.5,29.8,9.4ZM6384.9,323.9c15,0,27.2-11.9,27.2-26.5s-12.2-26.5-27.2-26.5-27.2,11.9-27.2,26.5,12.2,26.5,27.2,26.5ZM6455.2,331.7c0-10.7,8.4-19.3,18.8-19.3s18.8,8.7,18.8,19.3-8.4,19.3-18.8,19.3-18.8-8.7-18.8-19.3ZM6276.1,243.1c-12,0-23.3,3.8-30.9,14.4v-11.6h-29.9v103h30.3v-54.1c0-15.7,10.2-23.3,22.5-23.3s20.8,8.1,20.8,23.1v54.3h30v-65.5c0-24-18.6-40.3-42.8-40.3ZM6171.8,245.9v13.4c6-8,17.2-13.4,29.4-13.4v30h0s0,0,0,0h0s-.1,0-.1,0c-11.9,0-29,8.7-29,24.9v48.1h-30.8v-103h30.7Z"/>
  </g>
</svg>