<?xml version="1.0" encoding="UTF-8"?>
<svg id="Calque_1" data-name="Calque 1" xmlns="http://www.w3.org/2000/svg" xmlns:xlink="http://www.w3.org/1999/xlink" viewBox="0 0 539.51 698.5">
  <defs>
    <style>
      .cls-1 {
        clip-path: url(#clippath);
      }

      .cls-2 {
        fill: none;
      }

      .cls-2, .cls-3, .cls-4, .cls-5, .cls-6, .cls-7, .cls-8 {
        stroke-width: 0px;
      }

      .cls-9, .cls-5 {
        fill: #f3ece1;
      }

      .cls-3 {
        fill: url(#Nouvelle_nuance_de_motif_2);
      }

      .cls-6 {
        fill: #1d1d1b;
      }

      .cls-7 {
        fill: #d7ac05;
      }

      .cls-8 {
        fill: #d6b8a2;
      }
    </style>
    <clipPath id="clippath">
      <rect class="cls-5" x=".05" y="0" width="423.24" height="431.65"/>
    </clipPath>
    <pattern id="Nouvelle_nuance_de_motif_2" data-name="Nouvelle nuance de motif 2" x="0" y="0" width="423.29" height="431.65" patternTransform="translate(-770.94 63.59)" patternUnits="userSpaceOnUse" viewBox="0 0 423.29 431.65">
      <g>
        <rect class="cls-2" x="0" y="0" width="423.29" height="431.65"/>
        <g>
          <rect class="cls-9" x=".05" y="0" width="423.24" height="431.65"/>
          <g class="cls-1">
            <g>
              <path class="cls-4" d="m2.79,222.68h-.47c-.36-.01-.72-.11-1.08-.31-.36-.19-.65-.49-.88-.89-.37-.63-.45-1.3-.25-1.99.2-.7.62-1.23,1.25-1.59s1.3-.45,1.99-.25c.7.2,1.22.6,1.56,1.2.41.7.57,1.54.45,2.51-.32,2.5-2.43,3.78-2.43,3.78l-.15-2.45Z"/>
              <path class="cls-4" d="m143.92,222.68h-.47c-.36-.01-.72-.11-1.08-.31-.36-.19-.65-.49-.88-.89-.37-.63-.45-1.3-.25-1.99.2-.7.62-1.23,1.25-1.59s1.3-.45,1.99-.25c.7.2,1.22.6,1.56,1.2.41.7.57,1.54.45,2.51-.32,2.5-2.43,3.78-2.43,3.78l-.15-2.45Z"/>
              <path class="cls-4" d="m214.48,222.68h-.47c-.36-.01-.72-.11-1.08-.31-.36-.19-.65-.49-.88-.89-.37-.63-.45-1.3-.25-1.99.2-.7.62-1.23,1.25-1.59s1.3-.45,1.99-.25c.7.2,1.22.6,1.56,1.2.41.7.57,1.54.45,2.51-.32,2.5-2.43,3.78-2.43,3.78l-.15-2.45Z"/>
              <path class="cls-4" d="m285.05,222.68h-.47c-.36-.01-.72-.11-1.08-.31-.36-.19-.65-.49-.88-.89-.37-.63-.45-1.3-.25-1.99.2-.7.62-1.23,1.25-1.59s1.3-.45,1.99-.25c.7.2,1.22.6,1.56,1.2.41.7.57,1.54.45,2.51-.32,2.5-2.43,3.78-2.43,3.78l-.15-2.45Z"/>
              <path class="cls-4" d="m355.62,222.68h-.47c-.36-.01-.72-.11-1.08-.31-.36-.19-.65-.49-.88-.89-.37-.63-.45-1.3-.25-1.99.2-.7.62-1.23,1.25-1.59s1.3-.45,1.99-.25c.7.2,1.22.6,1.56,1.2.41.7.57,1.54.45,2.51-.32,2.5-2.43,3.78-2.43,3.78l-.15-2.45Z"/>
            </g>
            <g>
              <path class="cls-4" d="m2.79,331.59h-.47c-.36-.01-.72-.11-1.08-.31-.36-.19-.65-.49-.88-.89-.37-.63-.45-1.3-.25-1.99.2-.7.62-1.23,1.25-1.59s1.3-.45,1.99-.25c.7.2,1.22.6,1.56,1.2.41.7.57,1.54.45,2.51-.32,2.5-2.43,3.78-2.43,3.78l-.15-2.45Z"/>
              <path class="cls-4" d="m73.35,331.59h-.47c-.36-.01-.72-.11-1.08-.31-.36-.19-.65-.49-.88-.89-.37-.63-.45-1.3-.25-1.99.2-.7.62-1.23,1.25-1.59s1.3-.45,1.99-.25c.7.2,1.22.6,1.56,1.2.41.7.57,1.54.45,2.51-.32,2.5-2.43,3.78-2.43,3.78l-.15-2.45Z"/>
              <path class="cls-4" d="m143.92,331.59h-.47c-.36-.01-.72-.11-1.08-.31-.36-.19-.65-.49-.88-.89-.37-.63-.45-1.3-.25-1.99.2-.7.62-1.23,1.25-1.59s1.3-.45,1.99-.25c.7.2,1.22.6,1.56,1.2.41.7.57,1.54.45,2.51-.32,2.5-2.43,3.78-2.43,3.78l-.15-2.45Z"/>
              <path class="cls-4" d="m214.48,331.59h-.47c-.36-.01-.72-.11-1.08-.31-.36-.19-.65-.49-.88-.89-.37-.63-.45-1.3-.25-1.99.2-.7.62-1.23,1.25-1.59s1.3-.45,1.99-.25c.7.2,1.22.6,1.56,1.2.41.7.57,1.54.45,2.51-.32,2.5-2.43,3.78-2.43,3.78l-.15-2.45Z"/>
              <path class="cls-4" d="m355.62,331.59h-.47c-.36-.01-.72-.11-1.08-.31-.36-.19-.65-.49-.88-.89-.37-.63-.45-1.3-.25-1.99.2-.7.62-1.23,1.25-1.59s1.3-.45,1.99-.25c.7.2,1.22.6,1.56,1.2.41.7.57,1.54.45,2.51-.32,2.5-2.43,3.78-2.43,3.78l-.15-2.45Z"/>
            </g>
            <g>
              <path class="cls-4" d="m35.15,277.14h-.47c-.36-.01-.72-.11-1.08-.31-.36-.19-.65-.49-.88-.89-.37-.63-.45-1.3-.25-1.99.2-.7.62-1.23,1.25-1.59s1.3-.45,1.99-.25c.7.2,1.22.6,1.56,1.2.41.7.57,1.54.45,2.51-.32,2.5-2.43,3.78-2.43,3.78l-.15-2.45Z"/>
              <path class="cls-4" d="m105.71,277.14h-.47c-.36-.01-.72-.11-1.08-.31-.36-.19-.65-.49-.88-.89-.37-.63-.45-1.3-.25-1.99.2-.7.62-1.23,1.25-1.59s1.3-.45,1.99-.25c.7.2,1.22.6,1.56,1.2.41.7.57,1.54.45,2.51-.32,2.5-2.43,3.78-2.43,3.78l-.15-2.45Z"/>
              <path class="cls-4" d="m176.28,277.14h-.47c-.36-.01-.72-.11-1.08-.31-.36-.19-.65-.49-.88-.89-.37-.63-.45-1.3-.25-1.99.2-.7.62-1.23,1.25-1.59s1.3-.45,1.99-.25c.7.2,1.22.6,1.56,1.2.41.7.57,1.54.45,2.51-.32,2.5-2.43,3.78-2.43,3.78l-.15-2.45Z"/>
              <path class="cls-4" d="m246.85,277.14h-.47c-.36-.01-.72-.11-1.08-.31-.36-.19-.65-.49-.88-.89-.37-.63-.45-1.3-.25-1.99.2-.7.62-1.23,1.25-1.59s1.3-.45,1.99-.25c.7.2,1.22.6,1.56,1.2.41.7.57,1.54.45,2.51-.32,2.5-2.43,3.78-2.43,3.78l-.15-2.45Z"/>
              <path class="cls-4" d="m317.41,277.14h-.47c-.36-.01-.72-.11-1.08-.31-.36-.19-.65-.49-.88-.89-.37-.63-.45-1.3-.25-1.99.2-.7.62-1.23,1.25-1.59s1.3-.45,1.99-.25c.7.2,1.22.6,1.56,1.2.41.7.57,1.54.45,2.51-.32,2.5-2.43,3.78-2.43,3.78l-.15-2.45Z"/>
              <path class="cls-4" d="m387.98,277.14h-.47c-.36-.01-.72-.11-1.08-.31-.36-.19-.65-.49-.88-.89-.37-.63-.45-1.3-.25-1.99.2-.7.62-1.23,1.25-1.59s1.3-.45,1.99-.25c.7.2,1.22.6,1.56,1.2.41.7.57,1.54.45,2.51-.32,2.5-2.43,3.78-2.43,3.78l-.15-2.45Z"/>
            </g>
            <g>
              <path class="cls-4" d="m35.15,386.05h-.47c-.36-.01-.72-.11-1.08-.31-.36-.19-.65-.49-.88-.89-.37-.63-.45-1.3-.25-1.99.2-.7.62-1.23,1.25-1.59s1.3-.45,1.99-.25c.7.2,1.22.6,1.56,1.2.41.7.57,1.54.45,2.51-.32,2.5-2.43,3.78-2.43,3.78l-.15-2.45Z"/>
              <path class="cls-4" d="m105.71,386.05h-.47c-.36-.01-.72-.11-1.08-.31-.36-.19-.65-.49-.88-.89-.37-.63-.45-1.3-.25-1.99.2-.7.62-1.23,1.25-1.59s1.3-.45,1.99-.25c.7.2,1.22.6,1.56,1.2.41.7.57,1.54.45,2.51-.32,2.5-2.43,3.78-2.43,3.78l-.15-2.45Z"/>
              <path class="cls-4" d="m176.28,386.05h-.47c-.36-.01-.72-.11-1.08-.31-.36-.19-.65-.49-.88-.89-.37-.63-.45-1.3-.25-1.99.2-.7.62-1.23,1.25-1.59s1.3-.45,1.99-.25c.7.2,1.22.6,1.56,1.2.41.7.57,1.54.45,2.51-.32,2.5-2.43,3.78-2.43,3.78l-.15-2.45Z"/>
              <path class="cls-4" d="m246.85,386.05h-.47c-.36-.01-.72-.11-1.08-.31-.36-.19-.65-.49-.88-.89-.37-.63-.45-1.3-.25-1.99.2-.7.62-1.23,1.25-1.59s1.3-.45,1.99-.25c.7.2,1.22.6,1.56,1.2.41.7.57,1.54.45,2.51-.32,2.5-2.43,3.78-2.43,3.78l-.15-2.45Z"/>
              <path class="cls-4" d="m317.41,386.05h-.47c-.36-.01-.72-.11-1.08-.31-.36-.19-.65-.49-.88-.89-.37-.63-.45-1.3-.25-1.99.2-.7.62-1.23,1.25-1.59s1.3-.45,1.99-.25c.7.2,1.22.6,1.56,1.2.41.7.57,1.54.45,2.51-.32,2.5-2.43,3.78-2.43,3.78l-.15-2.45Z"/>
              <path class="cls-4" d="m387.98,386.05h-.47c-.36-.01-.72-.11-1.08-.31-.36-.19-.65-.49-.88-.89-.37-.63-.45-1.3-.25-1.99.2-.7.62-1.23,1.25-1.59s1.3-.45,1.99-.25c.7.2,1.22.6,1.56,1.2.41.7.57,1.54.45,2.51-.32,2.5-2.43,3.78-2.43,3.78l-.15-2.45Z"/>
            </g>
            <g>
              <path class="cls-4" d="m2.79,6.84h-.47c-.36-.01-.72-.11-1.08-.31-.36-.19-.65-.49-.88-.89C-.01,5-.09,4.34.11,3.64c.2-.7.62-1.23,1.25-1.59s1.3-.45,1.99-.25c.7.2,1.22.6,1.56,1.2.41.7.57,1.54.45,2.51-.32,2.5-2.43,3.78-2.43,3.78l-.15-2.45Z"/>
              <path class="cls-4" d="m143.92,6.84h-.47c-.36-.01-.72-.11-1.08-.31-.36-.19-.65-.49-.88-.89-.37-.63-.45-1.3-.25-1.99.2-.7.62-1.23,1.25-1.59s1.3-.45,1.99-.25c.7.2,1.22.6,1.56,1.2.41.7.57,1.54.45,2.51-.32,2.5-2.43,3.78-2.43,3.78l-.15-2.45Z"/>
              <path class="cls-4" d="m214.48,6.84h-.47c-.36-.01-.72-.11-1.08-.31-.36-.19-.65-.49-.88-.89-.37-.63-.45-1.3-.25-1.99.2-.7.62-1.23,1.25-1.59s1.3-.45,1.99-.25c.7.2,1.22.6,1.56,1.2.41.7.57,1.54.45,2.51-.32,2.5-2.43,3.78-2.43,3.78l-.15-2.45Z"/>
              <path class="cls-4" d="m285.05,6.84h-.47c-.36-.01-.72-.11-1.08-.31-.36-.19-.65-.49-.88-.89-.37-.63-.45-1.3-.25-1.99.2-.7.62-1.23,1.25-1.59s1.3-.45,1.99-.25c.7.2,1.22.6,1.56,1.2.41.7.57,1.54.45,2.51-.32,2.5-2.43,3.78-2.43,3.78l-.15-2.45Z"/>
              <path class="cls-4" d="m355.62,6.84h-.47c-.36-.01-.72-.11-1.08-.31-.36-.19-.65-.49-.88-.89-.37-.63-.45-1.3-.25-1.99.2-.7.62-1.23,1.25-1.59s1.3-.45,1.99-.25c.7.2,1.22.6,1.56,1.2.41.7.57,1.54.45,2.51-.32,2.5-2.43,3.78-2.43,3.78l-.15-2.45Z"/>
            </g>
            <g>
              <path class="cls-4" d="m2.79,115.75h-.47c-.36-.01-.72-.11-1.08-.31-.36-.19-.65-.49-.88-.89-.37-.63-.45-1.3-.25-1.99.2-.7.62-1.23,1.25-1.59s1.3-.45,1.99-.25c.7.2,1.22.6,1.56,1.2.41.7.57,1.54.45,2.51-.32,2.5-2.43,3.78-2.43,3.78l-.15-2.45Z"/>
              <path class="cls-4" d="m73.35,115.75h-.47c-.36-.01-.72-.11-1.08-.31-.36-.19-.65-.49-.88-.89-.37-.63-.45-1.3-.25-1.99.2-.7.62-1.23,1.25-1.59s1.3-.45,1.99-.25c.7.2,1.22.6,1.56,1.2.41.7.57,1.54.45,2.51-.32,2.5-2.43,3.78-2.43,3.78l-.15-2.45Z"/>
              <path class="cls-4" d="m143.92,115.75h-.47c-.36-.01-.72-.11-1.08-.31-.36-.19-.65-.49-.88-.89-.37-.63-.45-1.3-.25-1.99.2-.7.62-1.23,1.25-1.59s1.3-.45,1.99-.25c.7.2,1.22.6,1.56,1.2.41.7.57,1.54.45,2.51-.32,2.5-2.43,3.78-2.43,3.78l-.15-2.45Z"/>
              <path class="cls-4" d="m214.48,115.75h-.47c-.36-.01-.72-.11-1.08-.31-.36-.19-.65-.49-.88-.89-.37-.63-.45-1.3-.25-1.99.2-.7.62-1.23,1.25-1.59s1.3-.45,1.99-.25c.7.2,1.22.6,1.56,1.2.41.7.57,1.54.45,2.51-.32,2.5-2.43,3.78-2.43,3.78l-.15-2.45Z"/>
              <path class="cls-4" d="m355.62,115.75h-.47c-.36-.01-.72-.11-1.08-.31-.36-.19-.65-.49-.88-.89-.37-.63-.45-1.3-.25-1.99.2-.7.62-1.23,1.25-1.59s1.3-.45,1.99-.25c.7.2,1.22.6,1.56,1.2.41.7.57,1.54.45,2.51-.32,2.5-2.43,3.78-2.43,3.78l-.15-2.45Z"/>
            </g>
            <g>
              <path class="cls-4" d="m35.15,61.3h-.47c-.36-.01-.72-.11-1.08-.31-.36-.19-.65-.49-.88-.89-.37-.63-.45-1.3-.25-1.99.2-.7.62-1.23,1.25-1.59s1.3-.45,1.99-.25c.7.2,1.22.6,1.56,1.2.41.7.57,1.54.45,2.51-.32,2.5-2.43,3.78-2.43,3.78l-.15-2.45Z"/>
              <path class="cls-4" d="m105.71,61.3h-.47c-.36-.01-.72-.11-1.08-.31-.36-.19-.65-.49-.88-.89-.37-.63-.45-1.3-.25-1.99.2-.7.62-1.23,1.25-1.59s1.3-.45,1.99-.25c.7.2,1.22.6,1.56,1.2.41.7.57,1.54.45,2.51-.32,2.5-2.43,3.78-2.43,3.78l-.15-2.45Z"/>
              <path class="cls-4" d="m176.28,61.3h-.47c-.36-.01-.72-.11-1.08-.31-.36-.19-.65-.49-.88-.89-.37-.63-.45-1.3-.25-1.99.2-.7.62-1.23,1.25-1.59s1.3-.45,1.99-.25c.7.2,1.22.6,1.56,1.2.41.7.57,1.54.45,2.51-.32,2.5-2.43,3.78-2.43,3.78l-.15-2.45Z"/>
              <path class="cls-4" d="m246.85,61.3h-.47c-.36-.01-.72-.11-1.08-.31-.36-.19-.65-.49-.88-.89-.37-.63-.45-1.3-.25-1.99.2-.7.62-1.23,1.25-1.59s1.3-.45,1.99-.25c.7.2,1.22.6,1.56,1.2.41.7.57,1.54.45,2.51-.32,2.5-2.43,3.78-2.43,3.78l-.15-2.45Z"/>
              <path class="cls-4" d="m317.41,61.3h-.47c-.36-.01-.72-.11-1.08-.31-.36-.19-.65-.49-.88-.89-.37-.63-.45-1.3-.25-1.99.2-.7.62-1.23,1.25-1.59s1.3-.45,1.99-.25c.7.2,1.22.6,1.56,1.2.41.7.57,1.54.45,2.51-.32,2.5-2.43,3.78-2.43,3.78l-.15-2.45Z"/>
              <path class="cls-4" d="m387.98,61.3h-.47c-.36-.01-.72-.11-1.08-.31-.36-.19-.65-.49-.88-.89-.37-.63-.45-1.3-.25-1.99.2-.7.62-1.23,1.25-1.59s1.3-.45,1.99-.25c.7.2,1.22.6,1.56,1.2.41.7.57,1.54.45,2.51-.32,2.5-2.43,3.78-2.43,3.78l-.15-2.45Z"/>
            </g>
            <g>
              <path class="cls-4" d="m35.15,170.21h-.47c-.36-.01-.72-.11-1.08-.31-.36-.19-.65-.49-.88-.89-.37-.63-.45-1.3-.25-1.99.2-.7.62-1.23,1.25-1.59s1.3-.45,1.99-.25c.7.2,1.22.6,1.56,1.2.41.7.57,1.54.45,2.51-.32,2.5-2.43,3.78-2.43,3.78l-.15-2.45Z"/>
              <path class="cls-4" d="m105.71,170.21h-.47c-.36-.01-.72-.11-1.08-.31-.36-.19-.65-.49-.88-.89-.37-.63-.45-1.3-.25-1.99.2-.7.62-1.23,1.25-1.59s1.3-.45,1.99-.25c.7.2,1.22.6,1.56,1.2.41.7.57,1.54.45,2.51-.32,2.5-2.43,3.78-2.43,3.78l-.15-2.45Z"/>
              <path class="cls-4" d="m176.28,170.21h-.47c-.36-.01-.72-.11-1.08-.31-.36-.19-.65-.49-.88-.89-.37-.63-.45-1.3-.25-1.99.2-.7.62-1.23,1.25-1.59s1.3-.45,1.99-.25c.7.2,1.22.6,1.56,1.2.41.7.57,1.54.45,2.51-.32,2.5-2.43,3.78-2.43,3.78l-.15-2.45Z"/>
              <path class="cls-4" d="m246.85,170.21h-.47c-.36-.01-.72-.11-1.08-.31-.36-.19-.65-.49-.88-.89-.37-.63-.45-1.3-.25-1.99.2-.7.62-1.23,1.25-1.59s1.3-.45,1.99-.25c.7.2,1.22.6,1.56,1.2.41.7.57,1.54.45,2.51-.32,2.5-2.43,3.78-2.43,3.78l-.15-2.45Z"/>
              <path class="cls-4" d="m317.41,170.21h-.47c-.36-.01-.72-.11-1.08-.31-.36-.19-.65-.49-.88-.89-.37-.63-.45-1.3-.25-1.99.2-.7.62-1.23,1.25-1.59s1.3-.45,1.99-.25c.7.2,1.22.6,1.56,1.2.41.7.57,1.54.45,2.51-.32,2.5-2.43,3.78-2.43,3.78l-.15-2.45Z"/>
              <path class="cls-4" d="m387.98,170.21h-.47c-.36-.01-.72-.11-1.08-.31-.36-.19-.65-.49-.88-.89-.37-.63-.45-1.3-.25-1.99.2-.7.62-1.23,1.25-1.59s1.3-.45,1.99-.25c.7.2,1.22.6,1.56,1.2.41.7.57,1.54.45,2.51-.32,2.5-2.43,3.78-2.43,3.78l-.15-2.45Z"/>
            </g>
            <g>
              <g id="_67JO0p" data-name="67JO0p">
                <g>
                  <path class="cls-4" d="m81.16,10.02l-.55-.95c-.02.11-.04.19-.05.27-.13.71-.49,1.25-1.09,1.65-.51.34-1.04.61-1.65.7-.84.12-1.54-.18-2.15-.72-.57-.51-1-1.13-1.38-1.78-.82-1.42-1.64-2.83-2.46-4.25-.02-.03-.03-.06-.06-.11,1.02-.68,2.03-1.36,3.05-2.06l.08.14c.84,1.45,1.67,2.9,2.51,4.34.06.11.12.22.2.31.4.48,1.05.38,1.3-.2.12-.28.1-.55-.05-.81-.81-1.41-1.62-2.83-2.44-4.25-.02-.04-.04-.08-.07-.13,1.02-.68,2.02-1.36,3.04-2.05,1.53,2.65,3.05,5.29,4.58,7.94-.94.64-1.87,1.29-2.83,1.95Z"/>
                  <path class="cls-4" d="m53.01,16.57c-.16,1.13-.31,2.23-.46,3.34-.11-.01-.21-.02-.32-.03-.75-.05-1.54.49-1.75,1.2-.17.57-.03,1.07.39,1.48.42.41.93.48,1.46.31.6-.19,1.04-.57,1.27-1.19,1.05.48,2.09.95,3.16,1.44-.27.36-.51.73-.79,1.06-.55.66-1.18,1.22-1.94,1.62-1.08.57-2.23.85-3.45.66-1.22-.19-2.2-.78-2.96-1.75-.63-.81-1.01-1.71-1.07-2.74-.08-1.34.37-2.5,1.29-3.46,1.16-1.21,2.58-1.88,4.27-1.93.29,0,.58-.02.89-.03Z"/>
                </g>
                <path class="cls-4" d="m73.63,11.22c.18,1.39-.22,2.61-1.17,3.63-1.04,1.11-2.32,1.77-3.86,1.85-1.4.07-2.57-.47-3.51-1.5-.64-.71-1.1-1.54-1.32-2.48-.18-.76-.08-1.51.14-2.25.38-1.28,1.18-2.21,2.43-2.94.89-.5,1.96-.8,3.12-.66,1.2.15,2.18.73,2.94,1.65.65.78,1.08,1.68,1.21,2.7Zm-4.23.18c-.23-.4-.74-.54-1.14-.31s-.54.74-.31,1.14.74.54,1.14.31.54-.74.31-1.14Z"/>
                <path class="cls-4" d="m65.52,18.67s.06.1.09.16l-2.95,1.7-.56-.98s-.04,0-.06,0c0,.05,0,.1-.01.15-.18.71-.46,1.36-1,1.86-1.41,1.29-3.52,1.22-4.75-.3-.49-.6-.78-1.28-.77-2.07,0-.93.42-1.66,1.13-2.22.69-.55,1.5-.77,2.37-.77.19,0,.39,0,.58,0-.29-.67-.65-1.12-1.47-1.09-.37.02-.69.19-1,.37-.75.44-1.41,1-2.04,1.59-.02.02-.05.04-.09.08-.1-.36-.2-.7-.3-1.04-.12-.42-.24-.83-.36-1.25-.02-.07-.03-.12.04-.17.85-.73,1.74-1.4,2.73-1.94.76-.42,1.56-.74,2.44-.78.76-.04,1.49.08,2.13.55.44.32.76.76,1.03,1.23.94,1.64,1.88,3.28,2.83,4.92Zm-5.19-.64c-.23-.4-.74-.54-1.14-.31s-.54.74-.31,1.14.74.54,1.14.31.54-.74.31-1.14Z"/>
              </g>
              <path class="cls-4" d="m44.79,27.87c.18,1.39-.22,2.61-1.17,3.63-1.04,1.11-2.32,1.77-3.86,1.85-1.4.07-2.57-.47-3.51-1.5-.64-.71-1.1-1.54-1.32-2.48-.18-.76-.08-1.51.14-2.25.38-1.28,1.18-2.21,2.43-2.94.89-.5,1.96-.8,3.12-.66,1.2.15,2.18.73,2.94,1.65.65.78,1.08,1.68,1.21,2.7Zm-4.23.18c-.23-.4-.74-.54-1.14-.31s-.54.74-.31,1.14.74.54,1.14.31.54-.74.31-1.14Z"/>
              <path class="cls-4" d="m42.9,21.72l-.17.1c-.14.07-.29.11-.46.11-.17,0-.34-.04-.51-.14-.27-.15-.44-.38-.51-.68-.07-.3-.03-.58.12-.85s.38-.44.68-.51c.3-.07.57-.04.83.11.3.17.53.44.69.82.41.98-.09,1.89-.09,1.89l-.57-.87Z"/>
            </g>
            <g>
              <g id="_67JO0p-2" data-name="67JO0p">
                <g>
                  <path class="cls-7" d="m252.82,128.64c.18.32.36.62.55.95.02-.11.04-.19.05-.27.13-.71.49-1.25,1.09-1.65.51-.34,1.04-.61,1.65-.7.84-.12,1.54.18,2.15.72.57.51,1,1.13,1.38,1.78.82,1.42,1.64,2.83,2.46,4.25.02.03.03.06.06.11-1.02.68-2.03,1.36-3.05,2.06l-.08-.14c-.84-1.45-1.67-2.9-2.51-4.34-.06-.11-.12-.22-.2-.31-.4-.48-1.05-.38-1.3.2-.12.28-.1.55.05.81.81,1.41,1.62,2.83,2.44,4.25.02.04.04.08.07.13-1.02.68-2.02,1.36-3.04,2.05-1.53-2.65-3.05-5.29-4.58-7.94.94-.64,1.87-1.29,2.83-1.95Z"/>
                  <path class="cls-7" d="m280.97,122.08c.16-1.13.31-2.23.46-3.34.11.01.21.02.32.03.75.05,1.54-.49,1.75-1.2.17-.57.03-1.07-.39-1.48-.42-.41-.93-.48-1.46-.31-.6.19-1.04.57-1.27,1.19-1.05-.48-2.09-.95-3.16-1.44.27-.36.51-.73.79-1.06.55-.66,1.18-1.22,1.94-1.62,1.08-.57,2.23-.85,3.45-.66,1.22.19,2.2.78,2.96,1.75.63.81,1.01,1.71,1.07,2.74.08,1.34-.37,2.5-1.29,3.46-1.16,1.21-2.58,1.88-4.27,1.93-.29,0-.58.02-.89.03Z"/>
                </g>
                <path class="cls-7" d="m260.35,127.44c-.18-1.39.22-2.61,1.17-3.63,1.04-1.11,2.32-1.77,3.86-1.85,1.4-.07,2.57.47,3.51,1.5.64.71,1.1,1.54,1.32,2.48.18.76.08,1.51-.14,2.25-.38,1.28-1.18,2.21-2.43,2.94-.89.5-1.96.8-3.12.66-1.2-.15-2.18-.73-2.94-1.65-.65-.78-1.08-1.68-1.21-2.7Zm4.23-.18c.23.4.74.54,1.14.31s.54-.74.31-1.14-.74-.54-1.14-.31-.54.74-.31,1.14Z"/>
                <path class="cls-7" d="m268.46,119.98s-.06-.1-.09-.16l2.95-1.7.56.98s.04,0,.06,0c0-.05,0-.1.01-.15.18-.71.46-1.36,1-1.86,1.41-1.29,3.52-1.22,4.75.3.49.6.78,1.28.77,2.07,0,.93-.42,1.66-1.13,2.22-.69.55-1.5.77-2.37.77-.19,0-.39,0-.58,0,.29.67.65,1.12,1.47,1.09.37-.02.69-.19,1-.37.75-.44,1.41-1,2.04-1.59.02-.02.05-.04.09-.08.1.36.2.7.3,1.04.12.42.24.83.36,1.25.02.07.03.12-.04.17-.85.73-1.74,1.4-2.73,1.94-.76.42-1.56.74-2.44.78-.76.04-1.49-.08-2.13-.55-.44-.32-.76-.76-1.03-1.23-.94-1.64-1.88-3.28-2.83-4.92Zm5.19.64c.23.4.74.54,1.14.31s.54-.74.31-1.14-.74-.54-1.14-.31-.54.74-.31,1.14Z"/>
              </g>
              <path class="cls-7" d="m289.19,110.78c-.18-1.39.22-2.61,1.17-3.63,1.04-1.11,2.32-1.77,3.86-1.85,1.4-.07,2.57.47,3.51,1.5.64.71,1.1,1.54,1.32,2.48.18.76.08,1.51-.14,2.25-.38,1.28-1.18,2.21-2.43,2.94-.89.5-1.96.8-3.12.66-1.2-.15-2.18-.73-2.94-1.65-.65-.78-1.08-1.68-1.21-2.7Zm4.23-.18c.23.4.74.54,1.14.31s.54-.74.31-1.14-.74-.54-1.14-.31-.54.74-.31,1.14Z"/>
              <path class="cls-6" d="m291.08,116.93l.17-.1c.14-.07.29-.11.46-.11.17,0,.34.04.51.14.27.15.44.38.51.68.07.3.03.58-.12.85s-.38.44-.68.51c-.3.07-.57.04-.83-.11-.3-.17-.53-.44-.69-.82-.41-.98.09-1.89.09-1.89l.57.87Z"/>
            </g>
            <g>
              <g id="_67JO0p-3" data-name="67JO0p">
                <g>
                  <path class="cls-4" d="m296.53,330.83l-.55-.95c-.02.11-.04.19-.05.27-.13.71-.49,1.25-1.09,1.65-.51.34-1.04.61-1.65.7-.84.12-1.54-.18-2.15-.72-.57-.51-1-1.13-1.38-1.78-.82-1.42-1.64-2.83-2.46-4.25-.02-.03-.03-.06-.06-.11,1.02-.68,2.03-1.36,3.05-2.06l.08.14c.84,1.45,1.67,2.9,2.51,4.34.06.11.12.22.2.31.4.48,1.05.38,1.3-.2.12-.28.1-.55-.05-.81-.81-1.41-1.62-2.83-2.44-4.25-.02-.04-.04-.08-.07-.13,1.02-.68,2.02-1.36,3.04-2.05,1.53,2.65,3.05,5.29,4.58,7.94-.94.64-1.87,1.29-2.83,1.95Z"/>
                  <path class="cls-4" d="m268.38,337.39c-.16,1.13-.31,2.23-.46,3.34-.11-.01-.21-.02-.32-.03-.75-.05-1.54.49-1.75,1.2-.17.57-.03,1.07.39,1.48.42.41.93.48,1.46.31.6-.19,1.04-.57,1.27-1.19,1.05.48,2.09.95,3.16,1.44-.27.36-.51.73-.79,1.06-.55.66-1.18,1.22-1.94,1.62-1.08.57-2.23.85-3.45.66-1.22-.19-2.2-.78-2.96-1.75-.63-.81-1.01-1.71-1.07-2.74-.08-1.34.37-2.5,1.29-3.46,1.16-1.21,2.58-1.88,4.27-1.93.29,0,.58-.02.89-.03Z"/>
                </g>
                <path class="cls-4" d="m289,332.03c.18,1.39-.22,2.61-1.17,3.63-1.04,1.11-2.32,1.77-3.86,1.85-1.4.07-2.57-.47-3.51-1.5-.64-.71-1.1-1.54-1.32-2.48-.18-.76-.08-1.51.14-2.25.38-1.28,1.18-2.21,2.43-2.94.89-.5,1.96-.8,3.12-.66,1.2.15,2.18.73,2.94,1.65.65.78,1.08,1.68,1.21,2.7Zm-4.23.18c-.23-.4-.74-.54-1.14-.31s-.54.74-.31,1.14.74.54,1.14.31.54-.74.31-1.14Z"/>
                <path class="cls-4" d="m280.89,339.48s.06.1.09.16l-2.95,1.7-.56-.98s-.04,0-.06,0c0,.05,0,.1-.01.15-.18.71-.46,1.36-1,1.86-1.41,1.29-3.52,1.22-4.75-.3-.49-.6-.78-1.28-.77-2.07,0-.93.42-1.66,1.13-2.22.69-.55,1.5-.77,2.37-.77.19,0,.39,0,.58,0-.29-.67-.65-1.12-1.47-1.09-.37.02-.69.19-1,.37-.75.44-1.41,1-2.04,1.59-.02.02-.05.04-.09.08-.1-.36-.2-.7-.3-1.04-.12-.42-.24-.83-.36-1.25-.02-.07-.03-.12.04-.17.85-.73,1.74-1.4,2.73-1.94.76-.42,1.56-.74,2.44-.78.76-.04,1.49.08,2.13.55.44.32.76.76,1.03,1.23.94,1.64,1.88,3.28,2.83,4.92Zm-5.19-.64c-.23-.4-.74-.54-1.14-.31s-.54.74-.31,1.14.74.54,1.14.31.54-.74.31-1.14Z"/>
              </g>
              <path class="cls-4" d="m260.16,348.69c.18,1.39-.22,2.61-1.17,3.63-1.04,1.11-2.32,1.77-3.86,1.85-1.4.07-2.57-.47-3.51-1.5-.64-.71-1.1-1.54-1.32-2.48-.18-.76-.08-1.51.14-2.25.38-1.28,1.18-2.21,2.43-2.94.89-.5,1.96-.8,3.12-.66,1.2.15,2.18.73,2.94,1.65.65.78,1.08,1.68,1.21,2.7Zm-4.23.18c-.23-.4-.74-.54-1.14-.31s-.54.74-.31,1.14.74.54,1.14.31.54-.74.31-1.14Z"/>
              <path class="cls-4" d="m258.27,342.53l-.17.1c-.14.07-.29.11-.46.11-.17,0-.34-.04-.51-.14-.27-.15-.44-.38-.51-.68-.07-.3-.03-.58.12-.85s.38-.44.68-.51c.3-.07.57-.04.83.11.3.17.53.44.69.82.41.98-.09,1.89-.09,1.89l-.57-.87Z"/>
            </g>
            <g>
              <g id="_67JO0p-4" data-name="67JO0p">
                <g>
                  <path class="cls-8" d="m37.82,239.68l.55.95c.02-.11.04-.19.05-.27.13-.71.49-1.25,1.09-1.65.51-.34,1.04-.61,1.65-.7.84-.12,1.54.18,2.15.72.57.51,1,1.13,1.38,1.78.82,1.42,1.64,2.83,2.46,4.25.02.03.03.06.06.11-1.02.68-2.03,1.36-3.05,2.06l-.08-.14c-.84-1.45-1.67-2.9-2.51-4.34-.06-.11-.12-.22-.2-.31-.4-.48-1.05-.38-1.3.2-.12.28-.1.55.05.81.81,1.41,1.62,2.83,2.44,4.25.02.04.04.08.07.13-1.02.68-2.02,1.36-3.04,2.05-1.53-2.65-3.05-5.29-4.58-7.94.94-.64,1.87-1.29,2.83-1.95Z"/>
                  <path class="cls-8" d="m65.97,233.13c.16-1.13.31-2.23.46-3.34.11.01.21.02.32.03.75.05,1.54-.49,1.75-1.2.17-.57.03-1.07-.39-1.48-.42-.41-.93-.48-1.46-.31-.6.19-1.04.57-1.27,1.19-1.05-.48-2.09-.95-3.16-1.44.27-.36.51-.73.79-1.06.55-.66,1.18-1.22,1.94-1.62,1.08-.57,2.23-.85,3.45-.66,1.22.19,2.2.78,2.96,1.75.63.81,1.01,1.71,1.07,2.74.08,1.34-.37,2.5-1.29,3.46-1.16,1.21-2.58,1.88-4.27,1.93-.29,0-.58.02-.89.03Z"/>
                </g>
                <path class="cls-8" d="m45.35,238.48c-.18-1.39.22-2.61,1.17-3.63,1.04-1.11,2.32-1.77,3.86-1.85,1.4-.07,2.57.47,3.51,1.5.64.71,1.1,1.54,1.32,2.48.18.76.08,1.51-.14,2.25-.38,1.28-1.18,2.21-2.43,2.94-.89.5-1.96.8-3.12.66-1.2-.15-2.18-.73-2.94-1.65-.65-.78-1.08-1.68-1.21-2.7Zm4.23-.18c.23.4.74.54,1.14.31s.54-.74.31-1.14-.74-.54-1.14-.31-.54.74-.31,1.14Z"/>
                <path class="cls-8" d="m53.46,231.03s-.06-.1-.09-.16l2.95-1.7.56.98s.04,0,.06,0c0-.05,0-.1.01-.15.18-.71.46-1.36,1-1.86,1.41-1.29,3.52-1.22,4.75.3.49.6.78,1.28.77,2.07,0,.93-.42,1.66-1.13,2.22-.69.55-1.5.77-2.37.77-.19,0-.39,0-.58,0,.29.67.65,1.12,1.47,1.09.37-.02.69-.19,1-.37.75-.44,1.41-1,2.04-1.59.02-.02.05-.04.09-.08.1.36.2.7.3,1.04.12.42.24.83.36,1.25.02.07.03.12-.04.17-.85.73-1.74,1.4-2.73,1.94-.76.42-1.56.74-2.44.78-.76.04-1.49-.08-2.13-.55-.44-.32-.76-.76-1.03-1.23-.94-1.64-1.88-3.28-2.83-4.92Zm5.19.64c.23.4.74.54,1.14.31s.54-.74.31-1.14-.74-.54-1.14-.31-.54.74-.31,1.14Z"/>
              </g>
              <path class="cls-8" d="m74.19,221.83c-.18-1.39.22-2.61,1.17-3.63,1.04-1.11,2.32-1.77,3.86-1.85,1.4-.07,2.57.47,3.51,1.5.64.71,1.1,1.54,1.32,2.48.18.76.08,1.51-.14,2.25-.38,1.28-1.18,2.21-2.43,2.94-.89.5-1.96.8-3.12.66-1.2-.15-2.18-.73-2.94-1.65-.65-.78-1.08-1.68-1.21-2.7Zm4.23-.18c.23.4.74.54,1.14.31s.54-.74.31-1.14-.74-.54-1.14-.31-.54.74-.31,1.14Z"/>
              <path class="cls-4" d="m76.08,227.98l.17-.1c.14-.07.29-.11.46-.11.17,0,.34.04.51.14.27.15.44.38.51.68.07.3.03.58-.12.85s-.38.44-.68.51c-.3.07-.57.04-.83-.11-.3-.17-.53-.44-.69-.82-.41-.98.09-1.89.09-1.89l.57.87Z"/>
            </g>
          </g>
        </g>
      </g>
    </pattern>
  </defs>
  <rect class="cls-3" width="539.51" height="698.5"/>
</svg>