<?xml version="1.0" encoding="UTF-8"?>
<svg id="Calque_1" data-name="Calque 1" xmlns="http://www.w3.org/2000/svg" viewBox="0 0 147.29 29.75">
  <defs>
    <style>
      .cls-1 {
        fill: #1e1e1c;
        stroke: #312a28;
        stroke-miterlimit: 10;
        stroke-width: .25px;
      }

      .cls-2, .cls-3 {
        stroke-width: 0px;
      }

      .cls-3 {
        fill: #d7ac05;
      }
    </style>
  </defs>
  <path class="cls-2" d="m64.66,19.27v-1.41c-.1.11-.17.19-.23.27-.6.71-1.37,1.09-2.29,1.15-.79.05-1.56,0-2.3-.29-1.02-.4-1.61-1.19-1.95-2.2-.32-.94-.39-1.91-.39-2.9,0-2.12,0-4.24,0-6.36v-.16c1.58-.11,3.15-.22,4.75-.33v.22c0,2.17,0,4.33,0,6.49,0,.16,0,.32.03.48.14.8.93,1.1,1.59.62.31-.24.47-.55.47-.94,0-2.11.01-4.23.02-6.34v-.19c1.58-.11,3.15-.22,4.74-.33v11.87c-1.46.12-2.93.23-4.43.35"/>
  <path class="cls-2" d="m28.85,8.4c-.9,1.17-1.79,2.3-2.68,3.45-.11-.08-.22-.16-.33-.24-.8-.54-2.04-.45-2.74.21-.56.53-.73,1.18-.52,1.92.2.72.73,1.14,1.44,1.3.8.18,1.54.04,2.19-.51.87,1.21,1.73,2.42,2.62,3.66-.53.23-1.04.49-1.57.68-1.04.38-2.11.6-3.22.56-1.58-.06-3.04-.49-4.3-1.5-1.24-1-1.97-2.3-2.18-3.88-.18-1.31-.02-2.57.57-3.76.77-1.56,2.03-2.56,3.68-3.05,2.08-.61,4.11-.44,6.03.6.33.18.66.36,1.02.55"/>
  <path class="cls-2" d="m55.82,11.94c-.26-1.53-.98-2.81-2.23-3.76-1.21-.91-2.59-1.27-3.92-1.28-1.87,0-3.37.53-4.63,1.72-.72.69-1.32,1.46-1.62,2.43-.36,1.2-.39,2.42-.13,3.63.38,1.76,1.34,3.12,2.96,3.96,1.77.91,3.63,1,5.52.42,1.73-.53,2.97-1.64,3.66-3.32.51-1.23.61-2.51.39-3.81m-6.33,2.35c-.6,0-1.09-.49-1.09-1.08s.49-1.08,1.09-1.08,1.08.49,1.08,1.08-.48,1.08-1.08,1.08"/>
  <path class="cls-2" d="m41.54,11.5c0-.7-.07-1.4-.36-2.05-.41-.93-1.15-1.54-2.03-1.99-1.02-.52-2.12-.67-3.24-.7-1.45-.03-2.89.15-4.32.41-.11.02-.13.08-.16.17-.13.54-.27,1.09-.41,1.63-.11.45-.22.89-.34,1.36.07-.01.11-.02.15-.03,1.09-.25,2.2-.46,3.33-.46.47,0,.93.01,1.36.23.94.48,1.04,1.23.94,2.17-.22-.13-.44-.25-.65-.38-.98-.57-2.02-.85-3.16-.67-1.17.18-2.1.73-2.71,1.76-.52.88-.63,1.83-.47,2.82.4,2.5,2.72,3.94,5.14,3.41.94-.21,1.68-.76,2.33-1.44.05-.05.07-.11.11-.16.02.02.04.03.06.05v1.46h4.41v-.24c0-2.45.01-4.9.02-7.35m-6.51,4.36c-.6,0-1.08-.49-1.08-1.08s.48-1.08,1.08-1.08,1.08.49,1.08,1.08-.48,1.08-1.08,1.08"/>
  <path class="cls-2" d="m12.7,11.95c-.26-1.53-.98-2.81-2.23-3.76-1.21-.91-2.59-1.27-3.92-1.28-1.87,0-3.37.53-4.63,1.72-.72.69-1.32,1.46-1.62,2.43-.36,1.2-.39,2.42-.13,3.63.38,1.76,1.34,3.12,2.96,3.96,1.77.91,3.63,1,5.52.42,1.73-.53,2.97-1.64,3.66-3.32.51-1.23.61-2.51.39-3.81m-6.33,2.35c-.6,0-1.08-.49-1.08-1.08s.48-1.08,1.08-1.08,1.08.49,1.08,1.08-.48,1.08-1.08,1.08"/>
  <path class="cls-3" d="m14.18,7.63h-.26c-.2,0-.4-.06-.59-.17-.2-.11-.36-.27-.48-.49-.2-.35-.25-.71-.14-1.09.11-.38.34-.67.68-.87.35-.2.71-.25,1.09-.14.38.11.67.33.85.66.22.38.31.84.25,1.38-.17,1.36-1.33,2.06-1.33,2.06l-.08-1.34Z"/>
  <g>
    <path class="cls-1" d="m75.51,28.43c-.22-.83.04-2.12,1.08-3.7.89-1.38,3.88-4.25,6.82-6.71.33-.25.65-.53,1-.78.28-1.26.52-2.64.71-4.16.02-.21.22-.34.41-.3.17.02.33.23.3.44-.15,1.17-.35,2.28-.56,3.33,1.93-1.5,3.64-2.6,4.48-2.71.17-.02.37.12.39.32.04.21-.09.39-.28.41-.82.12-2.73,1.43-4.83,3.1-1.41,6.05-3.72,9.47-5.67,10.97-.89.69-1.71.99-2.36.99-.76-.02-1.3-.46-1.49-1.2Zm.69-.18c.09.39.39.6.8.62.52,0,1.19-.25,1.93-.83,1.75-1.36,3.81-4.37,5.17-9.61-.09.07-.15.11-.24.18-2.9,2.41-5.82,5.24-6.71,6.58-.89,1.36-1.15,2.42-.95,3.06Zm9.27-17.32c.17-.55.52-.9.52-.9.13-.14.35-.14.5,0,.13.16.15.39,0,.53,0,0-.22.25-.33.62-.06.21-.28.3-.45.23-.2-.07-.28-.3-.24-.48Z"/>
    <path class="cls-1" d="m91.94,1.09c.04.41-.02.99-.26,1.89-.06.21-.24.32-.43.25-.2-.07-.3-.28-.24-.46.22-.8.26-1.31.24-1.63-.02-.21-.09-.3-.13-.34-.17-.12-.2-.37-.09-.53.13-.16.35-.18.5-.05.17.14.37.39.41.87Z"/>
    <path class="cls-1" d="m98.05,13.28s-1.67,4.62-.63,4.62c1.41,0,4.59-3.91,4.59-3.93.13-.16.35-.16.5-.02.15.14.17.37.04.53,0,.02-3.38,4.18-5.11,4.18-1.13,0-1.06-1.61-.78-3.08-.37.58-.8,1.17-1.23,1.72-.69.87-1.43,1.59-1.99,1.7-.06,0-.11.02-.17.02-.19,0-.39-.07-.52-.21s-.22-.3-.26-.53c-.02-.07-.02-.16-.02-.23-.07-2.37,1.02-4.19,2.1-5.04.3-.23.63-.41.93-.48.32-.09.65-.09.91.07.33.16.56.48.63.99.15-.25.28-.48.37-.67.11-.16.33-.23.5-.12.15.09.22.3.15.46Zm-1.43,1.04c-.15-.07-.26-.21-.26-.37,0-.37-.09-.6-.24-.67-.11-.07-.26-.07-.43-.02-.22.07-.45.21-.69.39-.95.74-1.88,2.32-1.82,4.42v.12s.02.09.02.09h.11c.39-.12.97-.71,1.58-1.47.61-.78,1.23-1.7,1.73-2.48Z"/>
    <path class="cls-1" d="m102.4,18.66c-2.1,0-.04-5.66-.04-5.66.06-.21.26-.3.45-.21.17.07.28.3.2.48,0,.02-1.39,4.65-.63,4.62,1.43-.05,4.59-3.91,4.61-3.93.11-.16.35-.16.5-.02.15.14.15.37.02.53,0,.02-3.38,4.18-5.11,4.18Zm1.21-8.05c.15.16.15.39.02.55,0,0-.24.23-.35.6-.07.21-.26.3-.46.23-.17-.07-.28-.3-.22-.48.17-.55.5-.9.5-.9.15-.14.37-.14.5,0Z"/>
    <path class="cls-1" d="m114.33,14.5l.07-.3c.61-2.28,1.3-4.53,2.08-6.72.39-1.06.78-1.93,1.19-2.64.41-.69.8-1.1,1.21-1.24.02-.02.06-.02.09-.02.11-.02.2,0,.28.02.35.14.46.53.33,1.15-.09.44-.26.99-.5,1.66-.5,1.36-1.15,2.8-1.91,4.39s-1.43,2.83-1.97,3.75c.13.05.35.09.63.12.28.05.65.07,1.15.07s1.08-.07,1.71-.23c.63-.14,1.15-.28,1.6-.41.45-.14.69-.21.71-.21.11-.02.2-.02.28.02.06.05.13.12.17.21.02.12.02.21-.02.3s-.11.16-.2.18c-.02.02-.28.09-.74.23-.48.14-1.04.28-1.71.44s-1.26.23-1.8.23c-.71,0-1.23-.05-1.56-.12.13.34.22.85.28,1.56.04.71-.02,1.68-.17,2.88-.37,2.51-.82,4.55-1.36,6.16-.15.46-.32.8-.48,1.06-.24.39-.52.53-.8.41-.09-.02-.15-.09-.22-.16-.32-.34-.48-.99-.48-1.89s.11-1.95.32-3.17c.46-2.46,1.02-4.9,1.69-7.36v-.02l.11-.34Zm.52,5.17c.15-1.15.22-2.05.17-2.69-.07-.64-.15-1.1-.26-1.4-.63,2.3-1.13,4.58-1.54,6.81-.41,2.23-.46,3.68-.11,4.32v-.07s-.02-.02,0-.05c.13-.21.26-.51.41-.9.52-1.56.95-3.56,1.32-6.03Zm2.29-11.89c-.5,1.31-.95,2.69-1.36,4.19,1.04-2.02,1.91-3.98,2.62-5.86.24-.62.39-1.13.48-1.52,0-.02.02-.11,0-.14-.52.44-1.08,1.56-1.73,3.33Z"/>
    <path class="cls-1" d="m125.25,13.28s-1.67,4.62-.63,4.62c1.41,0,4.59-3.91,4.59-3.93.13-.16.35-.16.5-.02.15.14.17.37.04.53,0,.02-3.38,4.18-5.11,4.18-1.13,0-1.06-1.61-.78-3.08-.37.58-.8,1.17-1.23,1.72-.69.87-1.43,1.59-1.99,1.7-.06,0-.11.02-.17.02-.19,0-.39-.07-.52-.21s-.22-.3-.26-.53c-.02-.07-.02-.16-.02-.23-.07-2.37,1.02-4.19,2.1-5.04.3-.23.63-.41.93-.48.32-.09.65-.09.91.07.33.16.56.48.63.99.15-.25.28-.48.37-.67.11-.16.33-.23.5-.12.15.09.22.3.15.46Zm-1.43,1.04c-.15-.07-.26-.21-.26-.37,0-.37-.09-.6-.24-.67-.11-.07-.26-.07-.43-.02-.22.07-.45.21-.69.39-.95.74-1.88,2.32-1.82,4.42v.12s.02.09.02.09h.11c.39-.12.97-.71,1.58-1.47.61-.78,1.23-1.7,1.73-2.48Z"/>
    <path class="cls-1" d="m129.6,18.66c-2.1,0-.04-5.66-.04-5.66.06-.21.26-.3.45-.21.17.07.28.3.2.48,0,.02-1.39,4.65-.63,4.62,1.43-.05,4.59-3.91,4.61-3.93.11-.16.35-.16.5-.02.15.14.15.37.02.53,0,.02-3.38,4.18-5.11,4.18Zm1.21-8.05c.15.16.15.39.02.55,0,0-.24.23-.35.6-.07.21-.26.3-.46.23-.17-.07-.28-.3-.22-.48.17-.55.5-.9.5-.9.15-.14.37-.14.5,0Z"/>
    <path class="cls-1" d="m141.3,15.46c.17-.67.35-1.33.35-1.77,0-.28-.09-.46-.32-.46-1.04,0-2.43,2.37-3.21,3.68-.26.41-.45.74-.63.92-.09.12-.24.18-.39.14-.28-.09-.33-.44-.13-1.2.09-.28.17-.57.28-.92.28-.83.58-1.77.58-2.35,0-.16-.04-.28-.11-.28-1.28,0-2.99,3.27-3.79,4.81-.11.21-.2.39-.26.51-.09.16-.26.23-.43.18-.17-.07-.28-.3-.22-.48.11-.39.28-1.01.48-1.82.24-.87.52-1.95.8-2.97.06-.18.26-.3.46-.23.17.07.28.28.24.46-.19.69-.37,1.31-.52,1.86.93-1.54,2.12-3.06,3.23-3.06.61,0,.82.41.82,1.03,0,.53-.17,1.24-.39,1.93.87-1.38,2.04-2.97,3.16-2.97.8,0,1.06.48,1.06,1.2,0,.58-.2,1.29-.39,2-.17.67-.37,1.31-.37,1.77,0,.25.09.44.35.44,1.41,0,4.59-3.91,4.59-3.93.13-.16.35-.16.5-.02.15.14.17.37.04.53,0,.02-3.4,4.18-5.11,4.18-.8,0-1.06-.48-1.06-1.22,0-.55.2-1.26.39-1.98Z"/>
  </g>
</svg>