<?xml version="1.0" encoding="UTF-8"?>
<svg id="Calque_1" data-name="Calque 1" xmlns="http://www.w3.org/2000/svg" viewBox="0 0 123.71 23.94">
  <defs>
    <style>
      .cls-1 {
        fill: #1e1e1c;
        stroke: #312a28;
        stroke-miterlimit: 10;
        stroke-width: .25px;
      }

      .cls-2, .cls-3 {
        stroke-width: 0px;
      }

      .cls-3 {
        fill: #d7ac05;
      }
    </style>
  </defs>
  <path class="cls-2" d="m119.28,14.46v-1.41c-.1.11-.17.19-.23.27-.6.71-1.37,1.09-2.29,1.15-.79.05-1.56,0-2.3-.29-1.02-.4-1.61-1.19-1.95-2.2-.32-.94-.39-1.91-.39-2.9,0-2.12,0-4.24,0-6.36v-.16c1.58-.11,3.15-.22,4.75-.33v.22c0,2.17,0,4.33,0,6.49,0,.16,0,.32.03.48.14.8.93,1.1,1.59.62.31-.24.47-.55.47-.94,0-2.11.01-4.23.02-6.34v-.19c1.58-.11,3.15-.22,4.74-.33v11.87c-1.46.12-2.93.23-4.43.35"/>
  <path class="cls-2" d="m83.47,3.58c-.9,1.17-1.79,2.3-2.68,3.45-.11-.08-.22-.16-.33-.24-.8-.54-2.04-.45-2.74.21-.56.53-.73,1.18-.52,1.92.2.72.73,1.14,1.44,1.3.8.18,1.54.04,2.19-.51.87,1.21,1.73,2.42,2.62,3.66-.53.23-1.04.49-1.57.68-1.04.38-2.11.6-3.22.56-1.58-.06-3.04-.49-4.3-1.5-1.24-1-1.97-2.3-2.18-3.88-.18-1.31-.02-2.57.57-3.76.77-1.56,2.03-2.56,3.68-3.05,2.08-.61,4.11-.44,6.03.6.33.18.66.36,1.02.55"/>
  <path class="cls-2" d="m110.45,7.12c-.26-1.53-.98-2.81-2.23-3.76-1.21-.91-2.59-1.27-3.92-1.28-1.87,0-3.37.53-4.63,1.72-.72.69-1.32,1.46-1.62,2.43-.36,1.2-.39,2.42-.13,3.63.38,1.76,1.34,3.12,2.96,3.96,1.77.91,3.63,1,5.52.42,1.73-.53,2.97-1.64,3.66-3.32.51-1.23.61-2.51.39-3.81m-6.33,2.35c-.6,0-1.09-.49-1.09-1.08s.49-1.08,1.09-1.08,1.08.49,1.08,1.08-.48,1.08-1.08,1.08"/>
  <path class="cls-2" d="m96.16,6.68c0-.7-.07-1.4-.36-2.05-.41-.93-1.15-1.54-2.03-1.99-1.02-.52-2.12-.67-3.24-.7-1.45-.03-2.89.15-4.32.41-.11.02-.13.08-.16.17-.13.54-.27,1.09-.41,1.63-.11.45-.22.89-.34,1.36.07-.01.11-.02.15-.03,1.09-.25,2.2-.46,3.33-.46.47,0,.93.01,1.36.23.94.48,1.04,1.23.94,2.17-.22-.13-.44-.25-.65-.38-.98-.57-2.02-.85-3.16-.67-1.17.18-2.1.73-2.71,1.76-.52.88-.63,1.83-.47,2.82.4,2.5,2.72,3.94,5.14,3.41.94-.21,1.68-.76,2.33-1.44.05-.05.07-.11.11-.16.02.02.04.03.06.05v1.46h4.41v-.24c0-2.45.01-4.9.02-7.35m-6.51,4.36c-.6,0-1.08-.49-1.08-1.08s.48-1.08,1.08-1.08,1.08.49,1.08,1.08-.48,1.08-1.08,1.08"/>
  <path class="cls-2" d="m67.32,7.13c-.26-1.53-.98-2.81-2.23-3.76-1.21-.91-2.59-1.27-3.92-1.28-1.87,0-3.37.53-4.63,1.72-.72.69-1.32,1.46-1.62,2.43-.36,1.2-.39,2.42-.13,3.63.38,1.76,1.34,3.12,2.96,3.96,1.77.91,3.63,1,5.52.42,1.73-.53,2.97-1.64,3.66-3.32.51-1.23.61-2.51.39-3.81m-6.33,2.35c-.6,0-1.08-.49-1.08-1.08s.48-1.08,1.08-1.08,1.08.49,1.08,1.08-.48,1.08-1.08,1.08"/>
  <path class="cls-3" d="m68.81,2.81h-.26c-.2,0-.4-.06-.59-.17-.2-.11-.36-.27-.48-.49-.2-.35-.25-.71-.14-1.09.11-.38.34-.67.68-.87.35-.2.71-.25,1.09-.14.38.11.67.33.85.66.22.38.31.84.25,1.38-.17,1.36-1.33,2.06-1.33,2.06l-.08-1.34Z"/>
  <g>
    <path class="cls-1" d="m.2,22.62c-.22-.83.04-2.12,1.08-3.7.89-1.38,3.88-4.25,6.82-6.71.33-.25.65-.53,1-.78.28-1.27.52-2.65.71-4.16.02-.21.22-.35.41-.3.17.02.33.23.3.44-.15,1.17-.35,2.28-.56,3.33,1.93-1.49,3.64-2.6,4.48-2.71.17-.02.37.11.39.32.04.21-.09.39-.28.41-.82.11-2.73,1.43-4.83,3.1-1.41,6.05-3.72,9.47-5.67,10.97-.89.69-1.71.99-2.36.99-.76-.02-1.3-.46-1.49-1.2Zm.69-.18c.09.39.39.6.8.62.52,0,1.19-.25,1.93-.83,1.75-1.36,3.81-4.37,5.17-9.61-.09.07-.15.12-.24.18-2.9,2.42-5.82,5.24-6.71,6.58-.89,1.36-1.15,2.41-.95,3.06ZM10.16,5.12c.17-.55.52-.9.52-.9.13-.14.35-.14.5,0,.13.16.15.39,0,.53,0,0-.22.25-.33.62-.06.21-.28.3-.45.23-.2-.07-.28-.3-.24-.48Z"/>
    <path class="cls-1" d="m15.22,7.46c.06-.11-1.47,4.19-.63,4.62,1.39,0,4.44-4.25,4.44-4.25.13-.16.35-.18.5-.07.13.11.17.3.11.46-.22.71-.5,1.75-.61,2.62-.06.69-.04,1.24.24,1.24,1.41,0,4.59-3.91,4.59-3.93.13-.16.35-.16.5-.02.15.14.17.37.04.53,0,.02-3.38,4.19-5.11,4.19-.91,0-1.08-.94-.95-2.12.04-.32.09-.67.17-1.01-1.1,1.31-2.79,3.13-3.9,3.13-2.1,0-.06-5.66-.04-5.66.06-.21.26-.3.45-.21.17.07.26.3.2.48Z"/>
    <path class="cls-1" d="m24.54,11.46c-.09-.28-.17-.51-.26-.74-.24-.58-.5-1.15-.45-2.18.11-2.37,1.67-2.62,1.67-2.62.19-.02.39.12.41.32.04.21-.09.39-.28.44,0,0-1.02.14-1.08,1.91-.02.87.17,1.36.39,1.86.07.16.13.34.2.53,1.15-.85,2.6-1.84,4.44-2.9.17-.12.39-.02.48.14.11.18.04.41-.13.53-1.95,1.13-3.44,2.14-4.59,3.01.07.41.09.9,0,1.52-.17,1.59-1.06,2.58-1.88,2.97-.58.28-1.17.25-1.54-.05-.37-.34-.5-.92-.09-1.75.35-.74,1.17-1.75,2.73-2.99Zm-2.1,3.33c-.22.46-.22.71-.11.8.15.14.45.12.82-.05.63-.3,1.32-1.1,1.47-2.39.04-.32.04-.62.04-.85-1.26,1.03-1.93,1.86-2.23,2.48Z"/>
    <path class="cls-1" d="m32.79,1.44c-.24.53-.5,1.1-.74,1.68l2.82-.32c.19-.02.37.14.39.35s-.11.39-.3.41l-3.25.37c-.65,1.66-1.28,3.4-1.62,4.9-.22.92-.33,1.73-.28,2.32.02.48.15.78.39.87.09.02.15.02.26.02.74-.02,1.6-.67,2.38-1.45.8-.8,1.54-1.79,1.99-2.42.13-.16.35-.18.52-.07.15.14.17.37.07.55-.48.64-1.23,1.63-2.08,2.48-.89.87-1.88,1.61-2.84,1.66-.17,0-.35-.02-.5-.07-.56-.18-.84-.76-.89-1.56-.07-.67.06-1.56.28-2.53.35-1.43.89-3.06,1.52-4.62l-4.61.53c-.2.02-.39-.11-.41-.32-.02-.21.11-.39.3-.41l5.04-.6c.3-.74.63-1.45.93-2.12.09-.18.3-.25.48-.14.17.09.24.3.15.48Z"/>
    <path class="cls-1" d="m34.17,10.64c-.33.62-.43,1.08-.37,1.36v.02c.04.16.15.28.35.32.28.07.67.05,1.13-.09,1.75-.44,4.29-2.07,5.63-3.98.11-.16.33-.18.5-.07.15.14.19.37.06.53-1.41,2.05-4.13,3.79-6,4.25-.56.16-1.08.18-1.47.09-.48-.14-.8-.44-.89-.94-.11-.62.17-1.56,1.02-2.9.46-.69,1-1.36,1.52-1.84.5-.46,1-.76,1.41-.76.3,0,.5.16.63.41.07.18.09.44.04.69-.02.23-.11.48-.26.76-.46.87-1.52,1.89-3.23,2.14h-.06Zm.5-.87c1.13-.3,1.84-1.01,2.19-1.66.09-.18.15-.37.17-.53.02-.07.02-.14.02-.18-.24.02-.56.23-.93.57-.48.44-.97,1.06-1.41,1.7,0,.05-.02.07-.04.09Z"/>
  </g>
</svg>