<?xml version="1.0" encoding="UTF-8"?>
<svg id="Calque_1" xmlns="http://www.w3.org/2000/svg" version="1.1" viewBox="0 0 140 29.8">
  <!-- Generator: Adobe Illustrator 29.0.1, SVG Export Plug-In . SVG Version: 2.1.0 Build 192)  -->
  <defs>
    <style>
      .st0 {
        fill: none;
      }

      .st1 {
        fill: #d7ac05;
      }

      .st2 {
        fill: #1e1e1c;
        stroke: #312a28;
        stroke-miterlimit: 10;
        stroke-width: .2px;
      }
    </style>
  </defs>
  <path d="M123.7,20.6v-1.4c0,.1-.2.2-.2.3-.6.7-1.4,1.1-2.3,1.1s-1.6,0-2.3-.3c-1-.4-1.6-1.2-1.9-2.2-.3-.9-.4-1.9-.4-2.9v-6.5c1.6,0,3.2-.2,4.8-.3v7.2c0,.8.9,1.1,1.6.6.3-.2.5-.6.5-.9v-6.5c1.6,0,3.2-.2,4.7-.3v11.9c-1.5.1-2.9.2-4.4.4"/>
  <path d="M87.9,9.7c-.9,1.2-1.8,2.3-2.7,3.4l-.3-.2c-.8-.5-2-.4-2.7.2-.6.5-.7,1.2-.5,1.9s.7,1.1,1.4,1.3c.8.2,1.5,0,2.2-.5.9,1.2,1.7,2.4,2.6,3.7-.5.2-1,.5-1.6.7-1,.4-2.1.6-3.2.6-1.6,0-3-.5-4.3-1.5-1.2-1-2-2.3-2.2-3.9-.2-1.3,0-2.6.6-3.8.8-1.6,2-2.6,3.7-3,2.1-.6,4.1-.4,6,.6.3.2.7.4,1,.5"/>
  <path d="M114.8,13.2c-.3-1.5-1-2.8-2.2-3.8-1.2-.9-2.6-1.3-3.9-1.3-1.9,0-3.4.5-4.6,1.7-.7.7-1.3,1.5-1.6,2.4-.4,1.2-.4,2.4,0,3.6.4,1.8,1.3,3.1,3,4,1.8.9,3.6,1,5.5.4,1.7-.5,3-1.6,3.7-3.3.5-1.2.6-2.5.4-3.8M108.5,15.6c-.6,0-1.1-.5-1.1-1.1s.5-1.1,1.1-1.1,1.1.5,1.1,1.1-.5,1.1-1.1,1.1"/>
  <path d="M100.6,12.8c0-.7,0-1.4-.4-2-.4-.9-1.2-1.5-2-2-1-.5-2.1-.7-3.2-.7s-2.9.2-4.3.4q0,0-.2.2c0,.5-.3,1.1-.4,1.6,0,.4-.2.9-.3,1.4h.2c1.1-.2,2.2-.5,3.3-.5s.9,0,1.4.2c.9.5,1,1.2.9,2.2-.2,0-.4-.2-.7-.4-1-.6-2-.8-3.2-.7-1.2.2-2.1.7-2.7,1.8-.5.9-.6,1.8-.5,2.8.4,2.5,2.7,3.9,5.1,3.4.9-.2,1.7-.8,2.3-1.4,0,0,0-.1,0-.2h0v1.5h4.4v-7.5M94,17.1c-.6,0-1.1-.5-1.1-1.1s.5-1.1,1.1-1.1,1.1.5,1.1,1.1-.5,1.1-1.1,1.1"/>
  <path d="M71.7,13.2c-.3-1.5-1-2.8-2.2-3.8-1.2-.9-2.6-1.3-3.9-1.3-1.9,0-3.4.5-4.6,1.7-.7.7-1.3,1.5-1.6,2.4-.4,1.2-.4,2.4,0,3.6.4,1.8,1.3,3.1,3,4,1.8.9,3.6,1,5.5.4,1.7-.5,3-1.6,3.7-3.3.5-1.2.6-2.5.4-3.8M65.4,15.6c-.6,0-1.1-.5-1.1-1.1s.5-1.1,1.1-1.1,1.1.5,1.1,1.1-.5,1.1-1.1,1.1"/>
  <path class="st1" d="M73.2,8.9h-.3c-.2,0-.4,0-.6-.2-.2,0-.4-.3-.5-.5-.2-.4-.2-.7,0-1.1s.3-.7.7-.9c.3-.2.7-.2,1.1-.1s.7.3.8.7c.2.4.3.8.2,1.4-.2,1.4-1.3,2.1-1.3,2.1v-1.3h0Z"/>
  <g>
    <path class="st2" d="M10.1,27.8c-.2-.8,0-2.2,1.2-3.9,1-1.5,4.1-4.4,7.2-7.1.3-.2.6-.5,1.1-.8.3-1.4.5-2.8.7-4.4,0-.2.2-.3.4-.3s.3.2.3.4c-.1,1.3-.4,2.4-.6,3.5,2-1.6,3.8-2.8,4.8-2.9.2,0,.4.1.4.3s0,.4-.3.4c-.8.1-2.9,1.5-5.1,3.3-1.5,6.5-3.9,10-6,11.6-1,.7-1.8,1.1-2.5,1.1s-1.4-.5-1.6-1.3h.1ZM10.8,27.6c0,.4.4.6.8.6s1.3-.2,2-.8c1.9-1.5,4-4.7,5.5-10.2l-.2.2c-3.1,2.5-6.1,5.5-7.1,7-1,1.5-1.2,2.5-1.1,3.3h0ZM20.7,9.3c.2-.6.5-1,.5-1,.1-.1.4-.1.5,0,.1.2.1.4,0,.5,0,0-.2.2-.3.6,0,.2-.3.3-.4.2-.2,0-.3-.3-.2-.5h-.1Z"/>
    <path class="st2" d="M26,11.8c0-.1-1.6,4.4-.6,4.9,1.5,0,4.7-4.4,4.7-4.4.1-.2.4-.2.5,0,.1.1.2.3.1.5-.2.7-.5,1.9-.6,2.8,0,.7,0,1.3.2,1.3,1.5,0,4.9-4.1,4.9-4.1.1-.2.4-.2.5,0,.1.1.2.4,0,.5,0,0-3.6,4.4-5.4,4.4s-1.2-1-1.1-2.2c0-.3,0-.7.2-1.1-1.2,1.4-3,3.3-4.1,3.3-2.2,0,0-6,0-6,0-.2.3-.3.4-.2.2,0,.3.3.2.5h.1Z"/>
    <path class="st2" d="M35.8,16c0-.3-.2-.5-.3-.7-.2-.6-.5-1.2-.5-2.3.1-2.5,1.8-2.8,1.8-2.8.2,0,.4.1.4.3s0,.4-.3.4c0,0-1.1.1-1.2,2,0,1,.2,1.5.4,2,0,.2.1.3.2.5,1.2-1,2.8-1.9,4.7-3.1.2-.1.4,0,.5.1.1.2,0,.4-.1.5-2.1,1.2-3.6,2.2-4.9,3.2v1.6c-.2,1.7-1.2,2.8-2,3.2-.6.3-1.3.2-1.6,0-.4-.3-.5-1,0-1.9.4-.7,1.3-1.9,2.9-3.2h0ZM33.6,19.5c-.2.5-.2.7-.1.8s.5.1.8,0c.6-.3,1.4-1.2,1.6-2.5v-1c-1.4,1.1-2,2-2.3,2.6h0Z"/>
    <path class="st2" d="M44.6,5.3c-.2.5-.5,1.2-.7,1.8l3-.3c.2,0,.4.1.4.3s-.1.4-.3.4l-3.4.4c-.6,1.8-1.4,3.6-1.7,5.2-.2,1-.3,1.8-.3,2.4s.1.8.4,1h.3c.7,0,1.7-.7,2.5-1.5.8-.8,1.6-1.9,2.1-2.5.1-.2.3-.2.5,0,.2.1.2.4,0,.6-.5.6-1.3,1.7-2.2,2.6-1,1-2,1.7-3,1.8h-.5c-.6-.2-.8-.8-1-1.7,0-.7,0-1.7.3-2.6.4-1.5,1-3.3,1.6-4.9l-4.9.5c-.2,0-.4-.1-.4-.3s.1-.4.3-.4l5.3-.6c.3-.7.6-1.6,1-2.2,0-.2.3-.2.5-.1.2,0,.2.3.2.5h0v-.4Z"/>
    <path class="st2" d="M46.1,15.1c-.3.6-.4,1.2-.4,1.5h0c0,.2.2.3.3.3h1.2c1.9-.4,4.5-2.2,5.9-4.2.1-.2.3-.2.5,0,.2.1.2.4,0,.5-1.5,2.2-4.3,4-6.3,4.4-.6.2-1.2.2-1.6,0-.5-.1-.8-.4-1-1-.1-.6.2-1.7,1.1-3.1.5-.7,1.1-1.5,1.6-1.9.5-.5,1.1-.8,1.5-.8s.5.2.6.4v.7c0,.2-.1.5-.3.8-.5,1-1.6,2-3.4,2.2h.3ZM46.6,14.2c1.2-.3,1.9-1.1,2.3-1.8,0-.2.2-.4.2-.5v-.2c-.2,0-.6.2-1,.6-.5.4-1.1,1.2-1.5,1.8h-.1Z"/>
  </g>
  <rect class="st0" width="140" height="29.8"/>
</svg>